<svg width="1363" height="163" viewBox="0 0 1363 163" fill="none" xmlns="http://www.w3.org/2000/svg">
<path d="M0 15C0 6.71573 6.71573 0 15 0H37V163H15C6.71573 163 0 156.284 0 148V15Z" fill="#424242"/>
<rect width="1097" height="163" transform="translate(37)" fill="#F0F0F0"/>
<path d="M101.906 53.9219L94.3945 51.2383V48.0859L104.602 52.375V54.6367L101.906 53.9219ZM94.3945 56.1719L101.918 53.4297L104.602 52.7852V55.0352L94.3945 59.3242V56.1719ZM126.422 52.082V58.8438C126.156 59.1641 125.746 59.5117 125.191 59.8867C124.637 60.2539 123.922 60.5703 123.047 60.8359C122.172 61.1016 121.113 61.2344 119.871 61.2344C118.77 61.2344 117.766 61.0547 116.859 60.6953C115.953 60.3281 115.172 59.793 114.516 59.0898C113.867 58.3867 113.367 57.5273 113.016 56.5117C112.664 55.4883 112.488 54.3203 112.488 53.0078V51.9414C112.488 50.6289 112.656 49.4609 112.992 48.4375C113.336 47.4141 113.824 46.5508 114.457 45.8477C115.09 45.1445 115.844 44.6094 116.719 44.2422C117.594 43.875 118.566 43.6914 119.637 43.6914C121.121 43.6914 122.34 43.9336 123.293 44.418C124.246 44.8945 124.973 45.5586 125.473 46.4102C125.98 47.2539 126.293 48.2227 126.41 49.3164H123C122.914 48.7383 122.75 48.2344 122.508 47.8047C122.266 47.375 121.918 47.0391 121.465 46.7969C121.02 46.5547 120.441 46.4336 119.73 46.4336C119.145 46.4336 118.621 46.5547 118.16 46.7969C117.707 47.0312 117.324 47.3789 117.012 47.8398C116.699 48.3008 116.461 48.8711 116.297 49.5508C116.133 50.2305 116.051 51.0195 116.051 51.918V53.0078C116.051 53.8984 116.137 54.6875 116.309 55.375C116.48 56.0547 116.734 56.6289 117.07 57.0977C117.414 57.5586 117.836 57.9062 118.336 58.1406C118.836 58.375 119.418 58.4922 120.082 58.4922C120.637 58.4922 121.098 58.4453 121.465 58.3516C121.84 58.2578 122.141 58.1445 122.367 58.0117C122.602 57.8711 122.781 57.7383 122.906 57.6133V54.5898H119.695V52.082H126.422ZM128.508 54.7891V54.543C128.508 53.6133 128.641 52.7578 128.906 51.9766C129.172 51.1875 129.559 50.5039 130.066 49.9258C130.574 49.3477 131.199 48.8984 131.941 48.5781C132.684 48.25 133.535 48.0859 134.496 48.0859C135.457 48.0859 136.312 48.25 137.062 48.5781C137.812 48.8984 138.441 49.3477 138.949 49.9258C139.465 50.5039 139.855 51.1875 140.121 51.9766C140.387 52.7578 140.52 53.6133 140.52 54.543V54.7891C140.52 55.7109 140.387 56.5664 140.121 57.3555C139.855 58.1367 139.465 58.8203 138.949 59.4062C138.441 59.9844 137.816 60.4336 137.074 60.7539C136.332 61.0742 135.48 61.2344 134.52 61.2344C133.559 61.2344 132.703 61.0742 131.953 60.7539C131.211 60.4336 130.582 59.9844 130.066 59.4062C129.559 58.8203 129.172 58.1367 128.906 57.3555C128.641 56.5664 128.508 55.7109 128.508 54.7891ZM131.883 54.543V54.7891C131.883 55.3203 131.93 55.8164 132.023 56.2773C132.117 56.7383 132.266 57.1445 132.469 57.4961C132.68 57.8398 132.953 58.1094 133.289 58.3047C133.625 58.5 134.035 58.5977 134.52 58.5977C134.988 58.5977 135.391 58.5 135.727 58.3047C136.062 58.1094 136.332 57.8398 136.535 57.4961C136.738 57.1445 136.887 56.7383 136.98 56.2773C137.082 55.8164 137.133 55.3203 137.133 54.7891V54.543C137.133 54.0273 137.082 53.543 136.98 53.0898C136.887 52.6289 136.734 52.2227 136.523 51.8711C136.32 51.5117 136.051 51.2305 135.715 51.0273C135.379 50.8242 134.973 50.7227 134.496 50.7227C134.02 50.7227 133.613 50.8242 133.277 51.0273C132.949 51.2305 132.68 51.5117 132.469 51.8711C132.266 52.2227 132.117 52.6289 132.023 53.0898C131.93 53.543 131.883 54.0273 131.883 54.543ZM149.438 58.1406V52.4922C149.438 52.0859 149.371 51.7383 149.238 51.4492C149.105 51.1523 148.898 50.9219 148.617 50.7578C148.344 50.5938 147.988 50.5117 147.551 50.5117C147.176 50.5117 146.852 50.5781 146.578 50.7109C146.305 50.8359 146.094 51.0195 145.945 51.2617C145.797 51.4961 145.723 51.7734 145.723 52.0938H142.348C142.348 51.5547 142.473 51.043 142.723 50.5586C142.973 50.0742 143.336 49.6484 143.812 49.2812C144.289 48.9062 144.855 48.6133 145.512 48.4023C146.176 48.1914 146.918 48.0859 147.738 48.0859C148.723 48.0859 149.598 48.25 150.363 48.5781C151.129 48.9062 151.73 49.3984 152.168 50.0547C152.613 50.7109 152.836 51.5312 152.836 52.5156V57.9414C152.836 58.6367 152.879 59.207 152.965 59.6523C153.051 60.0898 153.176 60.4727 153.34 60.8008V61H149.93C149.766 60.6562 149.641 60.2266 149.555 59.7109C149.477 59.1875 149.438 58.6641 149.438 58.1406ZM149.883 53.2773L149.906 55.1875H148.02C147.574 55.1875 147.188 55.2383 146.859 55.3398C146.531 55.4414 146.262 55.5859 146.051 55.7734C145.84 55.9531 145.684 56.1641 145.582 56.4062C145.488 56.6484 145.441 56.9141 145.441 57.2031C145.441 57.4922 145.508 57.7539 145.641 57.9883C145.773 58.2148 145.965 58.3945 146.215 58.5273C146.465 58.6523 146.758 58.7148 147.094 58.7148C147.602 58.7148 148.043 58.6133 148.418 58.4102C148.793 58.207 149.082 57.957 149.285 57.6602C149.496 57.3633 149.605 57.082 149.613 56.8164L150.504 58.2461C150.379 58.5664 150.207 58.8984 149.988 59.2422C149.777 59.5859 149.508 59.9102 149.18 60.2148C148.852 60.5117 148.457 60.7578 147.996 60.9531C147.535 61.1406 146.988 61.2344 146.355 61.2344C145.551 61.2344 144.82 61.0742 144.164 60.7539C143.516 60.4258 143 59.9766 142.617 59.4062C142.242 58.8281 142.055 58.1719 142.055 57.4375C142.055 56.7734 142.18 56.1836 142.43 55.668C142.68 55.1523 143.047 54.7188 143.531 54.3672C144.023 54.0078 144.637 53.7383 145.371 53.5586C146.105 53.3711 146.957 53.2773 147.926 53.2773H149.883ZM159 43V61H155.613V43H159ZM169.582 43.9375H172.559L176.941 56.4648L181.324 43.9375H184.301L178.137 61H175.746L169.582 43.9375ZM167.977 43.9375H170.941L171.48 56.1484V61H167.977V43.9375ZM182.941 43.9375H185.918V61H182.402V56.1484L182.941 43.9375ZM195.633 58.1406V52.4922C195.633 52.0859 195.566 51.7383 195.434 51.4492C195.301 51.1523 195.094 50.9219 194.812 50.7578C194.539 50.5938 194.184 50.5117 193.746 50.5117C193.371 50.5117 193.047 50.5781 192.773 50.7109C192.5 50.8359 192.289 51.0195 192.141 51.2617C191.992 51.4961 191.918 51.7734 191.918 52.0938H188.543C188.543 51.5547 188.668 51.043 188.918 50.5586C189.168 50.0742 189.531 49.6484 190.008 49.2812C190.484 48.9062 191.051 48.6133 191.707 48.4023C192.371 48.1914 193.113 48.0859 193.934 48.0859C194.918 48.0859 195.793 48.25 196.559 48.5781C197.324 48.9062 197.926 49.3984 198.363 50.0547C198.809 50.7109 199.031 51.5312 199.031 52.5156V57.9414C199.031 58.6367 199.074 59.207 199.16 59.6523C199.246 60.0898 199.371 60.4727 199.535 60.8008V61H196.125C195.961 60.6562 195.836 60.2266 195.75 59.7109C195.672 59.1875 195.633 58.6641 195.633 58.1406ZM196.078 53.2773L196.102 55.1875H194.215C193.77 55.1875 193.383 55.2383 193.055 55.3398C192.727 55.4414 192.457 55.5859 192.246 55.7734C192.035 55.9531 191.879 56.1641 191.777 56.4062C191.684 56.6484 191.637 56.9141 191.637 57.2031C191.637 57.4922 191.703 57.7539 191.836 57.9883C191.969 58.2148 192.16 58.3945 192.41 58.5273C192.66 58.6523 192.953 58.7148 193.289 58.7148C193.797 58.7148 194.238 58.6133 194.613 58.4102C194.988 58.207 195.277 57.957 195.48 57.6602C195.691 57.3633 195.801 57.082 195.809 56.8164L196.699 58.2461C196.574 58.5664 196.402 58.8984 196.184 59.2422C195.973 59.5859 195.703 59.9102 195.375 60.2148C195.047 60.5117 194.652 60.7578 194.191 60.9531C193.73 61.1406 193.184 61.2344 192.551 61.2344C191.746 61.2344 191.016 61.0742 190.359 60.7539C189.711 60.4258 189.195 59.9766 188.812 59.4062C188.438 58.8281 188.25 58.1719 188.25 57.4375C188.25 56.7734 188.375 56.1836 188.625 55.668C188.875 55.1523 189.242 54.7188 189.727 54.3672C190.219 54.0078 190.832 53.7383 191.566 53.5586C192.301 53.3711 193.152 53.2773 194.121 53.2773H196.078ZM208.488 57.4961C208.488 57.2539 208.418 57.0352 208.277 56.8398C208.137 56.6445 207.875 56.4648 207.492 56.3008C207.117 56.1289 206.574 55.9727 205.863 55.832C205.223 55.6914 204.625 55.5156 204.07 55.3047C203.523 55.0859 203.047 54.8242 202.641 54.5195C202.242 54.2148 201.93 53.8555 201.703 53.4414C201.477 53.0195 201.363 52.5391 201.363 52C201.363 51.4688 201.477 50.9688 201.703 50.5C201.938 50.0312 202.27 49.6172 202.699 49.2578C203.137 48.8906 203.668 48.6055 204.293 48.4023C204.926 48.1914 205.637 48.0859 206.426 48.0859C207.527 48.0859 208.473 48.2617 209.262 48.6133C210.059 48.9648 210.668 49.4492 211.09 50.0664C211.52 50.6758 211.734 51.3711 211.734 52.1523H208.359C208.359 51.8242 208.289 51.5312 208.148 51.2734C208.016 51.0078 207.805 50.8008 207.516 50.6523C207.234 50.4961 206.867 50.418 206.414 50.418C206.039 50.418 205.715 50.4844 205.441 50.6172C205.168 50.7422 204.957 50.9141 204.809 51.1328C204.668 51.3438 204.598 51.5781 204.598 51.8359C204.598 52.0312 204.637 52.207 204.715 52.3633C204.801 52.5117 204.938 52.6484 205.125 52.7734C205.312 52.8984 205.555 53.0156 205.852 53.125C206.156 53.2266 206.531 53.3203 206.977 53.4062C207.891 53.5938 208.707 53.8398 209.426 54.1445C210.145 54.4414 210.715 54.8477 211.137 55.3633C211.559 55.8711 211.77 56.5391 211.77 57.3672C211.77 57.9297 211.645 58.4453 211.395 58.9141C211.145 59.3828 210.785 59.793 210.316 60.1445C209.848 60.4883 209.285 60.7578 208.629 60.9531C207.98 61.1406 207.25 61.2344 206.438 61.2344C205.258 61.2344 204.258 61.0234 203.438 60.6016C202.625 60.1797 202.008 59.6445 201.586 58.9961C201.172 58.3398 200.965 57.668 200.965 56.9805H204.164C204.18 57.4414 204.297 57.8125 204.516 58.0938C204.742 58.375 205.027 58.5781 205.371 58.7031C205.723 58.8281 206.102 58.8906 206.508 58.8906C206.945 58.8906 207.309 58.832 207.598 58.7148C207.887 58.5898 208.105 58.4258 208.254 58.2227C208.41 58.0117 208.488 57.7695 208.488 57.4961ZM220.172 48.3203V50.7109H212.789V48.3203H220.172ZM214.617 45.1914H217.992V57.1797C217.992 57.5469 218.039 57.8281 218.133 58.0234C218.234 58.2188 218.383 58.3555 218.578 58.4336C218.773 58.5039 219.02 58.5391 219.316 58.5391C219.527 58.5391 219.715 58.5312 219.879 58.5156C220.051 58.4922 220.195 58.4688 220.312 58.4453L220.324 60.9297C220.035 61.0234 219.723 61.0977 219.387 61.1523C219.051 61.207 218.68 61.2344 218.273 61.2344C217.531 61.2344 216.883 61.1133 216.328 60.8711C215.781 60.6211 215.359 60.2227 215.062 59.6758C214.766 59.1289 214.617 58.4102 214.617 57.5195V45.1914ZM227.93 61.2344C226.945 61.2344 226.062 61.0781 225.281 60.7656C224.5 60.4453 223.836 60.0039 223.289 59.4414C222.75 58.8789 222.336 58.2266 222.047 57.4844C221.758 56.7344 221.613 55.9375 221.613 55.0938V54.625C221.613 53.6641 221.75 52.7852 222.023 51.9883C222.297 51.1914 222.688 50.5 223.195 49.9141C223.711 49.3281 224.336 48.8789 225.07 48.5664C225.805 48.2461 226.633 48.0859 227.555 48.0859C228.453 48.0859 229.25 48.2344 229.945 48.5312C230.641 48.8281 231.223 49.25 231.691 49.7969C232.168 50.3438 232.527 51 232.77 51.7656C233.012 52.5234 233.133 53.3672 233.133 54.2969V55.7031H223.055V53.4531H229.816V53.1953C229.816 52.7266 229.73 52.3086 229.559 51.9414C229.395 51.5664 229.145 51.2695 228.809 51.0508C228.473 50.832 228.043 50.7227 227.52 50.7227C227.074 50.7227 226.691 50.8203 226.371 51.0156C226.051 51.2109 225.789 51.4844 225.586 51.8359C225.391 52.1875 225.242 52.6016 225.141 53.0781C225.047 53.5469 225 54.0625 225 54.625V55.0938C225 55.6016 225.07 56.0703 225.211 56.5C225.359 56.9297 225.566 57.3008 225.832 57.6133C226.105 57.9258 226.434 58.168 226.816 58.3398C227.207 58.5117 227.648 58.5977 228.141 58.5977C228.75 58.5977 229.316 58.4805 229.84 58.2461C230.371 58.0039 230.828 57.6406 231.211 57.1562L232.852 58.9375C232.586 59.3203 232.223 59.6875 231.762 60.0391C231.309 60.3906 230.762 60.6797 230.121 60.9062C229.48 61.125 228.75 61.2344 227.93 61.2344ZM238.43 51.0859V61H235.055V48.3203H238.23L238.43 51.0859ZM242.25 48.2383L242.191 51.3672C242.027 51.3438 241.828 51.3242 241.594 51.3086C241.367 51.2852 241.16 51.2734 240.973 51.2734C240.496 51.2734 240.082 51.3359 239.73 51.4609C239.387 51.5781 239.098 51.7539 238.863 51.9883C238.637 52.2227 238.465 52.5078 238.348 52.8438C238.238 53.1797 238.176 53.5625 238.16 53.9922L237.48 53.7812C237.48 52.9609 237.562 52.207 237.727 51.5195C237.891 50.8242 238.129 50.2188 238.441 49.7031C238.762 49.1875 239.152 48.7891 239.613 48.5078C240.074 48.2266 240.602 48.0859 241.195 48.0859C241.383 48.0859 241.574 48.1016 241.77 48.1328C241.965 48.1562 242.125 48.1914 242.25 48.2383Z" fill="#888888"/>
<path d="M104.344 84.875V119H96.1406V84.875H104.344ZM117.727 99.0078V119H109.828V93.6406H117.234L117.727 99.0078ZM116.766 105.453L114.961 105.5C114.961 103.719 115.172 102.078 115.594 100.578C116.016 99.0781 116.641 97.7734 117.469 96.6641C118.297 95.5547 119.312 94.6953 120.516 94.0859C121.734 93.4766 123.141 93.1719 124.734 93.1719C125.844 93.1719 126.852 93.3438 127.758 93.6875C128.664 94.0156 129.445 94.5391 130.102 95.2578C130.758 95.9609 131.258 96.8828 131.602 98.0234C131.961 99.1484 132.141 100.5 132.141 102.078V119H124.242V103.086C124.242 102.008 124.117 101.195 123.867 100.648C123.633 100.102 123.289 99.7344 122.836 99.5469C122.383 99.3594 121.828 99.2656 121.172 99.2656C120.484 99.2656 119.867 99.4219 119.32 99.7344C118.773 100.047 118.305 100.484 117.914 101.047C117.539 101.594 117.25 102.242 117.047 102.992C116.859 103.742 116.766 104.562 116.766 105.453ZM131.25 105.453L129.047 105.5C129.047 103.719 129.242 102.078 129.633 100.578C130.039 99.0781 130.641 97.7734 131.438 96.6641C132.25 95.5547 133.258 94.6953 134.461 94.0859C135.664 93.4766 137.062 93.1719 138.656 93.1719C139.812 93.1719 140.875 93.3438 141.844 93.6875C142.812 94.0312 143.648 94.5859 144.352 95.3516C145.055 96.1172 145.602 97.1328 145.992 98.3984C146.383 99.6484 146.578 101.195 146.578 103.039V119H138.656V103.039C138.656 101.992 138.531 101.203 138.281 100.672C138.047 100.125 137.703 99.7578 137.25 99.5703C136.797 99.3672 136.258 99.2656 135.633 99.2656C134.883 99.2656 134.234 99.4219 133.688 99.7344C133.141 100.047 132.68 100.484 132.305 101.047C131.945 101.594 131.68 102.242 131.508 102.992C131.336 103.742 131.25 104.562 131.25 105.453ZM159.07 98.5156V128.75H151.172V93.6406H158.531L159.07 98.5156ZM174.633 106.016V106.508C174.633 108.352 174.422 110.062 174 111.641C173.578 113.219 172.953 114.594 172.125 115.766C171.297 116.938 170.266 117.852 169.031 118.508C167.812 119.148 166.398 119.469 164.789 119.469C163.273 119.469 161.969 119.133 160.875 118.461C159.781 117.789 158.867 116.859 158.133 115.672C157.398 114.484 156.805 113.125 156.352 111.594C155.898 110.062 155.539 108.445 155.273 106.742V106.109C155.539 104.281 155.898 102.586 156.352 101.023C156.805 99.4453 157.398 98.0703 158.133 96.8984C158.867 95.7266 159.773 94.8125 160.852 94.1562C161.945 93.5 163.25 93.1719 164.766 93.1719C166.375 93.1719 167.789 93.4766 169.008 94.0859C170.242 94.6953 171.273 95.5703 172.102 96.7109C172.945 97.8359 173.578 99.1875 174 100.766C174.422 102.344 174.633 104.094 174.633 106.016ZM166.734 106.508V106.016C166.734 105.031 166.664 104.133 166.523 103.32C166.383 102.492 166.156 101.773 165.844 101.164C165.547 100.555 165.148 100.086 164.648 99.7578C164.148 99.4297 163.531 99.2656 162.797 99.2656C161.953 99.2656 161.242 99.3984 160.664 99.6641C160.102 99.9141 159.648 100.305 159.305 100.836C158.977 101.352 158.742 102 158.602 102.781C158.477 103.547 158.422 104.445 158.438 105.477V107.398C158.406 108.586 158.523 109.633 158.789 110.539C159.055 111.43 159.516 112.125 160.172 112.625C160.828 113.125 161.719 113.375 162.844 113.375C163.594 113.375 164.219 113.203 164.719 112.859C165.219 112.5 165.617 112.008 165.914 111.383C166.211 110.742 166.422 110.008 166.547 109.18C166.672 108.352 166.734 107.461 166.734 106.508ZM186.492 83V119H178.57V83H186.492ZM203.648 119.469C201.586 119.469 199.742 119.148 198.117 118.508C196.492 117.852 195.117 116.953 193.992 115.812C192.883 114.672 192.031 113.359 191.438 111.875C190.859 110.391 190.57 108.82 190.57 107.164V106.273C190.57 104.414 190.828 102.695 191.344 101.117C191.859 99.5234 192.625 98.1328 193.641 96.9453C194.656 95.7578 195.93 94.8359 197.461 94.1797C198.992 93.5078 200.773 93.1719 202.805 93.1719C204.602 93.1719 206.211 93.4609 207.633 94.0391C209.055 94.6172 210.258 95.4453 211.242 96.5234C212.242 97.6016 213 98.9062 213.516 100.438C214.047 101.969 214.312 103.688 214.312 105.594V108.805H193.594V103.859H206.602V103.25C206.617 102.406 206.469 101.688 206.156 101.094C205.859 100.5 205.422 100.047 204.844 99.7344C204.266 99.4219 203.562 99.2656 202.734 99.2656C201.875 99.2656 201.164 99.4531 200.602 99.8281C200.055 100.203 199.625 100.719 199.312 101.375C199.016 102.016 198.805 102.758 198.68 103.602C198.555 104.445 198.492 105.336 198.492 106.273V107.164C198.492 108.102 198.617 108.953 198.867 109.719C199.133 110.484 199.508 111.141 199.992 111.688C200.492 112.219 201.086 112.633 201.773 112.93C202.477 113.227 203.273 113.375 204.164 113.375C205.242 113.375 206.305 113.172 207.352 112.766C208.398 112.359 209.297 111.688 210.047 110.75L213.633 115.016C213.117 115.75 212.383 116.461 211.43 117.148C210.492 117.836 209.367 118.398 208.055 118.836C206.742 119.258 205.273 119.469 203.648 119.469ZM225.492 99.0078V119H217.594V93.6406H225L225.492 99.0078ZM224.531 105.453L222.727 105.5C222.727 103.719 222.938 102.078 223.359 100.578C223.781 99.0781 224.406 97.7734 225.234 96.6641C226.062 95.5547 227.078 94.6953 228.281 94.0859C229.5 93.4766 230.906 93.1719 232.5 93.1719C233.609 93.1719 234.617 93.3438 235.523 93.6875C236.43 94.0156 237.211 94.5391 237.867 95.2578C238.523 95.9609 239.023 96.8828 239.367 98.0234C239.727 99.1484 239.906 100.5 239.906 102.078V119H232.008V103.086C232.008 102.008 231.883 101.195 231.633 100.648C231.398 100.102 231.055 99.7344 230.602 99.5469C230.148 99.3594 229.594 99.2656 228.938 99.2656C228.25 99.2656 227.633 99.4219 227.086 99.7344C226.539 100.047 226.07 100.484 225.68 101.047C225.305 101.594 225.016 102.242 224.812 102.992C224.625 103.742 224.531 104.562 224.531 105.453ZM239.016 105.453L236.812 105.5C236.812 103.719 237.008 102.078 237.398 100.578C237.805 99.0781 238.406 97.7734 239.203 96.6641C240.016 95.5547 241.023 94.6953 242.227 94.0859C243.43 93.4766 244.828 93.1719 246.422 93.1719C247.578 93.1719 248.641 93.3438 249.609 93.6875C250.578 94.0312 251.414 94.5859 252.117 95.3516C252.82 96.1172 253.367 97.1328 253.758 98.3984C254.148 99.6484 254.344 101.195 254.344 103.039V119H246.422V103.039C246.422 101.992 246.297 101.203 246.047 100.672C245.812 100.125 245.469 99.7578 245.016 99.5703C244.562 99.3672 244.023 99.2656 243.398 99.2656C242.648 99.2656 242 99.4219 241.453 99.7344C240.906 100.047 240.445 100.484 240.07 101.047C239.711 101.594 239.445 102.242 239.273 102.992C239.102 103.742 239.016 104.562 239.016 105.453ZM271.148 119.469C269.086 119.469 267.242 119.148 265.617 118.508C263.992 117.852 262.617 116.953 261.492 115.812C260.383 114.672 259.531 113.359 258.938 111.875C258.359 110.391 258.07 108.82 258.07 107.164V106.273C258.07 104.414 258.328 102.695 258.844 101.117C259.359 99.5234 260.125 98.1328 261.141 96.9453C262.156 95.7578 263.43 94.8359 264.961 94.1797C266.492 93.5078 268.273 93.1719 270.305 93.1719C272.102 93.1719 273.711 93.4609 275.133 94.0391C276.555 94.6172 277.758 95.4453 278.742 96.5234C279.742 97.6016 280.5 98.9062 281.016 100.438C281.547 101.969 281.812 103.688 281.812 105.594V108.805H261.094V103.859H274.102V103.25C274.117 102.406 273.969 101.688 273.656 101.094C273.359 100.5 272.922 100.047 272.344 99.7344C271.766 99.4219 271.062 99.2656 270.234 99.2656C269.375 99.2656 268.664 99.4531 268.102 99.8281C267.555 100.203 267.125 100.719 266.812 101.375C266.516 102.016 266.305 102.758 266.18 103.602C266.055 104.445 265.992 105.336 265.992 106.273V107.164C265.992 108.102 266.117 108.953 266.367 109.719C266.633 110.484 267.008 111.141 267.492 111.688C267.992 112.219 268.586 112.633 269.273 112.93C269.977 113.227 270.773 113.375 271.664 113.375C272.742 113.375 273.805 113.172 274.852 112.766C275.898 112.359 276.797 111.688 277.547 110.75L281.133 115.016C280.617 115.75 279.883 116.461 278.93 117.148C277.992 117.836 276.867 118.398 275.555 118.836C274.242 119.258 272.773 119.469 271.148 119.469ZM292.781 99.0547V119H284.883V93.6406H292.289L292.781 99.0547ZM291.844 105.453L289.992 105.5C289.992 103.562 290.227 101.836 290.695 100.32C291.164 98.7891 291.828 97.4922 292.688 96.4297C293.547 95.3672 294.57 94.5625 295.758 94.0156C296.961 93.4531 298.297 93.1719 299.766 93.1719C300.938 93.1719 302.008 93.3438 302.977 93.6875C303.961 94.0312 304.805 94.5859 305.508 95.3516C306.227 96.1172 306.773 97.1328 307.148 98.3984C307.539 99.6484 307.734 101.195 307.734 103.039V119H299.789V103.016C299.789 102 299.648 101.227 299.367 100.695C299.086 100.148 298.68 99.7734 298.148 99.5703C297.617 99.3672 296.969 99.2656 296.203 99.2656C295.391 99.2656 294.703 99.4219 294.141 99.7344C293.578 100.047 293.125 100.484 292.781 101.047C292.453 101.594 292.211 102.242 292.055 102.992C291.914 103.742 291.844 104.562 291.844 105.453ZM325.477 93.6406V99.125H310.195V93.6406H325.477ZM313.406 87.3359H321.305V110.727C321.305 111.398 321.383 111.922 321.539 112.297C321.695 112.656 321.961 112.914 322.336 113.07C322.727 113.211 323.242 113.281 323.883 113.281C324.336 113.281 324.711 113.273 325.008 113.258C325.305 113.227 325.586 113.188 325.852 113.141V118.789C325.18 119.008 324.477 119.172 323.742 119.281C323.008 119.406 322.227 119.469 321.398 119.469C319.711 119.469 318.266 119.203 317.062 118.672C315.875 118.141 314.969 117.305 314.344 116.164C313.719 115.023 313.406 113.539 313.406 111.711V87.3359ZM341.789 112.625V102.172C341.789 101.453 341.688 100.836 341.484 100.32C341.281 99.8047 340.961 99.4062 340.523 99.125C340.086 98.8281 339.5 98.6797 338.766 98.6797C338.172 98.6797 337.664 98.7812 337.242 98.9844C336.82 99.1875 336.5 99.4922 336.281 99.8984C336.062 100.305 335.953 100.82 335.953 101.445H328.055C328.055 100.273 328.312 99.1875 328.828 98.1875C329.359 97.1719 330.109 96.2891 331.078 95.5391C332.062 94.7891 333.234 94.2109 334.594 93.8047C335.969 93.3828 337.5 93.1719 339.188 93.1719C341.203 93.1719 343 93.5078 344.578 94.1797C346.172 94.8516 347.43 95.8594 348.352 97.2031C349.273 98.5312 349.734 100.203 349.734 102.219V112.602C349.734 114.258 349.828 115.516 350.016 116.375C350.203 117.219 350.469 117.961 350.812 118.602V119H342.891C342.516 118.219 342.234 117.266 342.047 116.141C341.875 115 341.789 113.828 341.789 112.625ZM342.75 103.508L342.797 107.727H339.305C338.57 107.727 337.945 107.828 337.43 108.031C336.93 108.234 336.523 108.516 336.211 108.875C335.914 109.219 335.695 109.609 335.555 110.047C335.43 110.484 335.367 110.945 335.367 111.43C335.367 111.898 335.477 112.32 335.695 112.695C335.93 113.055 336.242 113.336 336.633 113.539C337.023 113.742 337.461 113.844 337.945 113.844C338.82 113.844 339.562 113.68 340.172 113.352C340.797 113.008 341.273 112.594 341.602 112.109C341.93 111.625 342.094 111.172 342.094 110.75L343.828 113.984C343.516 114.609 343.156 115.242 342.75 115.883C342.359 116.523 341.867 117.117 341.273 117.664C340.695 118.195 339.984 118.633 339.141 118.977C338.297 119.305 337.273 119.469 336.07 119.469C334.508 119.469 333.07 119.148 331.758 118.508C330.461 117.867 329.422 116.977 328.641 115.836C327.859 114.68 327.469 113.352 327.469 111.852C327.469 110.539 327.703 109.367 328.172 108.336C328.656 107.305 329.383 106.43 330.352 105.711C331.32 104.992 332.555 104.445 334.055 104.07C335.555 103.695 337.32 103.508 339.352 103.508H342.75ZM367.477 93.6406V99.125H352.195V93.6406H367.477ZM355.406 87.3359H363.305V110.727C363.305 111.398 363.383 111.922 363.539 112.297C363.695 112.656 363.961 112.914 364.336 113.07C364.727 113.211 365.242 113.281 365.883 113.281C366.336 113.281 366.711 113.273 367.008 113.258C367.305 113.227 367.586 113.188 367.852 113.141V118.789C367.18 119.008 366.477 119.172 365.742 119.281C365.008 119.406 364.227 119.469 363.398 119.469C361.711 119.469 360.266 119.203 359.062 118.672C357.875 118.141 356.969 117.305 356.344 116.164C355.719 115.023 355.406 113.539 355.406 111.711V87.3359ZM378.961 93.6406V119H371.039V93.6406H378.961ZM370.57 87.1016C370.57 85.9766 370.977 85.0547 371.789 84.3359C372.602 83.6172 373.656 83.2578 374.953 83.2578C376.25 83.2578 377.305 83.6172 378.117 84.3359C378.93 85.0547 379.336 85.9766 379.336 87.1016C379.336 88.2266 378.93 89.1484 378.117 89.8672C377.305 90.5859 376.25 90.9453 374.953 90.9453C373.656 90.9453 372.602 90.5859 371.789 89.8672C370.977 89.1484 370.57 88.2266 370.57 87.1016ZM382.852 106.578V106.086C382.852 104.227 383.117 102.516 383.648 100.953C384.18 99.375 384.961 98.0078 385.992 96.8516C387.023 95.6953 388.297 94.7969 389.812 94.1562C391.328 93.5 393.078 93.1719 395.062 93.1719C397.062 93.1719 398.82 93.5 400.336 94.1562C401.867 94.7969 403.148 95.6953 404.18 96.8516C405.211 98.0078 405.992 99.375 406.523 100.953C407.055 102.516 407.32 104.227 407.32 106.086V106.578C407.32 108.422 407.055 110.133 406.523 111.711C405.992 113.273 405.211 114.641 404.18 115.812C403.148 116.969 401.875 117.867 400.359 118.508C398.844 119.148 397.094 119.469 395.109 119.469C393.125 119.469 391.367 119.148 389.836 118.508C388.305 117.867 387.023 116.969 385.992 115.812C384.961 114.641 384.18 113.273 383.648 111.711C383.117 110.133 382.852 108.422 382.852 106.578ZM390.75 106.086V106.578C390.75 107.531 390.82 108.422 390.961 109.25C391.102 110.078 391.336 110.805 391.664 111.43C391.992 112.039 392.438 112.516 393 112.859C393.562 113.203 394.266 113.375 395.109 113.375C395.938 113.375 396.625 113.203 397.172 112.859C397.734 112.516 398.18 112.039 398.508 111.43C398.836 110.805 399.07 110.078 399.211 109.25C399.352 108.422 399.422 107.531 399.422 106.578V106.086C399.422 105.164 399.352 104.297 399.211 103.484C399.07 102.656 398.836 101.93 398.508 101.305C398.18 100.664 397.734 100.164 397.172 99.8047C396.609 99.4453 395.906 99.2656 395.062 99.2656C394.234 99.2656 393.539 99.4453 392.977 99.8047C392.43 100.164 391.992 100.664 391.664 101.305C391.336 101.93 391.102 102.656 390.961 103.484C390.82 104.297 390.75 105.164 390.75 106.086ZM418.594 99.0547V119H410.695V93.6406H418.102L418.594 99.0547ZM417.656 105.453L415.805 105.5C415.805 103.562 416.039 101.836 416.508 100.32C416.977 98.7891 417.641 97.4922 418.5 96.4297C419.359 95.3672 420.383 94.5625 421.57 94.0156C422.773 93.4531 424.109 93.1719 425.578 93.1719C426.75 93.1719 427.82 93.3438 428.789 93.6875C429.773 94.0312 430.617 94.5859 431.32 95.3516C432.039 96.1172 432.586 97.1328 432.961 98.3984C433.352 99.6484 433.547 101.195 433.547 103.039V119H425.602V103.016C425.602 102 425.461 101.227 425.18 100.695C424.898 100.148 424.492 99.7734 423.961 99.5703C423.43 99.3672 422.781 99.2656 422.016 99.2656C421.203 99.2656 420.516 99.4219 419.953 99.7344C419.391 100.047 418.938 100.484 418.594 101.047C418.266 101.594 418.023 102.242 417.867 102.992C417.727 103.742 417.656 104.562 417.656 105.453Z" fill="black"/>
<path d="M1134 0H1348C1356.28 0 1363 6.71573 1363 15V148C1363 156.284 1356.28 163 1348 163H1134V0Z" fill="#C53362"/>
<path d="M1280.07 47.5H1216.93L1214.5 49.9286V113.071L1216.93 115.5H1280.07L1282.5 113.071V49.9286L1280.07 47.5ZM1277.64 110.643H1233.93V100.929H1245.1C1246.56 103.843 1249.96 105.786 1253.36 105.786C1258.7 105.786 1263.07 101.414 1263.07 96.0714C1263.07 90.7286 1258.7 86.3571 1253.36 86.3571C1248.01 86.3571 1243.64 90.7286 1243.64 96.0714H1229.07V110.643H1219.36V52.3571H1229.07V63.5286C1226.16 64.9857 1224.21 68.3857 1224.21 71.7857C1224.21 77.1286 1228.59 81.5 1233.93 81.5C1239.27 81.5 1243.64 77.1286 1243.64 71.7857H1253.36C1253.36 77.1286 1257.73 81.5 1263.07 81.5C1268.41 81.5 1272.79 77.1286 1272.79 71.7857C1272.79 66.4429 1268.41 62.0714 1263.07 62.0714C1259.67 62.0714 1256.27 64.0143 1254.81 66.9286H1242.19C1240.73 64.0143 1237.33 62.0714 1233.93 62.0714V52.3571H1277.64V110.643ZM1248.5 96.0714C1248.5 93.1571 1250.44 91.2143 1253.36 91.2143C1256.27 91.2143 1258.21 93.1571 1258.21 96.0714C1258.21 98.9857 1256.27 100.929 1253.36 100.929C1250.44 100.929 1248.5 98.9857 1248.5 96.0714ZM1233.93 66.9286C1236.84 66.9286 1238.79 68.8714 1238.79 71.7857C1238.79 74.7 1236.84 76.6429 1233.93 76.6429C1231.01 76.6429 1229.07 74.7 1229.07 71.7857C1229.07 68.8714 1231.01 66.9286 1233.93 66.9286ZM1263.07 66.9286C1265.99 66.9286 1267.93 68.8714 1267.93 71.7857C1267.93 74.7 1265.99 76.6429 1263.07 76.6429C1260.16 76.6429 1258.21 74.7 1258.21 71.7857C1258.21 68.8714 1260.16 66.9286 1263.07 66.9286Z" fill="white"/>
</svg>
