<svg width="1363" height="163" viewBox="0 0 1363 163" fill="none" xmlns="http://www.w3.org/2000/svg">
<path d="M0 15C0 6.71573 6.71573 0 15 0H37V163H15C6.71573 163 0 156.284 0 148V15Z" fill="#424242"/>
<rect width="1097" height="163" transform="translate(37)" fill="#F0F0F0"/>
<path d="M101.906 53.9219L94.3945 51.2383V48.0859L104.602 52.375V54.6367L101.906 53.9219ZM94.3945 56.1719L101.918 53.4297L104.602 52.7852V55.0352L94.3945 59.3242V56.1719ZM121.781 56.5352C121.781 56.2305 121.734 55.957 121.641 55.7148C121.555 55.4648 121.391 55.2383 121.148 55.0352C120.906 54.8242 120.566 54.6172 120.129 54.4141C119.691 54.2109 119.125 54 118.43 53.7812C117.656 53.5312 116.922 53.25 116.227 52.9375C115.539 52.625 114.93 52.2617 114.398 51.8477C113.875 51.4258 113.461 50.9375 113.156 50.3828C112.859 49.8281 112.711 49.1836 112.711 48.4492C112.711 47.7383 112.867 47.0938 113.18 46.5156C113.492 45.9297 113.93 45.4297 114.492 45.0156C115.055 44.5938 115.719 44.2695 116.484 44.043C117.258 43.8164 118.105 43.7031 119.027 43.7031C120.285 43.7031 121.383 43.9297 122.32 44.3828C123.258 44.8359 123.984 45.457 124.5 46.2461C125.023 47.0352 125.285 47.9375 125.285 48.9531H121.793C121.793 48.4531 121.688 48.0156 121.477 47.6406C121.273 47.2578 120.961 46.957 120.539 46.7383C120.125 46.5195 119.602 46.4102 118.969 46.4102C118.359 46.4102 117.852 46.5039 117.445 46.6914C117.039 46.8711 116.734 47.1172 116.531 47.4297C116.328 47.7344 116.227 48.0781 116.227 48.4609C116.227 48.75 116.297 49.0117 116.438 49.2461C116.586 49.4805 116.805 49.6992 117.094 49.9023C117.383 50.1055 117.738 50.2969 118.16 50.4766C118.582 50.6562 119.07 50.832 119.625 51.0039C120.555 51.2852 121.371 51.6016 122.074 51.9531C122.785 52.3047 123.379 52.6992 123.855 53.1367C124.332 53.5742 124.691 54.0703 124.934 54.625C125.176 55.1797 125.297 55.8086 125.297 56.5117C125.297 57.2539 125.152 57.918 124.863 58.5039C124.574 59.0898 124.156 59.5859 123.609 59.9922C123.062 60.3984 122.41 60.707 121.652 60.918C120.895 61.1289 120.047 61.2344 119.109 61.2344C118.266 61.2344 117.434 61.125 116.613 60.9062C115.793 60.6797 115.047 60.3398 114.375 59.8867C113.711 59.4336 113.18 58.8555 112.781 58.1523C112.383 57.4492 112.184 56.6172 112.184 55.6562H115.711C115.711 56.1875 115.793 56.6367 115.957 57.0039C116.121 57.3711 116.352 57.668 116.648 57.8945C116.953 58.1211 117.312 58.2852 117.727 58.3867C118.148 58.4883 118.609 58.5391 119.109 58.5391C119.719 58.5391 120.219 58.4531 120.609 58.2812C121.008 58.1094 121.301 57.8711 121.488 57.5664C121.684 57.2617 121.781 56.918 121.781 56.5352ZM130.852 50.9453V61H127.465V48.3203H130.641L130.852 50.9453ZM130.383 54.2148H129.445C129.445 53.332 129.551 52.5195 129.762 51.7773C129.98 51.0273 130.297 50.3789 130.711 49.832C131.133 49.2773 131.652 48.8477 132.27 48.543C132.887 48.2383 133.602 48.0859 134.414 48.0859C134.977 48.0859 135.492 48.1719 135.961 48.3438C136.43 48.5078 136.832 48.7695 137.168 49.1289C137.512 49.4805 137.777 49.9414 137.965 50.5117C138.152 51.0742 138.246 51.75 138.246 52.5391V61H134.871V52.9141C134.871 52.3359 134.793 51.8906 134.637 51.5781C134.48 51.2656 134.258 51.0469 133.969 50.9219C133.688 50.7969 133.348 50.7344 132.949 50.7344C132.512 50.7344 132.129 50.8242 131.801 51.0039C131.48 51.1836 131.215 51.4336 131.004 51.7539C130.793 52.0664 130.637 52.4336 130.535 52.8555C130.434 53.2773 130.383 53.7305 130.383 54.2148ZM137.93 53.8281L136.723 53.9805C136.723 53.1523 136.824 52.3828 137.027 51.6719C137.238 50.9609 137.547 50.3359 137.953 49.7969C138.367 49.2578 138.879 48.8398 139.488 48.543C140.098 48.2383 140.801 48.0859 141.598 48.0859C142.207 48.0859 142.762 48.1758 143.262 48.3555C143.762 48.5273 144.188 48.8047 144.539 49.1875C144.898 49.5625 145.172 50.0547 145.359 50.6641C145.555 51.2734 145.652 52.0195 145.652 52.9023V61H142.266V52.9023C142.266 52.3164 142.188 51.8711 142.031 51.5664C141.883 51.2539 141.664 51.0391 141.375 50.9219C141.094 50.7969 140.758 50.7344 140.367 50.7344C139.961 50.7344 139.605 50.8164 139.301 50.9805C138.996 51.1367 138.742 51.3555 138.539 51.6367C138.336 51.918 138.184 52.2461 138.082 52.6211C137.98 52.9883 137.93 53.3906 137.93 53.8281ZM155.109 58.1406V52.4922C155.109 52.0859 155.043 51.7383 154.91 51.4492C154.777 51.1523 154.57 50.9219 154.289 50.7578C154.016 50.5938 153.66 50.5117 153.223 50.5117C152.848 50.5117 152.523 50.5781 152.25 50.7109C151.977 50.8359 151.766 51.0195 151.617 51.2617C151.469 51.4961 151.395 51.7734 151.395 52.0938H148.02C148.02 51.5547 148.145 51.043 148.395 50.5586C148.645 50.0742 149.008 49.6484 149.484 49.2812C149.961 48.9062 150.527 48.6133 151.184 48.4023C151.848 48.1914 152.59 48.0859 153.41 48.0859C154.395 48.0859 155.27 48.25 156.035 48.5781C156.801 48.9062 157.402 49.3984 157.84 50.0547C158.285 50.7109 158.508 51.5312 158.508 52.5156V57.9414C158.508 58.6367 158.551 59.207 158.637 59.6523C158.723 60.0898 158.848 60.4727 159.012 60.8008V61H155.602C155.438 60.6562 155.312 60.2266 155.227 59.7109C155.148 59.1875 155.109 58.6641 155.109 58.1406ZM155.555 53.2773L155.578 55.1875H153.691C153.246 55.1875 152.859 55.2383 152.531 55.3398C152.203 55.4414 151.934 55.5859 151.723 55.7734C151.512 55.9531 151.355 56.1641 151.254 56.4062C151.16 56.6484 151.113 56.9141 151.113 57.2031C151.113 57.4922 151.18 57.7539 151.312 57.9883C151.445 58.2148 151.637 58.3945 151.887 58.5273C152.137 58.6523 152.43 58.7148 152.766 58.7148C153.273 58.7148 153.715 58.6133 154.09 58.4102C154.465 58.207 154.754 57.957 154.957 57.6602C155.168 57.3633 155.277 57.082 155.285 56.8164L156.176 58.2461C156.051 58.5664 155.879 58.8984 155.66 59.2422C155.449 59.5859 155.18 59.9102 154.852 60.2148C154.523 60.5117 154.129 60.7578 153.668 60.9531C153.207 61.1406 152.66 61.2344 152.027 61.2344C151.223 61.2344 150.492 61.0742 149.836 60.7539C149.188 60.4258 148.672 59.9766 148.289 59.4062C147.914 58.8281 147.727 58.1719 147.727 57.4375C147.727 56.7734 147.852 56.1836 148.102 55.668C148.352 55.1523 148.719 54.7188 149.203 54.3672C149.695 54.0078 150.309 53.7383 151.043 53.5586C151.777 53.3711 152.629 53.2773 153.598 53.2773H155.555ZM164.484 51.0859V61H161.109V48.3203H164.285L164.484 51.0859ZM168.305 48.2383L168.246 51.3672C168.082 51.3438 167.883 51.3242 167.648 51.3086C167.422 51.2852 167.215 51.2734 167.027 51.2734C166.551 51.2734 166.137 51.3359 165.785 51.4609C165.441 51.5781 165.152 51.7539 164.918 51.9883C164.691 52.2227 164.52 52.5078 164.402 52.8438C164.293 53.1797 164.23 53.5625 164.215 53.9922L163.535 53.7812C163.535 52.9609 163.617 52.207 163.781 51.5195C163.945 50.8242 164.184 50.2188 164.496 49.7031C164.816 49.1875 165.207 48.7891 165.668 48.5078C166.129 48.2266 166.656 48.0859 167.25 48.0859C167.438 48.0859 167.629 48.1016 167.824 48.1328C168.02 48.1562 168.18 48.1914 168.305 48.2383ZM176.695 48.3203V50.7109H169.312V48.3203H176.695ZM171.141 45.1914H174.516V57.1797C174.516 57.5469 174.562 57.8281 174.656 58.0234C174.758 58.2188 174.906 58.3555 175.102 58.4336C175.297 58.5039 175.543 58.5391 175.84 58.5391C176.051 58.5391 176.238 58.5312 176.402 58.5156C176.574 58.4922 176.719 58.4688 176.836 58.4453L176.848 60.9297C176.559 61.0234 176.246 61.0977 175.91 61.1523C175.574 61.207 175.203 61.2344 174.797 61.2344C174.055 61.2344 173.406 61.1133 172.852 60.8711C172.305 60.6211 171.883 60.2227 171.586 59.6758C171.289 59.1289 171.141 58.4102 171.141 57.5195V45.1914ZM191.484 53.5117H187.102L187.078 51.0977H190.758C191.406 51.0977 191.938 51.0156 192.352 50.8516C192.766 50.6797 193.074 50.4336 193.277 50.1133C193.488 49.7852 193.594 49.3867 193.594 48.918C193.594 48.3867 193.492 47.957 193.289 47.6289C193.094 47.3008 192.785 47.0625 192.363 46.9141C191.949 46.7656 191.414 46.6914 190.758 46.6914H188.32V61H184.805V43.9375H190.758C191.75 43.9375 192.637 44.0312 193.418 44.2188C194.207 44.4062 194.875 44.6914 195.422 45.0742C195.969 45.457 196.387 45.9414 196.676 46.5273C196.965 47.1055 197.109 47.793 197.109 48.5898C197.109 49.293 196.949 49.9414 196.629 50.5352C196.316 51.1289 195.82 51.6133 195.141 51.9883C194.469 52.3633 193.59 52.5703 192.504 52.6094L191.484 53.5117ZM191.332 61H186.141L187.512 58.2578H191.332C191.949 58.2578 192.453 58.1602 192.844 57.9648C193.234 57.7617 193.523 57.4883 193.711 57.1445C193.898 56.8008 193.992 56.4062 193.992 55.9609C193.992 55.4609 193.906 55.0273 193.734 54.6602C193.57 54.293 193.305 54.0117 192.938 53.8164C192.57 53.6133 192.086 53.5117 191.484 53.5117H188.098L188.121 51.0977H192.34L193.148 52.0469C194.188 52.0312 195.023 52.2148 195.656 52.5977C196.297 52.9727 196.762 53.4609 197.051 54.0625C197.348 54.6641 197.496 55.3086 197.496 55.9961C197.496 57.0898 197.258 58.0117 196.781 58.7617C196.305 59.5039 195.605 60.0625 194.684 60.4375C193.77 60.8125 192.652 61 191.332 61ZM207.422 57.9648V48.3203H210.797V61H207.621L207.422 57.9648ZM207.797 55.3633L208.793 55.3398C208.793 56.1836 208.695 56.9688 208.5 57.6953C208.305 58.4141 208.012 59.0391 207.621 59.5703C207.23 60.0938 206.738 60.5039 206.145 60.8008C205.551 61.0898 204.852 61.2344 204.047 61.2344C203.43 61.2344 202.859 61.1484 202.336 60.9766C201.82 60.7969 201.375 60.5195 201 60.1445C200.633 59.7617 200.344 59.2734 200.133 58.6797C199.93 58.0781 199.828 57.3555 199.828 56.5117V48.3203H203.203V56.5352C203.203 56.9102 203.246 57.2266 203.332 57.4844C203.426 57.7422 203.555 57.9531 203.719 58.1172C203.883 58.2812 204.074 58.3984 204.293 58.4688C204.52 58.5391 204.77 58.5742 205.043 58.5742C205.738 58.5742 206.285 58.4336 206.684 58.1523C207.09 57.8711 207.375 57.4883 207.539 57.0039C207.711 56.5117 207.797 55.9648 207.797 55.3633ZM220.863 58.2344V43H224.262V61H221.203L220.863 58.2344ZM212.848 54.8125V54.5664C212.848 53.5977 212.957 52.7188 213.176 51.9297C213.395 51.1328 213.715 50.4492 214.137 49.8789C214.559 49.3086 215.078 48.8672 215.695 48.5547C216.312 48.2422 217.016 48.0859 217.805 48.0859C218.547 48.0859 219.195 48.2422 219.75 48.5547C220.312 48.8672 220.789 49.3125 221.18 49.8906C221.578 50.4609 221.898 51.1367 222.141 51.918C222.383 52.6914 222.559 53.5391 222.668 54.4609V55C222.559 55.8828 222.383 56.7031 222.141 57.4609C221.898 58.2188 221.578 58.8828 221.18 59.4531C220.789 60.0156 220.312 60.4531 219.75 60.7656C219.188 61.0781 218.531 61.2344 217.781 61.2344C216.992 61.2344 216.289 61.0742 215.672 60.7539C215.062 60.4336 214.547 59.9844 214.125 59.4062C213.711 58.8281 213.395 58.1484 213.176 57.3672C212.957 56.5859 212.848 55.7344 212.848 54.8125ZM216.223 54.5664V54.8125C216.223 55.3359 216.262 55.8242 216.34 56.2773C216.426 56.7305 216.562 57.1328 216.75 57.4844C216.945 57.8281 217.195 58.0977 217.5 58.293C217.812 58.4805 218.191 58.5742 218.637 58.5742C219.215 58.5742 219.691 58.4453 220.066 58.1875C220.441 57.9219 220.727 57.5586 220.922 57.0977C221.125 56.6367 221.242 56.1055 221.273 55.5039V53.9688C221.25 53.4766 221.18 53.0352 221.062 52.6445C220.953 52.2461 220.789 51.9062 220.57 51.625C220.359 51.3438 220.094 51.125 219.773 50.9688C219.461 50.8125 219.09 50.7344 218.66 50.7344C218.223 50.7344 217.848 50.8359 217.535 51.0391C217.223 51.2344 216.969 51.5039 216.773 51.8477C216.586 52.1914 216.445 52.5977 216.352 53.0664C216.266 53.5273 216.223 54.0273 216.223 54.5664ZM234.926 48.3203H237.984V60.5781C237.984 61.7344 237.727 62.7148 237.211 63.5195C236.703 64.332 235.992 64.9453 235.078 65.3594C234.164 65.7812 233.102 65.9922 231.891 65.9922C231.359 65.9922 230.797 65.9219 230.203 65.7812C229.617 65.6406 229.055 65.4219 228.516 65.125C227.984 64.8281 227.539 64.4531 227.18 64L228.668 62.0078C229.059 62.4609 229.512 62.8125 230.027 63.0625C230.543 63.3203 231.113 63.4492 231.738 63.4492C232.348 63.4492 232.863 63.3359 233.285 63.1094C233.707 62.8906 234.031 62.5664 234.258 62.1367C234.484 61.7148 234.598 61.2031 234.598 60.6016V51.25L234.926 48.3203ZM226.395 54.8125V54.5664C226.395 53.5977 226.512 52.7188 226.746 51.9297C226.988 51.1328 227.328 50.4492 227.766 49.8789C228.211 49.3086 228.75 48.8672 229.383 48.5547C230.016 48.2422 230.73 48.0859 231.527 48.0859C232.371 48.0859 233.078 48.2422 233.648 48.5547C234.219 48.8672 234.688 49.3125 235.055 49.8906C235.422 50.4609 235.707 51.1367 235.91 51.918C236.121 52.6914 236.285 53.5391 236.402 54.4609V55C236.285 55.8828 236.109 56.7031 235.875 57.4609C235.641 58.2188 235.332 58.8828 234.949 59.4531C234.566 60.0156 234.09 60.4531 233.52 60.7656C232.957 61.0781 232.285 61.2344 231.504 61.2344C230.723 61.2344 230.016 61.0742 229.383 60.7539C228.758 60.4336 228.223 59.9844 227.777 59.4062C227.332 58.8281 226.988 58.1484 226.746 57.3672C226.512 56.5859 226.395 55.7344 226.395 54.8125ZM229.77 54.5664V54.8125C229.77 55.3359 229.82 55.8242 229.922 56.2773C230.023 56.7305 230.18 57.1328 230.391 57.4844C230.609 57.8281 230.879 58.0977 231.199 58.293C231.527 58.4805 231.914 58.5742 232.359 58.5742C232.977 58.5742 233.48 58.4453 233.871 58.1875C234.262 57.9219 234.555 57.5586 234.75 57.0977C234.945 56.6367 235.059 56.1055 235.09 55.5039V53.9688C235.074 53.4766 235.008 53.0352 234.891 52.6445C234.773 52.2461 234.609 51.9062 234.398 51.625C234.188 51.3438 233.914 51.125 233.578 50.9688C233.242 50.8125 232.844 50.7344 232.383 50.7344C231.938 50.7344 231.551 50.8359 231.223 51.0391C230.902 51.2344 230.633 51.5039 230.414 51.8477C230.203 52.1914 230.043 52.5977 229.934 53.0664C229.824 53.5273 229.77 54.0273 229.77 54.5664ZM246.445 61.2344C245.461 61.2344 244.578 61.0781 243.797 60.7656C243.016 60.4453 242.352 60.0039 241.805 59.4414C241.266 58.8789 240.852 58.2266 240.562 57.4844C240.273 56.7344 240.129 55.9375 240.129 55.0938V54.625C240.129 53.6641 240.266 52.7852 240.539 51.9883C240.812 51.1914 241.203 50.5 241.711 49.9141C242.227 49.3281 242.852 48.8789 243.586 48.5664C244.32 48.2461 245.148 48.0859 246.07 48.0859C246.969 48.0859 247.766 48.2344 248.461 48.5312C249.156 48.8281 249.738 49.25 250.207 49.7969C250.684 50.3438 251.043 51 251.285 51.7656C251.527 52.5234 251.648 53.3672 251.648 54.2969V55.7031H241.57V53.4531H248.332V53.1953C248.332 52.7266 248.246 52.3086 248.074 51.9414C247.91 51.5664 247.66 51.2695 247.324 51.0508C246.988 50.832 246.559 50.7227 246.035 50.7227C245.59 50.7227 245.207 50.8203 244.887 51.0156C244.566 51.2109 244.305 51.4844 244.102 51.8359C243.906 52.1875 243.758 52.6016 243.656 53.0781C243.562 53.5469 243.516 54.0625 243.516 54.625V55.0938C243.516 55.6016 243.586 56.0703 243.727 56.5C243.875 56.9297 244.082 57.3008 244.348 57.6133C244.621 57.9258 244.949 58.168 245.332 58.3398C245.723 58.5117 246.164 58.5977 246.656 58.5977C247.266 58.5977 247.832 58.4805 248.355 58.2461C248.887 58.0039 249.344 57.6406 249.727 57.1562L251.367 58.9375C251.102 59.3203 250.738 59.6875 250.277 60.0391C249.824 60.3906 249.277 60.6797 248.637 60.9062C247.996 61.125 247.266 61.2344 246.445 61.2344ZM259.781 48.3203V50.7109H252.398V48.3203H259.781ZM254.227 45.1914H257.602V57.1797C257.602 57.5469 257.648 57.8281 257.742 58.0234C257.844 58.2188 257.992 58.3555 258.188 58.4336C258.383 58.5039 258.629 58.5391 258.926 58.5391C259.137 58.5391 259.324 58.5312 259.488 58.5156C259.66 58.4922 259.805 58.4688 259.922 58.4453L259.934 60.9297C259.645 61.0234 259.332 61.0977 258.996 61.1523C258.66 61.207 258.289 61.2344 257.883 61.2344C257.141 61.2344 256.492 61.1133 255.938 60.8711C255.391 60.6211 254.969 60.2227 254.672 59.6758C254.375 59.1289 254.227 58.4102 254.227 57.5195V45.1914Z" fill="#888888"/>
<path d="M114.117 84.875H122.344V107.164C122.344 109.82 121.789 112.07 120.68 113.914C119.57 115.742 118.016 117.125 116.016 118.062C114.016 119 111.664 119.469 108.961 119.469C106.289 119.469 103.938 119 101.906 118.062C99.8906 117.125 98.3125 115.742 97.1719 113.914C96.0469 112.07 95.4844 109.82 95.4844 107.164V84.875H103.734V107.164C103.734 108.57 103.938 109.719 104.344 110.609C104.75 111.484 105.344 112.125 106.125 112.531C106.906 112.938 107.852 113.141 108.961 113.141C110.086 113.141 111.031 112.938 111.797 112.531C112.562 112.125 113.141 111.484 113.531 110.609C113.922 109.719 114.117 108.57 114.117 107.164V84.875ZM134.906 99.0547V119H127.008V93.6406H134.414L134.906 99.0547ZM133.969 105.453L132.117 105.5C132.117 103.562 132.352 101.836 132.82 100.32C133.289 98.7891 133.953 97.4922 134.812 96.4297C135.672 95.3672 136.695 94.5625 137.883 94.0156C139.086 93.4531 140.422 93.1719 141.891 93.1719C143.062 93.1719 144.133 93.3438 145.102 93.6875C146.086 94.0312 146.93 94.5859 147.633 95.3516C148.352 96.1172 148.898 97.1328 149.273 98.3984C149.664 99.6484 149.859 101.195 149.859 103.039V119H141.914V103.016C141.914 102 141.773 101.227 141.492 100.695C141.211 100.148 140.805 99.7734 140.273 99.5703C139.742 99.3672 139.094 99.2656 138.328 99.2656C137.516 99.2656 136.828 99.4219 136.266 99.7344C135.703 100.047 135.25 100.484 134.906 101.047C134.578 101.594 134.336 102.242 134.18 102.992C134.039 103.742 133.969 104.562 133.969 105.453ZM162.586 93.6406V119H154.664V93.6406H162.586ZM154.195 87.1016C154.195 85.9766 154.602 85.0547 155.414 84.3359C156.227 83.6172 157.281 83.2578 158.578 83.2578C159.875 83.2578 160.93 83.6172 161.742 84.3359C162.555 85.0547 162.961 85.9766 162.961 87.1016C162.961 88.2266 162.555 89.1484 161.742 89.8672C160.93 90.5859 159.875 90.9453 158.578 90.9453C157.281 90.9453 156.227 90.5859 155.414 89.8672C154.602 89.1484 154.195 88.2266 154.195 87.1016ZM180.82 93.6406V99.125H165.539V93.6406H180.82ZM168.75 87.3359H176.648V110.727C176.648 111.398 176.727 111.922 176.883 112.297C177.039 112.656 177.305 112.914 177.68 113.07C178.07 113.211 178.586 113.281 179.227 113.281C179.68 113.281 180.055 113.273 180.352 113.258C180.648 113.227 180.93 113.188 181.195 113.141V118.789C180.523 119.008 179.82 119.172 179.086 119.281C178.352 119.406 177.57 119.469 176.742 119.469C175.055 119.469 173.609 119.203 172.406 118.672C171.219 118.141 170.312 117.305 169.688 116.164C169.062 115.023 168.75 113.539 168.75 111.711V87.3359ZM211.406 84.875V119H203.18V84.875H211.406ZM221.672 84.875V91.2266H193.148V84.875H221.672ZM234.961 119.469C232.898 119.469 231.055 119.148 229.43 118.508C227.805 117.852 226.43 116.953 225.305 115.812C224.195 114.672 223.344 113.359 222.75 111.875C222.172 110.391 221.883 108.82 221.883 107.164V106.273C221.883 104.414 222.141 102.695 222.656 101.117C223.172 99.5234 223.938 98.1328 224.953 96.9453C225.969 95.7578 227.242 94.8359 228.773 94.1797C230.305 93.5078 232.086 93.1719 234.117 93.1719C235.914 93.1719 237.523 93.4609 238.945 94.0391C240.367 94.6172 241.57 95.4453 242.555 96.5234C243.555 97.6016 244.312 98.9062 244.828 100.438C245.359 101.969 245.625 103.688 245.625 105.594V108.805H224.906V103.859H237.914V103.25C237.93 102.406 237.781 101.688 237.469 101.094C237.172 100.5 236.734 100.047 236.156 99.7344C235.578 99.4219 234.875 99.2656 234.047 99.2656C233.188 99.2656 232.477 99.4531 231.914 99.8281C231.367 100.203 230.938 100.719 230.625 101.375C230.328 102.016 230.117 102.758 229.992 103.602C229.867 104.445 229.805 105.336 229.805 106.273V107.164C229.805 108.102 229.93 108.953 230.18 109.719C230.445 110.484 230.82 111.141 231.305 111.688C231.805 112.219 232.398 112.633 233.086 112.93C233.789 113.227 234.586 113.375 235.477 113.375C236.555 113.375 237.617 113.172 238.664 112.766C239.711 112.359 240.609 111.688 241.359 110.75L244.945 115.016C244.43 115.75 243.695 116.461 242.742 117.148C241.805 117.836 240.68 118.398 239.367 118.836C238.055 119.258 236.586 119.469 234.961 119.469ZM262.125 111.875C262.125 111.438 261.977 111.062 261.68 110.75C261.398 110.422 260.898 110.125 260.18 109.859C259.461 109.578 258.453 109.297 257.156 109.016C255.922 108.75 254.758 108.398 253.664 107.961C252.586 107.523 251.641 106.992 250.828 106.367C250.016 105.742 249.375 105 248.906 104.141C248.453 103.281 248.227 102.297 248.227 101.188C248.227 100.109 248.453 99.0938 248.906 98.1406C249.375 97.1719 250.055 96.3203 250.945 95.5859C251.852 94.8359 252.953 94.25 254.25 93.8281C255.547 93.3906 257.023 93.1719 258.68 93.1719C260.961 93.1719 262.93 93.5234 264.586 94.2266C266.242 94.9141 267.516 95.8828 268.406 97.1328C269.312 98.3672 269.766 99.7969 269.766 101.422H261.867C261.867 100.781 261.758 100.234 261.539 99.7812C261.336 99.3281 261 98.9844 260.531 98.75C260.062 98.5 259.438 98.375 258.656 98.375C258.109 98.375 257.609 98.4766 257.156 98.6797C256.719 98.8828 256.367 99.1641 256.102 99.5234C255.836 99.8828 255.703 100.305 255.703 100.789C255.703 101.133 255.781 101.445 255.938 101.727C256.109 101.992 256.367 102.242 256.711 102.477C257.055 102.695 257.492 102.898 258.023 103.086C258.555 103.258 259.195 103.414 259.945 103.555C261.648 103.867 263.242 104.312 264.727 104.891C266.211 105.469 267.414 106.289 268.336 107.352C269.273 108.414 269.742 109.844 269.742 111.641C269.742 112.766 269.484 113.805 268.969 114.758C268.453 115.695 267.711 116.523 266.742 117.242C265.773 117.945 264.609 118.492 263.25 118.883C261.891 119.273 260.359 119.469 258.656 119.469C256.234 119.469 254.188 119.039 252.516 118.18C250.844 117.305 249.578 116.211 248.719 114.898C247.875 113.57 247.453 112.227 247.453 110.867H254.812C254.844 111.648 255.031 112.289 255.375 112.789C255.734 113.289 256.211 113.656 256.805 113.891C257.398 114.125 258.086 114.242 258.867 114.242C259.586 114.242 260.18 114.141 260.648 113.938C261.133 113.734 261.5 113.461 261.75 113.117C262 112.758 262.125 112.344 262.125 111.875ZM286.805 93.6406V99.125H271.523V93.6406H286.805ZM274.734 87.3359H282.633V110.727C282.633 111.398 282.711 111.922 282.867 112.297C283.023 112.656 283.289 112.914 283.664 113.07C284.055 113.211 284.57 113.281 285.211 113.281C285.664 113.281 286.039 113.273 286.336 113.258C286.633 113.227 286.914 113.188 287.18 113.141V118.789C286.508 119.008 285.805 119.172 285.07 119.281C284.336 119.406 283.555 119.469 282.727 119.469C281.039 119.469 279.594 119.203 278.391 118.672C277.203 118.141 276.297 117.305 275.672 116.164C275.047 115.023 274.734 113.539 274.734 111.711V87.3359ZM298.289 93.6406V119H290.367V93.6406H298.289ZM289.898 87.1016C289.898 85.9766 290.305 85.0547 291.117 84.3359C291.93 83.6172 292.984 83.2578 294.281 83.2578C295.578 83.2578 296.633 83.6172 297.445 84.3359C298.258 85.0547 298.664 85.9766 298.664 87.1016C298.664 88.2266 298.258 89.1484 297.445 89.8672C296.633 90.5859 295.578 90.9453 294.281 90.9453C292.984 90.9453 291.93 90.5859 291.117 89.8672C290.305 89.1484 289.898 88.2266 289.898 87.1016ZM310.922 99.0547V119H303.023V93.6406H310.43L310.922 99.0547ZM309.984 105.453L308.133 105.5C308.133 103.562 308.367 101.836 308.836 100.32C309.305 98.7891 309.969 97.4922 310.828 96.4297C311.688 95.3672 312.711 94.5625 313.898 94.0156C315.102 93.4531 316.438 93.1719 317.906 93.1719C319.078 93.1719 320.148 93.3438 321.117 93.6875C322.102 94.0312 322.945 94.5859 323.648 95.3516C324.367 96.1172 324.914 97.1328 325.289 98.3984C325.68 99.6484 325.875 101.195 325.875 103.039V119H317.93V103.016C317.93 102 317.789 101.227 317.508 100.695C317.227 100.148 316.82 99.7734 316.289 99.5703C315.758 99.3672 315.109 99.2656 314.344 99.2656C313.531 99.2656 312.844 99.4219 312.281 99.7344C311.719 100.047 311.266 100.484 310.922 101.047C310.594 101.594 310.352 102.242 310.195 102.992C310.055 103.742 309.984 104.562 309.984 105.453ZM346.195 93.6406H353.367V118.016C353.367 120.359 352.828 122.344 351.75 123.969C350.672 125.609 349.164 126.852 347.227 127.695C345.305 128.555 343.055 128.984 340.477 128.984C339.336 128.984 338.172 128.836 336.984 128.539C335.797 128.258 334.688 127.836 333.656 127.273C332.625 126.711 331.758 126.016 331.055 125.188L334.359 120.547C335 121.266 335.805 121.875 336.773 122.375C337.742 122.891 338.883 123.148 340.195 123.148C341.336 123.148 342.289 122.945 343.055 122.539C343.836 122.133 344.43 121.539 344.836 120.758C345.242 119.992 345.445 119.062 345.445 117.969V99.6406L346.195 93.6406ZM329.344 106.625V106.133C329.344 104.211 329.578 102.461 330.047 100.883C330.531 99.2891 331.219 97.9219 332.109 96.7812C333.016 95.625 334.109 94.7344 335.391 94.1094C336.672 93.4844 338.117 93.1719 339.727 93.1719C341.461 93.1719 342.883 93.5078 343.992 94.1797C345.117 94.8359 346.016 95.7578 346.688 96.9453C347.375 98.1328 347.906 99.5234 348.281 101.117C348.672 102.695 349 104.398 349.266 106.227V106.812C349 108.531 348.633 110.156 348.164 111.688C347.711 113.203 347.117 114.547 346.383 115.719C345.648 116.891 344.727 117.812 343.617 118.484C342.523 119.141 341.211 119.469 339.68 119.469C338.086 119.469 336.648 119.148 335.367 118.508C334.102 117.867 333.016 116.969 332.109 115.812C331.219 114.656 330.531 113.297 330.047 111.734C329.578 110.172 329.344 108.469 329.344 106.625ZM337.242 106.133V106.625C337.242 107.578 337.328 108.461 337.5 109.273C337.688 110.086 337.969 110.805 338.344 111.43C338.719 112.039 339.18 112.516 339.727 112.859C340.289 113.203 340.945 113.375 341.695 113.375C342.836 113.375 343.758 113.133 344.461 112.648C345.164 112.164 345.672 111.477 345.984 110.586C346.297 109.695 346.43 108.648 346.383 107.445V105.594C346.414 104.562 346.344 103.656 346.172 102.875C346 102.078 345.727 101.414 345.352 100.883C344.992 100.352 344.508 99.9531 343.898 99.6875C343.305 99.4062 342.586 99.2656 341.742 99.2656C341.008 99.2656 340.359 99.4375 339.797 99.7812C339.234 100.125 338.766 100.609 338.391 101.234C338.016 101.844 337.727 102.57 337.523 103.414C337.336 104.242 337.242 105.148 337.242 106.133Z" fill="black"/>
<path d="M1134 0H1348C1356.28 0 1363 6.71573 1363 15V148C1363 156.284 1356.28 163 1348 163H1134V0Z" fill="#399B53"/>
<path d="M1210.62 43.625H1286.38V119.375H1210.62V43.625Z" fill="white" fill-opacity="0.01"/>
<path d="M1276.91 72.0312V105.172C1276.91 107.787 1274.79 109.906 1272.17 109.906H1224.83C1222.21 109.906 1220.09 107.787 1220.09 105.172V57.8281C1220.09 55.2134 1222.21 53.0938 1224.83 53.0938H1261.12" stroke="white" stroke-width="7.24" stroke-linecap="round" stroke-linejoin="round"/>
<path d="M1232.72 75.1875L1248.5 87.8125L1276.91 53.0938" stroke="white" stroke-width="7.24" stroke-linecap="round" stroke-linejoin="round"/>
</svg>
