<svg width="1363" height="163" viewBox="0 0 1363 163" fill="none" xmlns="http://www.w3.org/2000/svg">
<path d="M0 15C0 6.71573 6.71573 0 15 0H37V163H15C6.71573 163 0 156.284 0 148V15Z" fill="#424242"/>
<rect width="1097" height="163" transform="translate(37)" fill="#F0F0F0"/>
<path d="M101.906 53.9219L94.3945 51.2383V48.0859L104.602 52.375V54.6367L101.906 53.9219ZM94.3945 56.1719L101.918 53.4297L104.602 52.7852V55.0352L94.3945 59.3242V56.1719ZM126.422 52.082V58.8438C126.156 59.1641 125.746 59.5117 125.191 59.8867C124.637 60.2539 123.922 60.5703 123.047 60.8359C122.172 61.1016 121.113 61.2344 119.871 61.2344C118.77 61.2344 117.766 61.0547 116.859 60.6953C115.953 60.3281 115.172 59.793 114.516 59.0898C113.867 58.3867 113.367 57.5273 113.016 56.5117C112.664 55.4883 112.488 54.3203 112.488 53.0078V51.9414C112.488 50.6289 112.656 49.4609 112.992 48.4375C113.336 47.4141 113.824 46.5508 114.457 45.8477C115.09 45.1445 115.844 44.6094 116.719 44.2422C117.594 43.875 118.566 43.6914 119.637 43.6914C121.121 43.6914 122.34 43.9336 123.293 44.418C124.246 44.8945 124.973 45.5586 125.473 46.4102C125.98 47.2539 126.293 48.2227 126.41 49.3164H123C122.914 48.7383 122.75 48.2344 122.508 47.8047C122.266 47.375 121.918 47.0391 121.465 46.7969C121.02 46.5547 120.441 46.4336 119.73 46.4336C119.145 46.4336 118.621 46.5547 118.16 46.7969C117.707 47.0312 117.324 47.3789 117.012 47.8398C116.699 48.3008 116.461 48.8711 116.297 49.5508C116.133 50.2305 116.051 51.0195 116.051 51.918V53.0078C116.051 53.8984 116.137 54.6875 116.309 55.375C116.48 56.0547 116.734 56.6289 117.07 57.0977C117.414 57.5586 117.836 57.9062 118.336 58.1406C118.836 58.375 119.418 58.4922 120.082 58.4922C120.637 58.4922 121.098 58.4453 121.465 58.3516C121.84 58.2578 122.141 58.1445 122.367 58.0117C122.602 57.8711 122.781 57.7383 122.906 57.6133V54.5898H119.695V52.082H126.422ZM128.508 54.7891V54.543C128.508 53.6133 128.641 52.7578 128.906 51.9766C129.172 51.1875 129.559 50.5039 130.066 49.9258C130.574 49.3477 131.199 48.8984 131.941 48.5781C132.684 48.25 133.535 48.0859 134.496 48.0859C135.457 48.0859 136.312 48.25 137.062 48.5781C137.812 48.8984 138.441 49.3477 138.949 49.9258C139.465 50.5039 139.855 51.1875 140.121 51.9766C140.387 52.7578 140.52 53.6133 140.52 54.543V54.7891C140.52 55.7109 140.387 56.5664 140.121 57.3555C139.855 58.1367 139.465 58.8203 138.949 59.4062C138.441 59.9844 137.816 60.4336 137.074 60.7539C136.332 61.0742 135.48 61.2344 134.52 61.2344C133.559 61.2344 132.703 61.0742 131.953 60.7539C131.211 60.4336 130.582 59.9844 130.066 59.4062C129.559 58.8203 129.172 58.1367 128.906 57.3555C128.641 56.5664 128.508 55.7109 128.508 54.7891ZM131.883 54.543V54.7891C131.883 55.3203 131.93 55.8164 132.023 56.2773C132.117 56.7383 132.266 57.1445 132.469 57.4961C132.68 57.8398 132.953 58.1094 133.289 58.3047C133.625 58.5 134.035 58.5977 134.52 58.5977C134.988 58.5977 135.391 58.5 135.727 58.3047C136.062 58.1094 136.332 57.8398 136.535 57.4961C136.738 57.1445 136.887 56.7383 136.98 56.2773C137.082 55.8164 137.133 55.3203 137.133 54.7891V54.543C137.133 54.0273 137.082 53.543 136.98 53.0898C136.887 52.6289 136.734 52.2227 136.523 51.8711C136.32 51.5117 136.051 51.2305 135.715 51.0273C135.379 50.8242 134.973 50.7227 134.496 50.7227C134.02 50.7227 133.613 50.8242 133.277 51.0273C132.949 51.2305 132.68 51.5117 132.469 51.8711C132.266 52.2227 132.117 52.6289 132.023 53.0898C131.93 53.543 131.883 54.0273 131.883 54.543ZM149.438 58.1406V52.4922C149.438 52.0859 149.371 51.7383 149.238 51.4492C149.105 51.1523 148.898 50.9219 148.617 50.7578C148.344 50.5938 147.988 50.5117 147.551 50.5117C147.176 50.5117 146.852 50.5781 146.578 50.7109C146.305 50.8359 146.094 51.0195 145.945 51.2617C145.797 51.4961 145.723 51.7734 145.723 52.0938H142.348C142.348 51.5547 142.473 51.043 142.723 50.5586C142.973 50.0742 143.336 49.6484 143.812 49.2812C144.289 48.9062 144.855 48.6133 145.512 48.4023C146.176 48.1914 146.918 48.0859 147.738 48.0859C148.723 48.0859 149.598 48.25 150.363 48.5781C151.129 48.9062 151.73 49.3984 152.168 50.0547C152.613 50.7109 152.836 51.5312 152.836 52.5156V57.9414C152.836 58.6367 152.879 59.207 152.965 59.6523C153.051 60.0898 153.176 60.4727 153.34 60.8008V61H149.93C149.766 60.6562 149.641 60.2266 149.555 59.7109C149.477 59.1875 149.438 58.6641 149.438 58.1406ZM149.883 53.2773L149.906 55.1875H148.02C147.574 55.1875 147.188 55.2383 146.859 55.3398C146.531 55.4414 146.262 55.5859 146.051 55.7734C145.84 55.9531 145.684 56.1641 145.582 56.4062C145.488 56.6484 145.441 56.9141 145.441 57.2031C145.441 57.4922 145.508 57.7539 145.641 57.9883C145.773 58.2148 145.965 58.3945 146.215 58.5273C146.465 58.6523 146.758 58.7148 147.094 58.7148C147.602 58.7148 148.043 58.6133 148.418 58.4102C148.793 58.207 149.082 57.957 149.285 57.6602C149.496 57.3633 149.605 57.082 149.613 56.8164L150.504 58.2461C150.379 58.5664 150.207 58.8984 149.988 59.2422C149.777 59.5859 149.508 59.9102 149.18 60.2148C148.852 60.5117 148.457 60.7578 147.996 60.9531C147.535 61.1406 146.988 61.2344 146.355 61.2344C145.551 61.2344 144.82 61.0742 144.164 60.7539C143.516 60.4258 143 59.9766 142.617 59.4062C142.242 58.8281 142.055 58.1719 142.055 57.4375C142.055 56.7734 142.18 56.1836 142.43 55.668C142.68 55.1523 143.047 54.7188 143.531 54.3672C144.023 54.0078 144.637 53.7383 145.371 53.5586C146.105 53.3711 146.957 53.2773 147.926 53.2773H149.883ZM159 43V61H155.613V43H159ZM169.582 43.9375H172.559L176.941 56.4648L181.324 43.9375H184.301L178.137 61H175.746L169.582 43.9375ZM167.977 43.9375H170.941L171.48 56.1484V61H167.977V43.9375ZM182.941 43.9375H185.918V61H182.402V56.1484L182.941 43.9375ZM195.633 58.1406V52.4922C195.633 52.0859 195.566 51.7383 195.434 51.4492C195.301 51.1523 195.094 50.9219 194.812 50.7578C194.539 50.5938 194.184 50.5117 193.746 50.5117C193.371 50.5117 193.047 50.5781 192.773 50.7109C192.5 50.8359 192.289 51.0195 192.141 51.2617C191.992 51.4961 191.918 51.7734 191.918 52.0938H188.543C188.543 51.5547 188.668 51.043 188.918 50.5586C189.168 50.0742 189.531 49.6484 190.008 49.2812C190.484 48.9062 191.051 48.6133 191.707 48.4023C192.371 48.1914 193.113 48.0859 193.934 48.0859C194.918 48.0859 195.793 48.25 196.559 48.5781C197.324 48.9062 197.926 49.3984 198.363 50.0547C198.809 50.7109 199.031 51.5312 199.031 52.5156V57.9414C199.031 58.6367 199.074 59.207 199.16 59.6523C199.246 60.0898 199.371 60.4727 199.535 60.8008V61H196.125C195.961 60.6562 195.836 60.2266 195.75 59.7109C195.672 59.1875 195.633 58.6641 195.633 58.1406ZM196.078 53.2773L196.102 55.1875H194.215C193.77 55.1875 193.383 55.2383 193.055 55.3398C192.727 55.4414 192.457 55.5859 192.246 55.7734C192.035 55.9531 191.879 56.1641 191.777 56.4062C191.684 56.6484 191.637 56.9141 191.637 57.2031C191.637 57.4922 191.703 57.7539 191.836 57.9883C191.969 58.2148 192.16 58.3945 192.41 58.5273C192.66 58.6523 192.953 58.7148 193.289 58.7148C193.797 58.7148 194.238 58.6133 194.613 58.4102C194.988 58.207 195.277 57.957 195.48 57.6602C195.691 57.3633 195.801 57.082 195.809 56.8164L196.699 58.2461C196.574 58.5664 196.402 58.8984 196.184 59.2422C195.973 59.5859 195.703 59.9102 195.375 60.2148C195.047 60.5117 194.652 60.7578 194.191 60.9531C193.73 61.1406 193.184 61.2344 192.551 61.2344C191.746 61.2344 191.016 61.0742 190.359 60.7539C189.711 60.4258 189.195 59.9766 188.812 59.4062C188.438 58.8281 188.25 58.1719 188.25 57.4375C188.25 56.7734 188.375 56.1836 188.625 55.668C188.875 55.1523 189.242 54.7188 189.727 54.3672C190.219 54.0078 190.832 53.7383 191.566 53.5586C192.301 53.3711 193.152 53.2773 194.121 53.2773H196.078ZM208.488 57.4961C208.488 57.2539 208.418 57.0352 208.277 56.8398C208.137 56.6445 207.875 56.4648 207.492 56.3008C207.117 56.1289 206.574 55.9727 205.863 55.832C205.223 55.6914 204.625 55.5156 204.07 55.3047C203.523 55.0859 203.047 54.8242 202.641 54.5195C202.242 54.2148 201.93 53.8555 201.703 53.4414C201.477 53.0195 201.363 52.5391 201.363 52C201.363 51.4688 201.477 50.9688 201.703 50.5C201.938 50.0312 202.27 49.6172 202.699 49.2578C203.137 48.8906 203.668 48.6055 204.293 48.4023C204.926 48.1914 205.637 48.0859 206.426 48.0859C207.527 48.0859 208.473 48.2617 209.262 48.6133C210.059 48.9648 210.668 49.4492 211.09 50.0664C211.52 50.6758 211.734 51.3711 211.734 52.1523H208.359C208.359 51.8242 208.289 51.5312 208.148 51.2734C208.016 51.0078 207.805 50.8008 207.516 50.6523C207.234 50.4961 206.867 50.418 206.414 50.418C206.039 50.418 205.715 50.4844 205.441 50.6172C205.168 50.7422 204.957 50.9141 204.809 51.1328C204.668 51.3438 204.598 51.5781 204.598 51.8359C204.598 52.0312 204.637 52.207 204.715 52.3633C204.801 52.5117 204.938 52.6484 205.125 52.7734C205.312 52.8984 205.555 53.0156 205.852 53.125C206.156 53.2266 206.531 53.3203 206.977 53.4062C207.891 53.5938 208.707 53.8398 209.426 54.1445C210.145 54.4414 210.715 54.8477 211.137 55.3633C211.559 55.8711 211.77 56.5391 211.77 57.3672C211.77 57.9297 211.645 58.4453 211.395 58.9141C211.145 59.3828 210.785 59.793 210.316 60.1445C209.848 60.4883 209.285 60.7578 208.629 60.9531C207.98 61.1406 207.25 61.2344 206.438 61.2344C205.258 61.2344 204.258 61.0234 203.438 60.6016C202.625 60.1797 202.008 59.6445 201.586 58.9961C201.172 58.3398 200.965 57.668 200.965 56.9805H204.164C204.18 57.4414 204.297 57.8125 204.516 58.0938C204.742 58.375 205.027 58.5781 205.371 58.7031C205.723 58.8281 206.102 58.8906 206.508 58.8906C206.945 58.8906 207.309 58.832 207.598 58.7148C207.887 58.5898 208.105 58.4258 208.254 58.2227C208.41 58.0117 208.488 57.7695 208.488 57.4961ZM220.172 48.3203V50.7109H212.789V48.3203H220.172ZM214.617 45.1914H217.992V57.1797C217.992 57.5469 218.039 57.8281 218.133 58.0234C218.234 58.2188 218.383 58.3555 218.578 58.4336C218.773 58.5039 219.02 58.5391 219.316 58.5391C219.527 58.5391 219.715 58.5312 219.879 58.5156C220.051 58.4922 220.195 58.4688 220.312 58.4453L220.324 60.9297C220.035 61.0234 219.723 61.0977 219.387 61.1523C219.051 61.207 218.68 61.2344 218.273 61.2344C217.531 61.2344 216.883 61.1133 216.328 60.8711C215.781 60.6211 215.359 60.2227 215.062 59.6758C214.766 59.1289 214.617 58.4102 214.617 57.5195V45.1914ZM227.93 61.2344C226.945 61.2344 226.062 61.0781 225.281 60.7656C224.5 60.4453 223.836 60.0039 223.289 59.4414C222.75 58.8789 222.336 58.2266 222.047 57.4844C221.758 56.7344 221.613 55.9375 221.613 55.0938V54.625C221.613 53.6641 221.75 52.7852 222.023 51.9883C222.297 51.1914 222.688 50.5 223.195 49.9141C223.711 49.3281 224.336 48.8789 225.07 48.5664C225.805 48.2461 226.633 48.0859 227.555 48.0859C228.453 48.0859 229.25 48.2344 229.945 48.5312C230.641 48.8281 231.223 49.25 231.691 49.7969C232.168 50.3438 232.527 51 232.77 51.7656C233.012 52.5234 233.133 53.3672 233.133 54.2969V55.7031H223.055V53.4531H229.816V53.1953C229.816 52.7266 229.73 52.3086 229.559 51.9414C229.395 51.5664 229.145 51.2695 228.809 51.0508C228.473 50.832 228.043 50.7227 227.52 50.7227C227.074 50.7227 226.691 50.8203 226.371 51.0156C226.051 51.2109 225.789 51.4844 225.586 51.8359C225.391 52.1875 225.242 52.6016 225.141 53.0781C225.047 53.5469 225 54.0625 225 54.625V55.0938C225 55.6016 225.07 56.0703 225.211 56.5C225.359 56.9297 225.566 57.3008 225.832 57.6133C226.105 57.9258 226.434 58.168 226.816 58.3398C227.207 58.5117 227.648 58.5977 228.141 58.5977C228.75 58.5977 229.316 58.4805 229.84 58.2461C230.371 58.0039 230.828 57.6406 231.211 57.1562L232.852 58.9375C232.586 59.3203 232.223 59.6875 231.762 60.0391C231.309 60.3906 230.762 60.6797 230.121 60.9062C229.48 61.125 228.75 61.2344 227.93 61.2344ZM238.43 51.0859V61H235.055V48.3203H238.23L238.43 51.0859ZM242.25 48.2383L242.191 51.3672C242.027 51.3438 241.828 51.3242 241.594 51.3086C241.367 51.2852 241.16 51.2734 240.973 51.2734C240.496 51.2734 240.082 51.3359 239.73 51.4609C239.387 51.5781 239.098 51.7539 238.863 51.9883C238.637 52.2227 238.465 52.5078 238.348 52.8438C238.238 53.1797 238.176 53.5625 238.16 53.9922L237.48 53.7812C237.48 52.9609 237.562 52.207 237.727 51.5195C237.891 50.8242 238.129 50.2188 238.441 49.7031C238.762 49.1875 239.152 48.7891 239.613 48.5078C240.074 48.2266 240.602 48.0859 241.195 48.0859C241.383 48.0859 241.574 48.1016 241.77 48.1328C241.965 48.1562 242.125 48.1914 242.25 48.2383Z" fill="#888888"/>
<path d="M114.117 84.875H122.344V107.164C122.344 109.82 121.789 112.07 120.68 113.914C119.57 115.742 118.016 117.125 116.016 118.062C114.016 119 111.664 119.469 108.961 119.469C106.289 119.469 103.938 119 101.906 118.062C99.8906 117.125 98.3125 115.742 97.1719 113.914C96.0469 112.07 95.4844 109.82 95.4844 107.164V84.875H103.734V107.164C103.734 108.57 103.938 109.719 104.344 110.609C104.75 111.484 105.344 112.125 106.125 112.531C106.906 112.938 107.852 113.141 108.961 113.141C110.086 113.141 111.031 112.938 111.797 112.531C112.562 112.125 113.141 111.484 113.531 110.609C113.922 109.719 114.117 108.57 114.117 107.164V84.875ZM136.266 84.875V119H128.062V84.875H136.266ZM172.523 84.875H180.75V107.164C180.75 109.82 180.195 112.07 179.086 113.914C177.977 115.742 176.422 117.125 174.422 118.062C172.422 119 170.07 119.469 167.367 119.469C164.695 119.469 162.344 119 160.312 118.062C158.297 117.125 156.719 115.742 155.578 113.914C154.453 112.07 153.891 109.82 153.891 107.164V84.875H162.141V107.164C162.141 108.57 162.344 109.719 162.75 110.609C163.156 111.484 163.75 112.125 164.531 112.531C165.312 112.938 166.258 113.141 167.367 113.141C168.492 113.141 169.438 112.938 170.203 112.531C170.969 112.125 171.547 111.484 171.938 110.609C172.328 109.719 172.523 108.57 172.523 107.164V84.875ZM193.078 84.875L198.656 96.2188L204.234 84.875H213.609L204.094 101.797L213.867 119H204.398L198.656 107.445L192.914 119H183.422L193.219 101.797L183.68 84.875H193.078Z" fill="black"/>
<path d="M1134 0H1348C1356.28 0 1363 6.71573 1363 15V148C1363 156.284 1356.28 163 1348 163H1134V0Z" fill="#C53362"/>
<path d="M1248.5 111.917C1244.51 111.917 1240.55 111.13 1236.86 109.601C1233.17 108.073 1229.82 105.832 1226.99 103.008C1221.29 97.3036 1218.08 89.567 1218.08 81.5C1218.08 73.433 1221.29 65.6964 1226.99 59.9922C1232.7 54.2879 1240.43 51.0833 1248.5 51.0833C1265.23 51.0833 1278.92 63.25 1278.92 78.4583C1278.92 83.2985 1276.99 87.9405 1273.57 91.363C1270.15 94.7856 1265.51 96.7083 1260.67 96.7083H1255.19C1254.28 96.7083 1253.67 97.3167 1253.67 98.2292C1253.67 98.5333 1253.97 98.8375 1253.97 99.1417C1255.19 100.662 1255.8 102.487 1255.8 104.312C1256.1 108.571 1252.76 111.917 1248.5 111.917ZM1248.5 57.1667C1242.05 57.1667 1235.86 59.7303 1231.29 64.2937C1226.73 68.8571 1224.17 75.0464 1224.17 81.5C1224.17 87.9536 1226.73 94.1429 1231.29 98.7063C1235.86 103.27 1242.05 105.833 1248.5 105.833C1249.41 105.833 1250.02 105.225 1250.02 104.312C1250.02 103.704 1249.72 103.4 1249.72 103.096C1248.5 101.575 1247.89 100.054 1247.89 98.2292C1247.89 93.9708 1251.24 90.625 1255.5 90.625H1260.67C1263.89 90.625 1266.99 89.3432 1269.27 87.0615C1271.55 84.7798 1272.83 81.6851 1272.83 78.4583C1272.83 66.5958 1261.88 57.1667 1248.5 57.1667ZM1231.77 75.4167C1234.2 75.4167 1236.33 77.5458 1236.33 79.9792C1236.33 82.4125 1234.2 84.5417 1231.77 84.5417C1229.34 84.5417 1227.21 82.4125 1227.21 79.9792C1227.21 77.5458 1229.34 75.4167 1231.77 75.4167ZM1240.9 63.25C1243.33 63.25 1245.46 65.3792 1245.46 67.8125C1245.46 70.2458 1243.33 72.375 1240.9 72.375C1238.46 72.375 1236.33 70.2458 1236.33 67.8125C1236.33 65.3792 1238.46 63.25 1240.9 63.25ZM1256.1 63.25C1258.54 63.25 1260.67 65.3792 1260.67 67.8125C1260.67 70.2458 1258.54 72.375 1256.1 72.375C1253.67 72.375 1251.54 70.2458 1251.54 67.8125C1251.54 65.3792 1253.67 63.25 1256.1 63.25ZM1265.23 75.4167C1267.66 75.4167 1269.79 77.5458 1269.79 79.9792C1269.79 82.4125 1267.66 84.5417 1265.23 84.5417C1262.8 84.5417 1260.67 82.4125 1260.67 79.9792C1260.67 77.5458 1262.8 75.4167 1265.23 75.4167Z" fill="white"/>
</svg>
