<svg width="1363" height="163" viewBox="0 0 1363 163" fill="none" xmlns="http://www.w3.org/2000/svg">
<path d="M0 15C0 6.71573 6.71573 0 15 0H37V163H15C6.71573 163 0 156.284 0 148V15Z" fill="#424242"/>
<rect width="1097" height="163" transform="translate(37)" fill="#F0F0F0"/>
<path d="M101.906 53.9219L94.3945 51.2383V48.0859L104.602 52.375V54.6367L101.906 53.9219ZM94.3945 56.1719L101.918 53.4297L104.602 52.7852V55.0352L94.3945 59.3242V56.1719ZM121.781 56.5352C121.781 56.2305 121.734 55.957 121.641 55.7148C121.555 55.4648 121.391 55.2383 121.148 55.0352C120.906 54.8242 120.566 54.6172 120.129 54.4141C119.691 54.2109 119.125 54 118.43 53.7812C117.656 53.5312 116.922 53.25 116.227 52.9375C115.539 52.625 114.93 52.2617 114.398 51.8477C113.875 51.4258 113.461 50.9375 113.156 50.3828C112.859 49.8281 112.711 49.1836 112.711 48.4492C112.711 47.7383 112.867 47.0938 113.18 46.5156C113.492 45.9297 113.93 45.4297 114.492 45.0156C115.055 44.5938 115.719 44.2695 116.484 44.043C117.258 43.8164 118.105 43.7031 119.027 43.7031C120.285 43.7031 121.383 43.9297 122.32 44.3828C123.258 44.8359 123.984 45.457 124.5 46.2461C125.023 47.0352 125.285 47.9375 125.285 48.9531H121.793C121.793 48.4531 121.688 48.0156 121.477 47.6406C121.273 47.2578 120.961 46.957 120.539 46.7383C120.125 46.5195 119.602 46.4102 118.969 46.4102C118.359 46.4102 117.852 46.5039 117.445 46.6914C117.039 46.8711 116.734 47.1172 116.531 47.4297C116.328 47.7344 116.227 48.0781 116.227 48.4609C116.227 48.75 116.297 49.0117 116.438 49.2461C116.586 49.4805 116.805 49.6992 117.094 49.9023C117.383 50.1055 117.738 50.2969 118.16 50.4766C118.582 50.6562 119.07 50.832 119.625 51.0039C120.555 51.2852 121.371 51.6016 122.074 51.9531C122.785 52.3047 123.379 52.6992 123.855 53.1367C124.332 53.5742 124.691 54.0703 124.934 54.625C125.176 55.1797 125.297 55.8086 125.297 56.5117C125.297 57.2539 125.152 57.918 124.863 58.5039C124.574 59.0898 124.156 59.5859 123.609 59.9922C123.062 60.3984 122.41 60.707 121.652 60.918C120.895 61.1289 120.047 61.2344 119.109 61.2344C118.266 61.2344 117.434 61.125 116.613 60.9062C115.793 60.6797 115.047 60.3398 114.375 59.8867C113.711 59.4336 113.18 58.8555 112.781 58.1523C112.383 57.4492 112.184 56.6172 112.184 55.6562H115.711C115.711 56.1875 115.793 56.6367 115.957 57.0039C116.121 57.3711 116.352 57.668 116.648 57.8945C116.953 58.1211 117.312 58.2852 117.727 58.3867C118.148 58.4883 118.609 58.5391 119.109 58.5391C119.719 58.5391 120.219 58.4531 120.609 58.2812C121.008 58.1094 121.301 57.8711 121.488 57.5664C121.684 57.2617 121.781 56.918 121.781 56.5352ZM130.852 50.9453V61H127.465V48.3203H130.641L130.852 50.9453ZM130.383 54.2148H129.445C129.445 53.332 129.551 52.5195 129.762 51.7773C129.98 51.0273 130.297 50.3789 130.711 49.832C131.133 49.2773 131.652 48.8477 132.27 48.543C132.887 48.2383 133.602 48.0859 134.414 48.0859C134.977 48.0859 135.492 48.1719 135.961 48.3438C136.43 48.5078 136.832 48.7695 137.168 49.1289C137.512 49.4805 137.777 49.9414 137.965 50.5117C138.152 51.0742 138.246 51.75 138.246 52.5391V61H134.871V52.9141C134.871 52.3359 134.793 51.8906 134.637 51.5781C134.48 51.2656 134.258 51.0469 133.969 50.9219C133.688 50.7969 133.348 50.7344 132.949 50.7344C132.512 50.7344 132.129 50.8242 131.801 51.0039C131.48 51.1836 131.215 51.4336 131.004 51.7539C130.793 52.0664 130.637 52.4336 130.535 52.8555C130.434 53.2773 130.383 53.7305 130.383 54.2148ZM137.93 53.8281L136.723 53.9805C136.723 53.1523 136.824 52.3828 137.027 51.6719C137.238 50.9609 137.547 50.3359 137.953 49.7969C138.367 49.2578 138.879 48.8398 139.488 48.543C140.098 48.2383 140.801 48.0859 141.598 48.0859C142.207 48.0859 142.762 48.1758 143.262 48.3555C143.762 48.5273 144.188 48.8047 144.539 49.1875C144.898 49.5625 145.172 50.0547 145.359 50.6641C145.555 51.2734 145.652 52.0195 145.652 52.9023V61H142.266V52.9023C142.266 52.3164 142.188 51.8711 142.031 51.5664C141.883 51.2539 141.664 51.0391 141.375 50.9219C141.094 50.7969 140.758 50.7344 140.367 50.7344C139.961 50.7344 139.605 50.8164 139.301 50.9805C138.996 51.1367 138.742 51.3555 138.539 51.6367C138.336 51.918 138.184 52.2461 138.082 52.6211C137.98 52.9883 137.93 53.3906 137.93 53.8281ZM155.109 58.1406V52.4922C155.109 52.0859 155.043 51.7383 154.91 51.4492C154.777 51.1523 154.57 50.9219 154.289 50.7578C154.016 50.5938 153.66 50.5117 153.223 50.5117C152.848 50.5117 152.523 50.5781 152.25 50.7109C151.977 50.8359 151.766 51.0195 151.617 51.2617C151.469 51.4961 151.395 51.7734 151.395 52.0938H148.02C148.02 51.5547 148.145 51.043 148.395 50.5586C148.645 50.0742 149.008 49.6484 149.484 49.2812C149.961 48.9062 150.527 48.6133 151.184 48.4023C151.848 48.1914 152.59 48.0859 153.41 48.0859C154.395 48.0859 155.27 48.25 156.035 48.5781C156.801 48.9062 157.402 49.3984 157.84 50.0547C158.285 50.7109 158.508 51.5312 158.508 52.5156V57.9414C158.508 58.6367 158.551 59.207 158.637 59.6523C158.723 60.0898 158.848 60.4727 159.012 60.8008V61H155.602C155.438 60.6562 155.312 60.2266 155.227 59.7109C155.148 59.1875 155.109 58.6641 155.109 58.1406ZM155.555 53.2773L155.578 55.1875H153.691C153.246 55.1875 152.859 55.2383 152.531 55.3398C152.203 55.4414 151.934 55.5859 151.723 55.7734C151.512 55.9531 151.355 56.1641 151.254 56.4062C151.16 56.6484 151.113 56.9141 151.113 57.2031C151.113 57.4922 151.18 57.7539 151.312 57.9883C151.445 58.2148 151.637 58.3945 151.887 58.5273C152.137 58.6523 152.43 58.7148 152.766 58.7148C153.273 58.7148 153.715 58.6133 154.09 58.4102C154.465 58.207 154.754 57.957 154.957 57.6602C155.168 57.3633 155.277 57.082 155.285 56.8164L156.176 58.2461C156.051 58.5664 155.879 58.8984 155.66 59.2422C155.449 59.5859 155.18 59.9102 154.852 60.2148C154.523 60.5117 154.129 60.7578 153.668 60.9531C153.207 61.1406 152.66 61.2344 152.027 61.2344C151.223 61.2344 150.492 61.0742 149.836 60.7539C149.188 60.4258 148.672 59.9766 148.289 59.4062C147.914 58.8281 147.727 58.1719 147.727 57.4375C147.727 56.7734 147.852 56.1836 148.102 55.668C148.352 55.1523 148.719 54.7188 149.203 54.3672C149.695 54.0078 150.309 53.7383 151.043 53.5586C151.777 53.3711 152.629 53.2773 153.598 53.2773H155.555ZM164.484 51.0859V61H161.109V48.3203H164.285L164.484 51.0859ZM168.305 48.2383L168.246 51.3672C168.082 51.3438 167.883 51.3242 167.648 51.3086C167.422 51.2852 167.215 51.2734 167.027 51.2734C166.551 51.2734 166.137 51.3359 165.785 51.4609C165.441 51.5781 165.152 51.7539 164.918 51.9883C164.691 52.2227 164.52 52.5078 164.402 52.8438C164.293 53.1797 164.23 53.5625 164.215 53.9922L163.535 53.7812C163.535 52.9609 163.617 52.207 163.781 51.5195C163.945 50.8242 164.184 50.2188 164.496 49.7031C164.816 49.1875 165.207 48.7891 165.668 48.5078C166.129 48.2266 166.656 48.0859 167.25 48.0859C167.438 48.0859 167.629 48.1016 167.824 48.1328C168.02 48.1562 168.18 48.1914 168.305 48.2383ZM176.695 48.3203V50.7109H169.312V48.3203H176.695ZM171.141 45.1914H174.516V57.1797C174.516 57.5469 174.562 57.8281 174.656 58.0234C174.758 58.2188 174.906 58.3555 175.102 58.4336C175.297 58.5039 175.543 58.5391 175.84 58.5391C176.051 58.5391 176.238 58.5312 176.402 58.5156C176.574 58.4922 176.719 58.4688 176.836 58.4453L176.848 60.9297C176.559 61.0234 176.246 61.0977 175.91 61.1523C175.574 61.207 175.203 61.2344 174.797 61.2344C174.055 61.2344 173.406 61.1133 172.852 60.8711C172.305 60.6211 171.883 60.2227 171.586 59.6758C171.289 59.1289 171.141 58.4102 171.141 57.5195V45.1914ZM191.484 53.5117H187.102L187.078 51.0977H190.758C191.406 51.0977 191.938 51.0156 192.352 50.8516C192.766 50.6797 193.074 50.4336 193.277 50.1133C193.488 49.7852 193.594 49.3867 193.594 48.918C193.594 48.3867 193.492 47.957 193.289 47.6289C193.094 47.3008 192.785 47.0625 192.363 46.9141C191.949 46.7656 191.414 46.6914 190.758 46.6914H188.32V61H184.805V43.9375H190.758C191.75 43.9375 192.637 44.0312 193.418 44.2188C194.207 44.4062 194.875 44.6914 195.422 45.0742C195.969 45.457 196.387 45.9414 196.676 46.5273C196.965 47.1055 197.109 47.793 197.109 48.5898C197.109 49.293 196.949 49.9414 196.629 50.5352C196.316 51.1289 195.82 51.6133 195.141 51.9883C194.469 52.3633 193.59 52.5703 192.504 52.6094L191.484 53.5117ZM191.332 61H186.141L187.512 58.2578H191.332C191.949 58.2578 192.453 58.1602 192.844 57.9648C193.234 57.7617 193.523 57.4883 193.711 57.1445C193.898 56.8008 193.992 56.4062 193.992 55.9609C193.992 55.4609 193.906 55.0273 193.734 54.6602C193.57 54.293 193.305 54.0117 192.938 53.8164C192.57 53.6133 192.086 53.5117 191.484 53.5117H188.098L188.121 51.0977H192.34L193.148 52.0469C194.188 52.0312 195.023 52.2148 195.656 52.5977C196.297 52.9727 196.762 53.4609 197.051 54.0625C197.348 54.6641 197.496 55.3086 197.496 55.9961C197.496 57.0898 197.258 58.0117 196.781 58.7617C196.305 59.5039 195.605 60.0625 194.684 60.4375C193.77 60.8125 192.652 61 191.332 61ZM207.422 57.9648V48.3203H210.797V61H207.621L207.422 57.9648ZM207.797 55.3633L208.793 55.3398C208.793 56.1836 208.695 56.9688 208.5 57.6953C208.305 58.4141 208.012 59.0391 207.621 59.5703C207.23 60.0938 206.738 60.5039 206.145 60.8008C205.551 61.0898 204.852 61.2344 204.047 61.2344C203.43 61.2344 202.859 61.1484 202.336 60.9766C201.82 60.7969 201.375 60.5195 201 60.1445C200.633 59.7617 200.344 59.2734 200.133 58.6797C199.93 58.0781 199.828 57.3555 199.828 56.5117V48.3203H203.203V56.5352C203.203 56.9102 203.246 57.2266 203.332 57.4844C203.426 57.7422 203.555 57.9531 203.719 58.1172C203.883 58.2812 204.074 58.3984 204.293 58.4688C204.52 58.5391 204.77 58.5742 205.043 58.5742C205.738 58.5742 206.285 58.4336 206.684 58.1523C207.09 57.8711 207.375 57.4883 207.539 57.0039C207.711 56.5117 207.797 55.9648 207.797 55.3633ZM220.863 58.2344V43H224.262V61H221.203L220.863 58.2344ZM212.848 54.8125V54.5664C212.848 53.5977 212.957 52.7188 213.176 51.9297C213.395 51.1328 213.715 50.4492 214.137 49.8789C214.559 49.3086 215.078 48.8672 215.695 48.5547C216.312 48.2422 217.016 48.0859 217.805 48.0859C218.547 48.0859 219.195 48.2422 219.75 48.5547C220.312 48.8672 220.789 49.3125 221.18 49.8906C221.578 50.4609 221.898 51.1367 222.141 51.918C222.383 52.6914 222.559 53.5391 222.668 54.4609V55C222.559 55.8828 222.383 56.7031 222.141 57.4609C221.898 58.2188 221.578 58.8828 221.18 59.4531C220.789 60.0156 220.312 60.4531 219.75 60.7656C219.188 61.0781 218.531 61.2344 217.781 61.2344C216.992 61.2344 216.289 61.0742 215.672 60.7539C215.062 60.4336 214.547 59.9844 214.125 59.4062C213.711 58.8281 213.395 58.1484 213.176 57.3672C212.957 56.5859 212.848 55.7344 212.848 54.8125ZM216.223 54.5664V54.8125C216.223 55.3359 216.262 55.8242 216.34 56.2773C216.426 56.7305 216.562 57.1328 216.75 57.4844C216.945 57.8281 217.195 58.0977 217.5 58.293C217.812 58.4805 218.191 58.5742 218.637 58.5742C219.215 58.5742 219.691 58.4453 220.066 58.1875C220.441 57.9219 220.727 57.5586 220.922 57.0977C221.125 56.6367 221.242 56.1055 221.273 55.5039V53.9688C221.25 53.4766 221.18 53.0352 221.062 52.6445C220.953 52.2461 220.789 51.9062 220.57 51.625C220.359 51.3438 220.094 51.125 219.773 50.9688C219.461 50.8125 219.09 50.7344 218.66 50.7344C218.223 50.7344 217.848 50.8359 217.535 51.0391C217.223 51.2344 216.969 51.5039 216.773 51.8477C216.586 52.1914 216.445 52.5977 216.352 53.0664C216.266 53.5273 216.223 54.0273 216.223 54.5664ZM234.926 48.3203H237.984V60.5781C237.984 61.7344 237.727 62.7148 237.211 63.5195C236.703 64.332 235.992 64.9453 235.078 65.3594C234.164 65.7812 233.102 65.9922 231.891 65.9922C231.359 65.9922 230.797 65.9219 230.203 65.7812C229.617 65.6406 229.055 65.4219 228.516 65.125C227.984 64.8281 227.539 64.4531 227.18 64L228.668 62.0078C229.059 62.4609 229.512 62.8125 230.027 63.0625C230.543 63.3203 231.113 63.4492 231.738 63.4492C232.348 63.4492 232.863 63.3359 233.285 63.1094C233.707 62.8906 234.031 62.5664 234.258 62.1367C234.484 61.7148 234.598 61.2031 234.598 60.6016V51.25L234.926 48.3203ZM226.395 54.8125V54.5664C226.395 53.5977 226.512 52.7188 226.746 51.9297C226.988 51.1328 227.328 50.4492 227.766 49.8789C228.211 49.3086 228.75 48.8672 229.383 48.5547C230.016 48.2422 230.73 48.0859 231.527 48.0859C232.371 48.0859 233.078 48.2422 233.648 48.5547C234.219 48.8672 234.688 49.3125 235.055 49.8906C235.422 50.4609 235.707 51.1367 235.91 51.918C236.121 52.6914 236.285 53.5391 236.402 54.4609V55C236.285 55.8828 236.109 56.7031 235.875 57.4609C235.641 58.2188 235.332 58.8828 234.949 59.4531C234.566 60.0156 234.09 60.4531 233.52 60.7656C232.957 61.0781 232.285 61.2344 231.504 61.2344C230.723 61.2344 230.016 61.0742 229.383 60.7539C228.758 60.4336 228.223 59.9844 227.777 59.4062C227.332 58.8281 226.988 58.1484 226.746 57.3672C226.512 56.5859 226.395 55.7344 226.395 54.8125ZM229.77 54.5664V54.8125C229.77 55.3359 229.82 55.8242 229.922 56.2773C230.023 56.7305 230.18 57.1328 230.391 57.4844C230.609 57.8281 230.879 58.0977 231.199 58.293C231.527 58.4805 231.914 58.5742 232.359 58.5742C232.977 58.5742 233.48 58.4453 233.871 58.1875C234.262 57.9219 234.555 57.5586 234.75 57.0977C234.945 56.6367 235.059 56.1055 235.09 55.5039V53.9688C235.074 53.4766 235.008 53.0352 234.891 52.6445C234.773 52.2461 234.609 51.9062 234.398 51.625C234.188 51.3438 233.914 51.125 233.578 50.9688C233.242 50.8125 232.844 50.7344 232.383 50.7344C231.938 50.7344 231.551 50.8359 231.223 51.0391C230.902 51.2344 230.633 51.5039 230.414 51.8477C230.203 52.1914 230.043 52.5977 229.934 53.0664C229.824 53.5273 229.77 54.0273 229.77 54.5664ZM246.445 61.2344C245.461 61.2344 244.578 61.0781 243.797 60.7656C243.016 60.4453 242.352 60.0039 241.805 59.4414C241.266 58.8789 240.852 58.2266 240.562 57.4844C240.273 56.7344 240.129 55.9375 240.129 55.0938V54.625C240.129 53.6641 240.266 52.7852 240.539 51.9883C240.812 51.1914 241.203 50.5 241.711 49.9141C242.227 49.3281 242.852 48.8789 243.586 48.5664C244.32 48.2461 245.148 48.0859 246.07 48.0859C246.969 48.0859 247.766 48.2344 248.461 48.5312C249.156 48.8281 249.738 49.25 250.207 49.7969C250.684 50.3438 251.043 51 251.285 51.7656C251.527 52.5234 251.648 53.3672 251.648 54.2969V55.7031H241.57V53.4531H248.332V53.1953C248.332 52.7266 248.246 52.3086 248.074 51.9414C247.91 51.5664 247.66 51.2695 247.324 51.0508C246.988 50.832 246.559 50.7227 246.035 50.7227C245.59 50.7227 245.207 50.8203 244.887 51.0156C244.566 51.2109 244.305 51.4844 244.102 51.8359C243.906 52.1875 243.758 52.6016 243.656 53.0781C243.562 53.5469 243.516 54.0625 243.516 54.625V55.0938C243.516 55.6016 243.586 56.0703 243.727 56.5C243.875 56.9297 244.082 57.3008 244.348 57.6133C244.621 57.9258 244.949 58.168 245.332 58.3398C245.723 58.5117 246.164 58.5977 246.656 58.5977C247.266 58.5977 247.832 58.4805 248.355 58.2461C248.887 58.0039 249.344 57.6406 249.727 57.1562L251.367 58.9375C251.102 59.3203 250.738 59.6875 250.277 60.0391C249.824 60.3906 249.277 60.6797 248.637 60.9062C247.996 61.125 247.266 61.2344 246.445 61.2344ZM259.781 48.3203V50.7109H252.398V48.3203H259.781ZM254.227 45.1914H257.602V57.1797C257.602 57.5469 257.648 57.8281 257.742 58.0234C257.844 58.2188 257.992 58.3555 258.188 58.4336C258.383 58.5039 258.629 58.5391 258.926 58.5391C259.137 58.5391 259.324 58.5312 259.488 58.5156C259.66 58.4922 259.805 58.4688 259.922 58.4453L259.934 60.9297C259.645 61.0234 259.332 61.0977 258.996 61.1523C258.66 61.207 258.289 61.2344 257.883 61.2344C257.141 61.2344 256.492 61.1133 255.938 60.8711C255.391 60.6211 254.969 60.2227 254.672 59.6758C254.375 59.1289 254.227 58.4102 254.227 57.5195V45.1914Z" fill="#888888"/>
<path d="M110.062 92.0469L101.742 119H92.9062L105.445 84.875H111.047L110.062 92.0469ZM116.953 119L108.609 92.0469L107.531 84.875H113.203L125.812 119H116.953ZM116.625 106.273V112.625H99.1172V106.273H116.625ZM135.258 115.906L142.055 84.875H146.109L148.312 87.5234L141.07 119H136.594L135.258 115.906ZM133.453 84.875L139.195 116.141L137.719 119H132.539L125.297 84.875H133.453ZM152.039 115.977L157.734 84.875H165.867L158.625 119H153.469L152.039 115.977ZM149.039 84.875L156 116.094L154.594 119H150.117L142.711 87.4766L145.008 84.875H149.039ZM186.68 109.93C186.68 109.398 186.602 108.922 186.445 108.5C186.289 108.062 186 107.656 185.578 107.281C185.156 106.906 184.547 106.531 183.75 106.156C182.969 105.766 181.938 105.359 180.656 104.938C179.156 104.438 177.711 103.875 176.32 103.25C174.93 102.609 173.688 101.867 172.594 101.023C171.5 100.164 170.633 99.1641 169.992 98.0234C169.352 96.8672 169.031 95.5234 169.031 93.9922C169.031 92.5234 169.359 91.2031 170.016 90.0312C170.672 88.8438 171.586 87.8359 172.758 87.0078C173.945 86.1641 175.336 85.5234 176.93 85.0859C178.523 84.6328 180.266 84.4062 182.156 84.4062C184.656 84.4062 186.859 84.8438 188.766 85.7188C190.688 86.5781 192.188 87.8047 193.266 89.3984C194.359 90.9766 194.906 92.8438 194.906 95H186.727C186.727 94.1406 186.547 93.3828 186.188 92.7266C185.844 92.0703 185.32 91.5547 184.617 91.1797C183.914 90.8047 183.031 90.6172 181.969 90.6172C180.938 90.6172 180.07 90.7734 179.367 91.0859C178.664 91.3984 178.133 91.8203 177.773 92.3516C177.414 92.8672 177.234 93.4375 177.234 94.0625C177.234 94.5781 177.375 95.0469 177.656 95.4688C177.953 95.875 178.367 96.2578 178.898 96.6172C179.445 96.9766 180.102 97.3203 180.867 97.6484C181.648 97.9766 182.523 98.2969 183.492 98.6094C185.305 99.1875 186.914 99.8359 188.32 100.555C189.742 101.258 190.938 102.062 191.906 102.969C192.891 103.859 193.633 104.875 194.133 106.016C194.648 107.156 194.906 108.445 194.906 109.883C194.906 111.414 194.609 112.773 194.016 113.961C193.422 115.148 192.57 116.156 191.461 116.984C190.352 117.797 189.023 118.414 187.477 118.836C185.93 119.258 184.203 119.469 182.297 119.469C180.547 119.469 178.82 119.25 177.117 118.812C175.43 118.359 173.898 117.672 172.523 116.75C171.148 115.812 170.047 114.617 169.219 113.164C168.406 111.695 168 109.953 168 107.938H176.25C176.25 108.938 176.383 109.781 176.648 110.469C176.914 111.156 177.305 111.711 177.82 112.133C178.336 112.539 178.969 112.836 179.719 113.023C180.469 113.195 181.328 113.281 182.297 113.281C183.344 113.281 184.188 113.133 184.828 112.836C185.469 112.523 185.938 112.117 186.234 111.617C186.531 111.102 186.68 110.539 186.68 109.93ZM222.188 119H214.617L214.664 112.672H222.188C223.75 112.672 225.07 112.297 226.148 111.547C227.242 110.797 228.07 109.68 228.633 108.195C229.211 106.695 229.5 104.852 229.5 102.664V101.188C229.5 99.5469 229.336 98.1094 229.008 96.875C228.695 95.625 228.227 94.5859 227.602 93.7578C226.977 92.9141 226.195 92.2812 225.258 91.8594C224.336 91.4375 223.273 91.2266 222.07 91.2266H214.477V84.875H222.07C224.383 84.875 226.5 85.2734 228.422 86.0703C230.359 86.8516 232.031 87.9766 233.438 89.4453C234.859 90.8984 235.953 92.625 236.719 94.625C237.5 96.6094 237.891 98.8125 237.891 101.234V102.664C237.891 105.07 237.5 107.273 236.719 109.273C235.953 111.273 234.867 113 233.461 114.453C232.055 115.906 230.391 117.031 228.469 117.828C226.562 118.609 224.469 119 222.188 119ZM219.328 84.875V119H211.102V84.875H219.328ZM254.086 119.469C252.023 119.469 250.18 119.148 248.555 118.508C246.93 117.852 245.555 116.953 244.43 115.812C243.32 114.672 242.469 113.359 241.875 111.875C241.297 110.391 241.008 108.82 241.008 107.164V106.273C241.008 104.414 241.266 102.695 241.781 101.117C242.297 99.5234 243.062 98.1328 244.078 96.9453C245.094 95.7578 246.367 94.8359 247.898 94.1797C249.43 93.5078 251.211 93.1719 253.242 93.1719C255.039 93.1719 256.648 93.4609 258.07 94.0391C259.492 94.6172 260.695 95.4453 261.68 96.5234C262.68 97.6016 263.438 98.9062 263.953 100.438C264.484 101.969 264.75 103.688 264.75 105.594V108.805H244.031V103.859H257.039V103.25C257.055 102.406 256.906 101.688 256.594 101.094C256.297 100.5 255.859 100.047 255.281 99.7344C254.703 99.4219 254 99.2656 253.172 99.2656C252.312 99.2656 251.602 99.4531 251.039 99.8281C250.492 100.203 250.062 100.719 249.75 101.375C249.453 102.016 249.242 102.758 249.117 103.602C248.992 104.445 248.93 105.336 248.93 106.273V107.164C248.93 108.102 249.055 108.953 249.305 109.719C249.57 110.484 249.945 111.141 250.43 111.688C250.93 112.219 251.523 112.633 252.211 112.93C252.914 113.227 253.711 113.375 254.602 113.375C255.68 113.375 256.742 113.172 257.789 112.766C258.836 112.359 259.734 111.688 260.484 110.75L264.07 115.016C263.555 115.75 262.82 116.461 261.867 117.148C260.93 117.836 259.805 118.398 258.492 118.836C257.18 119.258 255.711 119.469 254.086 119.469ZM275.93 98.5156V128.75H268.031V93.6406H275.391L275.93 98.5156ZM291.492 106.016V106.508C291.492 108.352 291.281 110.062 290.859 111.641C290.438 113.219 289.812 114.594 288.984 115.766C288.156 116.938 287.125 117.852 285.891 118.508C284.672 119.148 283.258 119.469 281.648 119.469C280.133 119.469 278.828 119.133 277.734 118.461C276.641 117.789 275.727 116.859 274.992 115.672C274.258 114.484 273.664 113.125 273.211 111.594C272.758 110.062 272.398 108.445 272.133 106.742V106.109C272.398 104.281 272.758 102.586 273.211 101.023C273.664 99.4453 274.258 98.0703 274.992 96.8984C275.727 95.7266 276.633 94.8125 277.711 94.1562C278.805 93.5 280.109 93.1719 281.625 93.1719C283.234 93.1719 284.648 93.4766 285.867 94.0859C287.102 94.6953 288.133 95.5703 288.961 96.7109C289.805 97.8359 290.438 99.1875 290.859 100.766C291.281 102.344 291.492 104.094 291.492 106.016ZM283.594 106.508V106.016C283.594 105.031 283.523 104.133 283.383 103.32C283.242 102.492 283.016 101.773 282.703 101.164C282.406 100.555 282.008 100.086 281.508 99.7578C281.008 99.4297 280.391 99.2656 279.656 99.2656C278.812 99.2656 278.102 99.3984 277.523 99.6641C276.961 99.9141 276.508 100.305 276.164 100.836C275.836 101.352 275.602 102 275.461 102.781C275.336 103.547 275.281 104.445 275.297 105.477V107.398C275.266 108.586 275.383 109.633 275.648 110.539C275.914 111.43 276.375 112.125 277.031 112.625C277.688 113.125 278.578 113.375 279.703 113.375C280.453 113.375 281.078 113.203 281.578 112.859C282.078 112.5 282.477 112.008 282.773 111.383C283.07 110.742 283.281 110.008 283.406 109.18C283.531 108.352 283.594 107.461 283.594 106.508ZM303.352 83V119H295.43V83H303.352ZM307.242 106.578V106.086C307.242 104.227 307.508 102.516 308.039 100.953C308.57 99.375 309.352 98.0078 310.383 96.8516C311.414 95.6953 312.688 94.7969 314.203 94.1562C315.719 93.5 317.469 93.1719 319.453 93.1719C321.453 93.1719 323.211 93.5 324.727 94.1562C326.258 94.7969 327.539 95.6953 328.57 96.8516C329.602 98.0078 330.383 99.375 330.914 100.953C331.445 102.516 331.711 104.227 331.711 106.086V106.578C331.711 108.422 331.445 110.133 330.914 111.711C330.383 113.273 329.602 114.641 328.57 115.812C327.539 116.969 326.266 117.867 324.75 118.508C323.234 119.148 321.484 119.469 319.5 119.469C317.516 119.469 315.758 119.148 314.227 118.508C312.695 117.867 311.414 116.969 310.383 115.812C309.352 114.641 308.57 113.273 308.039 111.711C307.508 110.133 307.242 108.422 307.242 106.578ZM315.141 106.086V106.578C315.141 107.531 315.211 108.422 315.352 109.25C315.492 110.078 315.727 110.805 316.055 111.43C316.383 112.039 316.828 112.516 317.391 112.859C317.953 113.203 318.656 113.375 319.5 113.375C320.328 113.375 321.016 113.203 321.562 112.859C322.125 112.516 322.57 112.039 322.898 111.43C323.227 110.805 323.461 110.078 323.602 109.25C323.742 108.422 323.812 107.531 323.812 106.578V106.086C323.812 105.164 323.742 104.297 323.602 103.484C323.461 102.656 323.227 101.93 322.898 101.305C322.57 100.664 322.125 100.164 321.562 99.8047C321 99.4453 320.297 99.2656 319.453 99.2656C318.625 99.2656 317.93 99.4453 317.367 99.8047C316.82 100.164 316.383 100.664 316.055 101.305C315.727 101.93 315.492 102.656 315.352 103.484C315.211 104.297 315.141 105.164 315.141 106.086ZM342.633 116.023L349.195 93.6406H357.68L347.484 122.773C347.266 123.414 346.977 124.102 346.617 124.836C346.258 125.586 345.766 126.297 345.141 126.969C344.516 127.641 343.711 128.188 342.727 128.609C341.758 129.031 340.555 129.242 339.117 129.242C338.352 129.242 337.789 129.203 337.43 129.125C337.086 129.062 336.555 128.945 335.836 128.773V123.125C336.039 123.125 336.211 123.125 336.352 123.125C336.508 123.125 336.68 123.125 336.867 123.125C337.711 123.125 338.383 123.039 338.883 122.867C339.398 122.695 339.789 122.445 340.055 122.117C340.336 121.789 340.555 121.391 340.711 120.922L342.633 116.023ZM340.969 93.6406L345.961 111.383L346.828 119.75H341.531L332.508 93.6406H340.969ZM367.711 99.0078V119H359.812V93.6406H367.219L367.711 99.0078ZM366.75 105.453L364.945 105.5C364.945 103.719 365.156 102.078 365.578 100.578C366 99.0781 366.625 97.7734 367.453 96.6641C368.281 95.5547 369.297 94.6953 370.5 94.0859C371.719 93.4766 373.125 93.1719 374.719 93.1719C375.828 93.1719 376.836 93.3438 377.742 93.6875C378.648 94.0156 379.43 94.5391 380.086 95.2578C380.742 95.9609 381.242 96.8828 381.586 98.0234C381.945 99.1484 382.125 100.5 382.125 102.078V119H374.227V103.086C374.227 102.008 374.102 101.195 373.852 100.648C373.617 100.102 373.273 99.7344 372.82 99.5469C372.367 99.3594 371.812 99.2656 371.156 99.2656C370.469 99.2656 369.852 99.4219 369.305 99.7344C368.758 100.047 368.289 100.484 367.898 101.047C367.523 101.594 367.234 102.242 367.031 102.992C366.844 103.742 366.75 104.562 366.75 105.453ZM381.234 105.453L379.031 105.5C379.031 103.719 379.227 102.078 379.617 100.578C380.023 99.0781 380.625 97.7734 381.422 96.6641C382.234 95.5547 383.242 94.6953 384.445 94.0859C385.648 93.4766 387.047 93.1719 388.641 93.1719C389.797 93.1719 390.859 93.3438 391.828 93.6875C392.797 94.0312 393.633 94.5859 394.336 95.3516C395.039 96.1172 395.586 97.1328 395.977 98.3984C396.367 99.6484 396.562 101.195 396.562 103.039V119H388.641V103.039C388.641 101.992 388.516 101.203 388.266 100.672C388.031 100.125 387.688 99.7578 387.234 99.5703C386.781 99.3672 386.242 99.2656 385.617 99.2656C384.867 99.2656 384.219 99.4219 383.672 99.7344C383.125 100.047 382.664 100.484 382.289 101.047C381.93 101.594 381.664 102.242 381.492 102.992C381.32 103.742 381.234 104.562 381.234 105.453ZM413.367 119.469C411.305 119.469 409.461 119.148 407.836 118.508C406.211 117.852 404.836 116.953 403.711 115.812C402.602 114.672 401.75 113.359 401.156 111.875C400.578 110.391 400.289 108.82 400.289 107.164V106.273C400.289 104.414 400.547 102.695 401.062 101.117C401.578 99.5234 402.344 98.1328 403.359 96.9453C404.375 95.7578 405.648 94.8359 407.18 94.1797C408.711 93.5078 410.492 93.1719 412.523 93.1719C414.32 93.1719 415.93 93.4609 417.352 94.0391C418.773 94.6172 419.977 95.4453 420.961 96.5234C421.961 97.6016 422.719 98.9062 423.234 100.438C423.766 101.969 424.031 103.688 424.031 105.594V108.805H403.312V103.859H416.32V103.25C416.336 102.406 416.188 101.688 415.875 101.094C415.578 100.5 415.141 100.047 414.562 99.7344C413.984 99.4219 413.281 99.2656 412.453 99.2656C411.594 99.2656 410.883 99.4531 410.32 99.8281C409.773 100.203 409.344 100.719 409.031 101.375C408.734 102.016 408.523 102.758 408.398 103.602C408.273 104.445 408.211 105.336 408.211 106.273V107.164C408.211 108.102 408.336 108.953 408.586 109.719C408.852 110.484 409.227 111.141 409.711 111.688C410.211 112.219 410.805 112.633 411.492 112.93C412.195 113.227 412.992 113.375 413.883 113.375C414.961 113.375 416.023 113.172 417.07 112.766C418.117 112.359 419.016 111.688 419.766 110.75L423.352 115.016C422.836 115.75 422.102 116.461 421.148 117.148C420.211 117.836 419.086 118.398 417.773 118.836C416.461 119.258 414.992 119.469 413.367 119.469ZM435 99.0547V119H427.102V93.6406H434.508L435 99.0547ZM434.062 105.453L432.211 105.5C432.211 103.562 432.445 101.836 432.914 100.32C433.383 98.7891 434.047 97.4922 434.906 96.4297C435.766 95.3672 436.789 94.5625 437.977 94.0156C439.18 93.4531 440.516 93.1719 441.984 93.1719C443.156 93.1719 444.227 93.3438 445.195 93.6875C446.18 94.0312 447.023 94.5859 447.727 95.3516C448.445 96.1172 448.992 97.1328 449.367 98.3984C449.758 99.6484 449.953 101.195 449.953 103.039V119H442.008V103.016C442.008 102 441.867 101.227 441.586 100.695C441.305 100.148 440.898 99.7734 440.367 99.5703C439.836 99.3672 439.188 99.2656 438.422 99.2656C437.609 99.2656 436.922 99.4219 436.359 99.7344C435.797 100.047 435.344 100.484 435 101.047C434.672 101.594 434.43 102.242 434.273 102.992C434.133 103.742 434.062 104.562 434.062 105.453ZM467.695 93.6406V99.125H452.414V93.6406H467.695ZM455.625 87.3359H463.523V110.727C463.523 111.398 463.602 111.922 463.758 112.297C463.914 112.656 464.18 112.914 464.555 113.07C464.945 113.211 465.461 113.281 466.102 113.281C466.555 113.281 466.93 113.273 467.227 113.258C467.523 113.227 467.805 113.188 468.07 113.141V118.789C467.398 119.008 466.695 119.172 465.961 119.281C465.227 119.406 464.445 119.469 463.617 119.469C461.93 119.469 460.484 119.203 459.281 118.672C458.094 118.141 457.188 117.305 456.562 116.164C455.938 115.023 455.625 113.539 455.625 111.711V87.3359Z" fill="black"/>
<path d="M1134 0H1348C1356.28 0 1363 6.71573 1363 15V148C1363 156.284 1356.28 163 1348 163H1134V0Z" fill="#399B53"/>
<path d="M1212.5 117.5L1212.5 45.5L1284.5 45.5L1284.5 117.5L1212.5 117.5Z" fill="white" fill-opacity="0.01"/>
<path d="M1221.5 81.5125L1221.5 108.5L1275.5 108.5L1275.5 81.5" stroke="white" stroke-width="7.24" stroke-linecap="round" stroke-linejoin="round"/>
<path d="M1262 68L1248.5 54.5L1235 68" stroke="white" stroke-width="7.24" stroke-linecap="round" stroke-linejoin="round"/>
<path d="M1248.49 93.5L1248.49 54.5" stroke="white" stroke-width="7.24" stroke-linecap="round" stroke-linejoin="round"/>
</svg>
