<svg width="1363" height="163" viewBox="0 0 1363 163" fill="none" xmlns="http://www.w3.org/2000/svg">
<path d="M0 15C0 6.71573 6.71573 0 15 0H37V163H15C6.71573 163 0 156.284 0 148V15Z" fill="#424242"/>
<rect width="1097" height="163" transform="translate(37)" fill="#F0F0F0"/>
<path d="M101.906 53.9219L94.3945 51.2383V48.0859L104.602 52.375V54.6367L101.906 53.9219ZM94.3945 56.1719L101.918 53.4297L104.602 52.7852V55.0352L94.3945 59.3242V56.1719ZM126.422 52.082V58.8438C126.156 59.1641 125.746 59.5117 125.191 59.8867C124.637 60.2539 123.922 60.5703 123.047 60.8359C122.172 61.1016 121.113 61.2344 119.871 61.2344C118.77 61.2344 117.766 61.0547 116.859 60.6953C115.953 60.3281 115.172 59.793 114.516 59.0898C113.867 58.3867 113.367 57.5273 113.016 56.5117C112.664 55.4883 112.488 54.3203 112.488 53.0078V51.9414C112.488 50.6289 112.656 49.4609 112.992 48.4375C113.336 47.4141 113.824 46.5508 114.457 45.8477C115.09 45.1445 115.844 44.6094 116.719 44.2422C117.594 43.875 118.566 43.6914 119.637 43.6914C121.121 43.6914 122.34 43.9336 123.293 44.418C124.246 44.8945 124.973 45.5586 125.473 46.4102C125.98 47.2539 126.293 48.2227 126.41 49.3164H123C122.914 48.7383 122.75 48.2344 122.508 47.8047C122.266 47.375 121.918 47.0391 121.465 46.7969C121.02 46.5547 120.441 46.4336 119.73 46.4336C119.145 46.4336 118.621 46.5547 118.16 46.7969C117.707 47.0312 117.324 47.3789 117.012 47.8398C116.699 48.3008 116.461 48.8711 116.297 49.5508C116.133 50.2305 116.051 51.0195 116.051 51.918V53.0078C116.051 53.8984 116.137 54.6875 116.309 55.375C116.48 56.0547 116.734 56.6289 117.07 57.0977C117.414 57.5586 117.836 57.9062 118.336 58.1406C118.836 58.375 119.418 58.4922 120.082 58.4922C120.637 58.4922 121.098 58.4453 121.465 58.3516C121.84 58.2578 122.141 58.1445 122.367 58.0117C122.602 57.8711 122.781 57.7383 122.906 57.6133V54.5898H119.695V52.082H126.422ZM128.508 54.7891V54.543C128.508 53.6133 128.641 52.7578 128.906 51.9766C129.172 51.1875 129.559 50.5039 130.066 49.9258C130.574 49.3477 131.199 48.8984 131.941 48.5781C132.684 48.25 133.535 48.0859 134.496 48.0859C135.457 48.0859 136.312 48.25 137.062 48.5781C137.812 48.8984 138.441 49.3477 138.949 49.9258C139.465 50.5039 139.855 51.1875 140.121 51.9766C140.387 52.7578 140.52 53.6133 140.52 54.543V54.7891C140.52 55.7109 140.387 56.5664 140.121 57.3555C139.855 58.1367 139.465 58.8203 138.949 59.4062C138.441 59.9844 137.816 60.4336 137.074 60.7539C136.332 61.0742 135.48 61.2344 134.52 61.2344C133.559 61.2344 132.703 61.0742 131.953 60.7539C131.211 60.4336 130.582 59.9844 130.066 59.4062C129.559 58.8203 129.172 58.1367 128.906 57.3555C128.641 56.5664 128.508 55.7109 128.508 54.7891ZM131.883 54.543V54.7891C131.883 55.3203 131.93 55.8164 132.023 56.2773C132.117 56.7383 132.266 57.1445 132.469 57.4961C132.68 57.8398 132.953 58.1094 133.289 58.3047C133.625 58.5 134.035 58.5977 134.52 58.5977C134.988 58.5977 135.391 58.5 135.727 58.3047C136.062 58.1094 136.332 57.8398 136.535 57.4961C136.738 57.1445 136.887 56.7383 136.98 56.2773C137.082 55.8164 137.133 55.3203 137.133 54.7891V54.543C137.133 54.0273 137.082 53.543 136.98 53.0898C136.887 52.6289 136.734 52.2227 136.523 51.8711C136.32 51.5117 136.051 51.2305 135.715 51.0273C135.379 50.8242 134.973 50.7227 134.496 50.7227C134.02 50.7227 133.613 50.8242 133.277 51.0273C132.949 51.2305 132.68 51.5117 132.469 51.8711C132.266 52.2227 132.117 52.6289 132.023 53.0898C131.93 53.543 131.883 54.0273 131.883 54.543ZM149.438 58.1406V52.4922C149.438 52.0859 149.371 51.7383 149.238 51.4492C149.105 51.1523 148.898 50.9219 148.617 50.7578C148.344 50.5938 147.988 50.5117 147.551 50.5117C147.176 50.5117 146.852 50.5781 146.578 50.7109C146.305 50.8359 146.094 51.0195 145.945 51.2617C145.797 51.4961 145.723 51.7734 145.723 52.0938H142.348C142.348 51.5547 142.473 51.043 142.723 50.5586C142.973 50.0742 143.336 49.6484 143.812 49.2812C144.289 48.9062 144.855 48.6133 145.512 48.4023C146.176 48.1914 146.918 48.0859 147.738 48.0859C148.723 48.0859 149.598 48.25 150.363 48.5781C151.129 48.9062 151.73 49.3984 152.168 50.0547C152.613 50.7109 152.836 51.5312 152.836 52.5156V57.9414C152.836 58.6367 152.879 59.207 152.965 59.6523C153.051 60.0898 153.176 60.4727 153.34 60.8008V61H149.93C149.766 60.6562 149.641 60.2266 149.555 59.7109C149.477 59.1875 149.438 58.6641 149.438 58.1406ZM149.883 53.2773L149.906 55.1875H148.02C147.574 55.1875 147.188 55.2383 146.859 55.3398C146.531 55.4414 146.262 55.5859 146.051 55.7734C145.84 55.9531 145.684 56.1641 145.582 56.4062C145.488 56.6484 145.441 56.9141 145.441 57.2031C145.441 57.4922 145.508 57.7539 145.641 57.9883C145.773 58.2148 145.965 58.3945 146.215 58.5273C146.465 58.6523 146.758 58.7148 147.094 58.7148C147.602 58.7148 148.043 58.6133 148.418 58.4102C148.793 58.207 149.082 57.957 149.285 57.6602C149.496 57.3633 149.605 57.082 149.613 56.8164L150.504 58.2461C150.379 58.5664 150.207 58.8984 149.988 59.2422C149.777 59.5859 149.508 59.9102 149.18 60.2148C148.852 60.5117 148.457 60.7578 147.996 60.9531C147.535 61.1406 146.988 61.2344 146.355 61.2344C145.551 61.2344 144.82 61.0742 144.164 60.7539C143.516 60.4258 143 59.9766 142.617 59.4062C142.242 58.8281 142.055 58.1719 142.055 57.4375C142.055 56.7734 142.18 56.1836 142.43 55.668C142.68 55.1523 143.047 54.7188 143.531 54.3672C144.023 54.0078 144.637 53.7383 145.371 53.5586C146.105 53.3711 146.957 53.2773 147.926 53.2773H149.883ZM159 43V61H155.613V43H159ZM169.582 43.9375H172.559L176.941 56.4648L181.324 43.9375H184.301L178.137 61H175.746L169.582 43.9375ZM167.977 43.9375H170.941L171.48 56.1484V61H167.977V43.9375ZM182.941 43.9375H185.918V61H182.402V56.1484L182.941 43.9375ZM195.633 58.1406V52.4922C195.633 52.0859 195.566 51.7383 195.434 51.4492C195.301 51.1523 195.094 50.9219 194.812 50.7578C194.539 50.5938 194.184 50.5117 193.746 50.5117C193.371 50.5117 193.047 50.5781 192.773 50.7109C192.5 50.8359 192.289 51.0195 192.141 51.2617C191.992 51.4961 191.918 51.7734 191.918 52.0938H188.543C188.543 51.5547 188.668 51.043 188.918 50.5586C189.168 50.0742 189.531 49.6484 190.008 49.2812C190.484 48.9062 191.051 48.6133 191.707 48.4023C192.371 48.1914 193.113 48.0859 193.934 48.0859C194.918 48.0859 195.793 48.25 196.559 48.5781C197.324 48.9062 197.926 49.3984 198.363 50.0547C198.809 50.7109 199.031 51.5312 199.031 52.5156V57.9414C199.031 58.6367 199.074 59.207 199.16 59.6523C199.246 60.0898 199.371 60.4727 199.535 60.8008V61H196.125C195.961 60.6562 195.836 60.2266 195.75 59.7109C195.672 59.1875 195.633 58.6641 195.633 58.1406ZM196.078 53.2773L196.102 55.1875H194.215C193.77 55.1875 193.383 55.2383 193.055 55.3398C192.727 55.4414 192.457 55.5859 192.246 55.7734C192.035 55.9531 191.879 56.1641 191.777 56.4062C191.684 56.6484 191.637 56.9141 191.637 57.2031C191.637 57.4922 191.703 57.7539 191.836 57.9883C191.969 58.2148 192.16 58.3945 192.41 58.5273C192.66 58.6523 192.953 58.7148 193.289 58.7148C193.797 58.7148 194.238 58.6133 194.613 58.4102C194.988 58.207 195.277 57.957 195.48 57.6602C195.691 57.3633 195.801 57.082 195.809 56.8164L196.699 58.2461C196.574 58.5664 196.402 58.8984 196.184 59.2422C195.973 59.5859 195.703 59.9102 195.375 60.2148C195.047 60.5117 194.652 60.7578 194.191 60.9531C193.73 61.1406 193.184 61.2344 192.551 61.2344C191.746 61.2344 191.016 61.0742 190.359 60.7539C189.711 60.4258 189.195 59.9766 188.812 59.4062C188.438 58.8281 188.25 58.1719 188.25 57.4375C188.25 56.7734 188.375 56.1836 188.625 55.668C188.875 55.1523 189.242 54.7188 189.727 54.3672C190.219 54.0078 190.832 53.7383 191.566 53.5586C192.301 53.3711 193.152 53.2773 194.121 53.2773H196.078ZM208.488 57.4961C208.488 57.2539 208.418 57.0352 208.277 56.8398C208.137 56.6445 207.875 56.4648 207.492 56.3008C207.117 56.1289 206.574 55.9727 205.863 55.832C205.223 55.6914 204.625 55.5156 204.07 55.3047C203.523 55.0859 203.047 54.8242 202.641 54.5195C202.242 54.2148 201.93 53.8555 201.703 53.4414C201.477 53.0195 201.363 52.5391 201.363 52C201.363 51.4688 201.477 50.9688 201.703 50.5C201.938 50.0312 202.27 49.6172 202.699 49.2578C203.137 48.8906 203.668 48.6055 204.293 48.4023C204.926 48.1914 205.637 48.0859 206.426 48.0859C207.527 48.0859 208.473 48.2617 209.262 48.6133C210.059 48.9648 210.668 49.4492 211.09 50.0664C211.52 50.6758 211.734 51.3711 211.734 52.1523H208.359C208.359 51.8242 208.289 51.5312 208.148 51.2734C208.016 51.0078 207.805 50.8008 207.516 50.6523C207.234 50.4961 206.867 50.418 206.414 50.418C206.039 50.418 205.715 50.4844 205.441 50.6172C205.168 50.7422 204.957 50.9141 204.809 51.1328C204.668 51.3438 204.598 51.5781 204.598 51.8359C204.598 52.0312 204.637 52.207 204.715 52.3633C204.801 52.5117 204.938 52.6484 205.125 52.7734C205.312 52.8984 205.555 53.0156 205.852 53.125C206.156 53.2266 206.531 53.3203 206.977 53.4062C207.891 53.5938 208.707 53.8398 209.426 54.1445C210.145 54.4414 210.715 54.8477 211.137 55.3633C211.559 55.8711 211.77 56.5391 211.77 57.3672C211.77 57.9297 211.645 58.4453 211.395 58.9141C211.145 59.3828 210.785 59.793 210.316 60.1445C209.848 60.4883 209.285 60.7578 208.629 60.9531C207.98 61.1406 207.25 61.2344 206.438 61.2344C205.258 61.2344 204.258 61.0234 203.438 60.6016C202.625 60.1797 202.008 59.6445 201.586 58.9961C201.172 58.3398 200.965 57.668 200.965 56.9805H204.164C204.18 57.4414 204.297 57.8125 204.516 58.0938C204.742 58.375 205.027 58.5781 205.371 58.7031C205.723 58.8281 206.102 58.8906 206.508 58.8906C206.945 58.8906 207.309 58.832 207.598 58.7148C207.887 58.5898 208.105 58.4258 208.254 58.2227C208.41 58.0117 208.488 57.7695 208.488 57.4961ZM220.172 48.3203V50.7109H212.789V48.3203H220.172ZM214.617 45.1914H217.992V57.1797C217.992 57.5469 218.039 57.8281 218.133 58.0234C218.234 58.2188 218.383 58.3555 218.578 58.4336C218.773 58.5039 219.02 58.5391 219.316 58.5391C219.527 58.5391 219.715 58.5312 219.879 58.5156C220.051 58.4922 220.195 58.4688 220.312 58.4453L220.324 60.9297C220.035 61.0234 219.723 61.0977 219.387 61.1523C219.051 61.207 218.68 61.2344 218.273 61.2344C217.531 61.2344 216.883 61.1133 216.328 60.8711C215.781 60.6211 215.359 60.2227 215.062 59.6758C214.766 59.1289 214.617 58.4102 214.617 57.5195V45.1914ZM227.93 61.2344C226.945 61.2344 226.062 61.0781 225.281 60.7656C224.5 60.4453 223.836 60.0039 223.289 59.4414C222.75 58.8789 222.336 58.2266 222.047 57.4844C221.758 56.7344 221.613 55.9375 221.613 55.0938V54.625C221.613 53.6641 221.75 52.7852 222.023 51.9883C222.297 51.1914 222.688 50.5 223.195 49.9141C223.711 49.3281 224.336 48.8789 225.07 48.5664C225.805 48.2461 226.633 48.0859 227.555 48.0859C228.453 48.0859 229.25 48.2344 229.945 48.5312C230.641 48.8281 231.223 49.25 231.691 49.7969C232.168 50.3438 232.527 51 232.77 51.7656C233.012 52.5234 233.133 53.3672 233.133 54.2969V55.7031H223.055V53.4531H229.816V53.1953C229.816 52.7266 229.73 52.3086 229.559 51.9414C229.395 51.5664 229.145 51.2695 228.809 51.0508C228.473 50.832 228.043 50.7227 227.52 50.7227C227.074 50.7227 226.691 50.8203 226.371 51.0156C226.051 51.2109 225.789 51.4844 225.586 51.8359C225.391 52.1875 225.242 52.6016 225.141 53.0781C225.047 53.5469 225 54.0625 225 54.625V55.0938C225 55.6016 225.07 56.0703 225.211 56.5C225.359 56.9297 225.566 57.3008 225.832 57.6133C226.105 57.9258 226.434 58.168 226.816 58.3398C227.207 58.5117 227.648 58.5977 228.141 58.5977C228.75 58.5977 229.316 58.4805 229.84 58.2461C230.371 58.0039 230.828 57.6406 231.211 57.1562L232.852 58.9375C232.586 59.3203 232.223 59.6875 231.762 60.0391C231.309 60.3906 230.762 60.6797 230.121 60.9062C229.48 61.125 228.75 61.2344 227.93 61.2344ZM238.43 51.0859V61H235.055V48.3203H238.23L238.43 51.0859ZM242.25 48.2383L242.191 51.3672C242.027 51.3438 241.828 51.3242 241.594 51.3086C241.367 51.2852 241.16 51.2734 240.973 51.2734C240.496 51.2734 240.082 51.3359 239.73 51.4609C239.387 51.5781 239.098 51.7539 238.863 51.9883C238.637 52.2227 238.465 52.5078 238.348 52.8438C238.238 53.1797 238.176 53.5625 238.16 53.9922L237.48 53.7812C237.48 52.9609 237.562 52.207 237.727 51.5195C237.891 50.8242 238.129 50.2188 238.441 49.7031C238.762 49.1875 239.152 48.7891 239.613 48.5078C240.074 48.2266 240.602 48.0859 241.195 48.0859C241.383 48.0859 241.574 48.1016 241.77 48.1328C241.965 48.1562 242.125 48.1914 242.25 48.2383Z" fill="#888888"/>
<path d="M114.117 84.875H122.344V107.164C122.344 109.82 121.789 112.07 120.68 113.914C119.57 115.742 118.016 117.125 116.016 118.062C114.016 119 111.664 119.469 108.961 119.469C106.289 119.469 103.938 119 101.906 118.062C99.8906 117.125 98.3125 115.742 97.1719 113.914C96.0469 112.07 95.4844 109.82 95.4844 107.164V84.875H103.734V107.164C103.734 108.57 103.938 109.719 104.344 110.609C104.75 111.484 105.344 112.125 106.125 112.531C106.906 112.938 107.852 113.141 108.961 113.141C110.086 113.141 111.031 112.938 111.797 112.531C112.562 112.125 113.141 111.484 113.531 110.609C113.922 109.719 114.117 108.57 114.117 107.164V84.875ZM134.906 99.0547V119H127.008V93.6406H134.414L134.906 99.0547ZM133.969 105.453L132.117 105.5C132.117 103.562 132.352 101.836 132.82 100.32C133.289 98.7891 133.953 97.4922 134.812 96.4297C135.672 95.3672 136.695 94.5625 137.883 94.0156C139.086 93.4531 140.422 93.1719 141.891 93.1719C143.062 93.1719 144.133 93.3438 145.102 93.6875C146.086 94.0312 146.93 94.5859 147.633 95.3516C148.352 96.1172 148.898 97.1328 149.273 98.3984C149.664 99.6484 149.859 101.195 149.859 103.039V119H141.914V103.016C141.914 102 141.773 101.227 141.492 100.695C141.211 100.148 140.805 99.7734 140.273 99.5703C139.742 99.3672 139.094 99.2656 138.328 99.2656C137.516 99.2656 136.828 99.4219 136.266 99.7344C135.703 100.047 135.25 100.484 134.906 101.047C134.578 101.594 134.336 102.242 134.18 102.992C134.039 103.742 133.969 104.562 133.969 105.453ZM162.586 93.6406V119H154.664V93.6406H162.586ZM154.195 87.1016C154.195 85.9766 154.602 85.0547 155.414 84.3359C156.227 83.6172 157.281 83.2578 158.578 83.2578C159.875 83.2578 160.93 83.6172 161.742 84.3359C162.555 85.0547 162.961 85.9766 162.961 87.1016C162.961 88.2266 162.555 89.1484 161.742 89.8672C160.93 90.5859 159.875 90.9453 158.578 90.9453C157.281 90.9453 156.227 90.5859 155.414 89.8672C154.602 89.1484 154.195 88.2266 154.195 87.1016ZM180.82 93.6406V99.125H165.539V93.6406H180.82ZM168.75 87.3359H176.648V110.727C176.648 111.398 176.727 111.922 176.883 112.297C177.039 112.656 177.305 112.914 177.68 113.07C178.07 113.211 178.586 113.281 179.227 113.281C179.68 113.281 180.055 113.273 180.352 113.258C180.648 113.227 180.93 113.188 181.195 113.141V118.789C180.523 119.008 179.82 119.172 179.086 119.281C178.352 119.406 177.57 119.469 176.742 119.469C175.055 119.469 173.609 119.203 172.406 118.672C171.219 118.141 170.312 117.305 169.688 116.164C169.062 115.023 168.75 113.539 168.75 111.711V87.3359ZM211.406 84.875V119H203.18V84.875H211.406ZM221.672 84.875V91.2266H193.148V84.875H221.672ZM234.961 119.469C232.898 119.469 231.055 119.148 229.43 118.508C227.805 117.852 226.43 116.953 225.305 115.812C224.195 114.672 223.344 113.359 222.75 111.875C222.172 110.391 221.883 108.82 221.883 107.164V106.273C221.883 104.414 222.141 102.695 222.656 101.117C223.172 99.5234 223.938 98.1328 224.953 96.9453C225.969 95.7578 227.242 94.8359 228.773 94.1797C230.305 93.5078 232.086 93.1719 234.117 93.1719C235.914 93.1719 237.523 93.4609 238.945 94.0391C240.367 94.6172 241.57 95.4453 242.555 96.5234C243.555 97.6016 244.312 98.9062 244.828 100.438C245.359 101.969 245.625 103.688 245.625 105.594V108.805H224.906V103.859H237.914V103.25C237.93 102.406 237.781 101.688 237.469 101.094C237.172 100.5 236.734 100.047 236.156 99.7344C235.578 99.4219 234.875 99.2656 234.047 99.2656C233.188 99.2656 232.477 99.4531 231.914 99.8281C231.367 100.203 230.938 100.719 230.625 101.375C230.328 102.016 230.117 102.758 229.992 103.602C229.867 104.445 229.805 105.336 229.805 106.273V107.164C229.805 108.102 229.93 108.953 230.18 109.719C230.445 110.484 230.82 111.141 231.305 111.688C231.805 112.219 232.398 112.633 233.086 112.93C233.789 113.227 234.586 113.375 235.477 113.375C236.555 113.375 237.617 113.172 238.664 112.766C239.711 112.359 240.609 111.688 241.359 110.75L244.945 115.016C244.43 115.75 243.695 116.461 242.742 117.148C241.805 117.836 240.68 118.398 239.367 118.836C238.055 119.258 236.586 119.469 234.961 119.469ZM262.125 111.875C262.125 111.438 261.977 111.062 261.68 110.75C261.398 110.422 260.898 110.125 260.18 109.859C259.461 109.578 258.453 109.297 257.156 109.016C255.922 108.75 254.758 108.398 253.664 107.961C252.586 107.523 251.641 106.992 250.828 106.367C250.016 105.742 249.375 105 248.906 104.141C248.453 103.281 248.227 102.297 248.227 101.188C248.227 100.109 248.453 99.0938 248.906 98.1406C249.375 97.1719 250.055 96.3203 250.945 95.5859C251.852 94.8359 252.953 94.25 254.25 93.8281C255.547 93.3906 257.023 93.1719 258.68 93.1719C260.961 93.1719 262.93 93.5234 264.586 94.2266C266.242 94.9141 267.516 95.8828 268.406 97.1328C269.312 98.3672 269.766 99.7969 269.766 101.422H261.867C261.867 100.781 261.758 100.234 261.539 99.7812C261.336 99.3281 261 98.9844 260.531 98.75C260.062 98.5 259.438 98.375 258.656 98.375C258.109 98.375 257.609 98.4766 257.156 98.6797C256.719 98.8828 256.367 99.1641 256.102 99.5234C255.836 99.8828 255.703 100.305 255.703 100.789C255.703 101.133 255.781 101.445 255.938 101.727C256.109 101.992 256.367 102.242 256.711 102.477C257.055 102.695 257.492 102.898 258.023 103.086C258.555 103.258 259.195 103.414 259.945 103.555C261.648 103.867 263.242 104.312 264.727 104.891C266.211 105.469 267.414 106.289 268.336 107.352C269.273 108.414 269.742 109.844 269.742 111.641C269.742 112.766 269.484 113.805 268.969 114.758C268.453 115.695 267.711 116.523 266.742 117.242C265.773 117.945 264.609 118.492 263.25 118.883C261.891 119.273 260.359 119.469 258.656 119.469C256.234 119.469 254.188 119.039 252.516 118.18C250.844 117.305 249.578 116.211 248.719 114.898C247.875 113.57 247.453 112.227 247.453 110.867H254.812C254.844 111.648 255.031 112.289 255.375 112.789C255.734 113.289 256.211 113.656 256.805 113.891C257.398 114.125 258.086 114.242 258.867 114.242C259.586 114.242 260.18 114.141 260.648 113.938C261.133 113.734 261.5 113.461 261.75 113.117C262 112.758 262.125 112.344 262.125 111.875ZM286.805 93.6406V99.125H271.523V93.6406H286.805ZM274.734 87.3359H282.633V110.727C282.633 111.398 282.711 111.922 282.867 112.297C283.023 112.656 283.289 112.914 283.664 113.07C284.055 113.211 284.57 113.281 285.211 113.281C285.664 113.281 286.039 113.273 286.336 113.258C286.633 113.227 286.914 113.188 287.18 113.141V118.789C286.508 119.008 285.805 119.172 285.07 119.281C284.336 119.406 283.555 119.469 282.727 119.469C281.039 119.469 279.594 119.203 278.391 118.672C277.203 118.141 276.297 117.305 275.672 116.164C275.047 115.023 274.734 113.539 274.734 111.711V87.3359ZM298.289 93.6406V119H290.367V93.6406H298.289ZM289.898 87.1016C289.898 85.9766 290.305 85.0547 291.117 84.3359C291.93 83.6172 292.984 83.2578 294.281 83.2578C295.578 83.2578 296.633 83.6172 297.445 84.3359C298.258 85.0547 298.664 85.9766 298.664 87.1016C298.664 88.2266 298.258 89.1484 297.445 89.8672C296.633 90.5859 295.578 90.9453 294.281 90.9453C292.984 90.9453 291.93 90.5859 291.117 89.8672C290.305 89.1484 289.898 88.2266 289.898 87.1016ZM310.922 99.0547V119H303.023V93.6406H310.43L310.922 99.0547ZM309.984 105.453L308.133 105.5C308.133 103.562 308.367 101.836 308.836 100.32C309.305 98.7891 309.969 97.4922 310.828 96.4297C311.688 95.3672 312.711 94.5625 313.898 94.0156C315.102 93.4531 316.438 93.1719 317.906 93.1719C319.078 93.1719 320.148 93.3438 321.117 93.6875C322.102 94.0312 322.945 94.5859 323.648 95.3516C324.367 96.1172 324.914 97.1328 325.289 98.3984C325.68 99.6484 325.875 101.195 325.875 103.039V119H317.93V103.016C317.93 102 317.789 101.227 317.508 100.695C317.227 100.148 316.82 99.7734 316.289 99.5703C315.758 99.3672 315.109 99.2656 314.344 99.2656C313.531 99.2656 312.844 99.4219 312.281 99.7344C311.719 100.047 311.266 100.484 310.922 101.047C310.594 101.594 310.352 102.242 310.195 102.992C310.055 103.742 309.984 104.562 309.984 105.453ZM346.195 93.6406H353.367V118.016C353.367 120.359 352.828 122.344 351.75 123.969C350.672 125.609 349.164 126.852 347.227 127.695C345.305 128.555 343.055 128.984 340.477 128.984C339.336 128.984 338.172 128.836 336.984 128.539C335.797 128.258 334.688 127.836 333.656 127.273C332.625 126.711 331.758 126.016 331.055 125.188L334.359 120.547C335 121.266 335.805 121.875 336.773 122.375C337.742 122.891 338.883 123.148 340.195 123.148C341.336 123.148 342.289 122.945 343.055 122.539C343.836 122.133 344.43 121.539 344.836 120.758C345.242 119.992 345.445 119.062 345.445 117.969V99.6406L346.195 93.6406ZM329.344 106.625V106.133C329.344 104.211 329.578 102.461 330.047 100.883C330.531 99.2891 331.219 97.9219 332.109 96.7812C333.016 95.625 334.109 94.7344 335.391 94.1094C336.672 93.4844 338.117 93.1719 339.727 93.1719C341.461 93.1719 342.883 93.5078 343.992 94.1797C345.117 94.8359 346.016 95.7578 346.688 96.9453C347.375 98.1328 347.906 99.5234 348.281 101.117C348.672 102.695 349 104.398 349.266 106.227V106.812C349 108.531 348.633 110.156 348.164 111.688C347.711 113.203 347.117 114.547 346.383 115.719C345.648 116.891 344.727 117.812 343.617 118.484C342.523 119.141 341.211 119.469 339.68 119.469C338.086 119.469 336.648 119.148 335.367 118.508C334.102 117.867 333.016 116.969 332.109 115.812C331.219 114.656 330.531 113.297 330.047 111.734C329.578 110.172 329.344 108.469 329.344 106.625ZM337.242 106.133V106.625C337.242 107.578 337.328 108.461 337.5 109.273C337.688 110.086 337.969 110.805 338.344 111.43C338.719 112.039 339.18 112.516 339.727 112.859C340.289 113.203 340.945 113.375 341.695 113.375C342.836 113.375 343.758 113.133 344.461 112.648C345.164 112.164 345.672 111.477 345.984 110.586C346.297 109.695 346.43 108.648 346.383 107.445V105.594C346.414 104.562 346.344 103.656 346.172 102.875C346 102.078 345.727 101.414 345.352 100.883C344.992 100.352 344.508 99.9531 343.898 99.6875C343.305 99.4062 342.586 99.2656 341.742 99.2656C341.008 99.2656 340.359 99.4375 339.797 99.7812C339.234 100.125 338.766 100.609 338.391 101.234C338.016 101.844 337.727 102.57 337.523 103.414C337.336 104.242 337.242 105.148 337.242 106.133Z" fill="black"/>
<path d="M1134 0H1348C1356.28 0 1363 6.71573 1363 15V148C1363 156.284 1356.28 163 1348 163H1134V0Z" fill="#C53362"/>
<path d="M1210.62 43.625H1286.38V119.375H1210.62V43.625Z" fill="white" fill-opacity="0.01"/>
<path d="M1276.91 72.0312V105.172C1276.91 107.787 1274.79 109.906 1272.17 109.906H1224.83C1222.21 109.906 1220.09 107.787 1220.09 105.172V57.8281C1220.09 55.2134 1222.21 53.0938 1224.83 53.0938H1261.12" stroke="white" stroke-width="7.24" stroke-linecap="round" stroke-linejoin="round"/>
<path d="M1232.72 75.1875L1248.5 87.8125L1276.91 53.0938" stroke="white" stroke-width="7.24" stroke-linecap="round" stroke-linejoin="round"/>
</svg>
