<svg width="1363" height="163" viewBox="0 0 1363 163" fill="none" xmlns="http://www.w3.org/2000/svg">
<path d="M0 15C0 6.71573 6.71573 0 15 0H37V163H15C6.71573 163 0 156.284 0 148V15Z" fill="#424242"/>
<rect width="1097" height="163" transform="translate(37)" fill="#F0F0F0"/>
<path d="M101.906 53.9219L94.3945 51.2383V48.0859L104.602 52.375V54.6367L101.906 53.9219ZM94.3945 56.1719L101.918 53.4297L104.602 52.7852V55.0352L94.3945 59.3242V56.1719ZM126.422 52.082V58.8438C126.156 59.1641 125.746 59.5117 125.191 59.8867C124.637 60.2539 123.922 60.5703 123.047 60.8359C122.172 61.1016 121.113 61.2344 119.871 61.2344C118.77 61.2344 117.766 61.0547 116.859 60.6953C115.953 60.3281 115.172 59.793 114.516 59.0898C113.867 58.3867 113.367 57.5273 113.016 56.5117C112.664 55.4883 112.488 54.3203 112.488 53.0078V51.9414C112.488 50.6289 112.656 49.4609 112.992 48.4375C113.336 47.4141 113.824 46.5508 114.457 45.8477C115.09 45.1445 115.844 44.6094 116.719 44.2422C117.594 43.875 118.566 43.6914 119.637 43.6914C121.121 43.6914 122.34 43.9336 123.293 44.418C124.246 44.8945 124.973 45.5586 125.473 46.4102C125.98 47.2539 126.293 48.2227 126.41 49.3164H123C122.914 48.7383 122.75 48.2344 122.508 47.8047C122.266 47.375 121.918 47.0391 121.465 46.7969C121.02 46.5547 120.441 46.4336 119.73 46.4336C119.145 46.4336 118.621 46.5547 118.16 46.7969C117.707 47.0312 117.324 47.3789 117.012 47.8398C116.699 48.3008 116.461 48.8711 116.297 49.5508C116.133 50.2305 116.051 51.0195 116.051 51.918V53.0078C116.051 53.8984 116.137 54.6875 116.309 55.375C116.48 56.0547 116.734 56.6289 117.07 57.0977C117.414 57.5586 117.836 57.9062 118.336 58.1406C118.836 58.375 119.418 58.4922 120.082 58.4922C120.637 58.4922 121.098 58.4453 121.465 58.3516C121.84 58.2578 122.141 58.1445 122.367 58.0117C122.602 57.8711 122.781 57.7383 122.906 57.6133V54.5898H119.695V52.082H126.422ZM128.508 54.7891V54.543C128.508 53.6133 128.641 52.7578 128.906 51.9766C129.172 51.1875 129.559 50.5039 130.066 49.9258C130.574 49.3477 131.199 48.8984 131.941 48.5781C132.684 48.25 133.535 48.0859 134.496 48.0859C135.457 48.0859 136.312 48.25 137.062 48.5781C137.812 48.8984 138.441 49.3477 138.949 49.9258C139.465 50.5039 139.855 51.1875 140.121 51.9766C140.387 52.7578 140.52 53.6133 140.52 54.543V54.7891C140.52 55.7109 140.387 56.5664 140.121 57.3555C139.855 58.1367 139.465 58.8203 138.949 59.4062C138.441 59.9844 137.816 60.4336 137.074 60.7539C136.332 61.0742 135.48 61.2344 134.52 61.2344C133.559 61.2344 132.703 61.0742 131.953 60.7539C131.211 60.4336 130.582 59.9844 130.066 59.4062C129.559 58.8203 129.172 58.1367 128.906 57.3555C128.641 56.5664 128.508 55.7109 128.508 54.7891ZM131.883 54.543V54.7891C131.883 55.3203 131.93 55.8164 132.023 56.2773C132.117 56.7383 132.266 57.1445 132.469 57.4961C132.68 57.8398 132.953 58.1094 133.289 58.3047C133.625 58.5 134.035 58.5977 134.52 58.5977C134.988 58.5977 135.391 58.5 135.727 58.3047C136.062 58.1094 136.332 57.8398 136.535 57.4961C136.738 57.1445 136.887 56.7383 136.98 56.2773C137.082 55.8164 137.133 55.3203 137.133 54.7891V54.543C137.133 54.0273 137.082 53.543 136.98 53.0898C136.887 52.6289 136.734 52.2227 136.523 51.8711C136.32 51.5117 136.051 51.2305 135.715 51.0273C135.379 50.8242 134.973 50.7227 134.496 50.7227C134.02 50.7227 133.613 50.8242 133.277 51.0273C132.949 51.2305 132.68 51.5117 132.469 51.8711C132.266 52.2227 132.117 52.6289 132.023 53.0898C131.93 53.543 131.883 54.0273 131.883 54.543ZM149.438 58.1406V52.4922C149.438 52.0859 149.371 51.7383 149.238 51.4492C149.105 51.1523 148.898 50.9219 148.617 50.7578C148.344 50.5938 147.988 50.5117 147.551 50.5117C147.176 50.5117 146.852 50.5781 146.578 50.7109C146.305 50.8359 146.094 51.0195 145.945 51.2617C145.797 51.4961 145.723 51.7734 145.723 52.0938H142.348C142.348 51.5547 142.473 51.043 142.723 50.5586C142.973 50.0742 143.336 49.6484 143.812 49.2812C144.289 48.9062 144.855 48.6133 145.512 48.4023C146.176 48.1914 146.918 48.0859 147.738 48.0859C148.723 48.0859 149.598 48.25 150.363 48.5781C151.129 48.9062 151.73 49.3984 152.168 50.0547C152.613 50.7109 152.836 51.5312 152.836 52.5156V57.9414C152.836 58.6367 152.879 59.207 152.965 59.6523C153.051 60.0898 153.176 60.4727 153.34 60.8008V61H149.93C149.766 60.6562 149.641 60.2266 149.555 59.7109C149.477 59.1875 149.438 58.6641 149.438 58.1406ZM149.883 53.2773L149.906 55.1875H148.02C147.574 55.1875 147.188 55.2383 146.859 55.3398C146.531 55.4414 146.262 55.5859 146.051 55.7734C145.84 55.9531 145.684 56.1641 145.582 56.4062C145.488 56.6484 145.441 56.9141 145.441 57.2031C145.441 57.4922 145.508 57.7539 145.641 57.9883C145.773 58.2148 145.965 58.3945 146.215 58.5273C146.465 58.6523 146.758 58.7148 147.094 58.7148C147.602 58.7148 148.043 58.6133 148.418 58.4102C148.793 58.207 149.082 57.957 149.285 57.6602C149.496 57.3633 149.605 57.082 149.613 56.8164L150.504 58.2461C150.379 58.5664 150.207 58.8984 149.988 59.2422C149.777 59.5859 149.508 59.9102 149.18 60.2148C148.852 60.5117 148.457 60.7578 147.996 60.9531C147.535 61.1406 146.988 61.2344 146.355 61.2344C145.551 61.2344 144.82 61.0742 144.164 60.7539C143.516 60.4258 143 59.9766 142.617 59.4062C142.242 58.8281 142.055 58.1719 142.055 57.4375C142.055 56.7734 142.18 56.1836 142.43 55.668C142.68 55.1523 143.047 54.7188 143.531 54.3672C144.023 54.0078 144.637 53.7383 145.371 53.5586C146.105 53.3711 146.957 53.2773 147.926 53.2773H149.883ZM159 43V61H155.613V43H159ZM169.582 43.9375H172.559L176.941 56.4648L181.324 43.9375H184.301L178.137 61H175.746L169.582 43.9375ZM167.977 43.9375H170.941L171.48 56.1484V61H167.977V43.9375ZM182.941 43.9375H185.918V61H182.402V56.1484L182.941 43.9375ZM195.633 58.1406V52.4922C195.633 52.0859 195.566 51.7383 195.434 51.4492C195.301 51.1523 195.094 50.9219 194.812 50.7578C194.539 50.5938 194.184 50.5117 193.746 50.5117C193.371 50.5117 193.047 50.5781 192.773 50.7109C192.5 50.8359 192.289 51.0195 192.141 51.2617C191.992 51.4961 191.918 51.7734 191.918 52.0938H188.543C188.543 51.5547 188.668 51.043 188.918 50.5586C189.168 50.0742 189.531 49.6484 190.008 49.2812C190.484 48.9062 191.051 48.6133 191.707 48.4023C192.371 48.1914 193.113 48.0859 193.934 48.0859C194.918 48.0859 195.793 48.25 196.559 48.5781C197.324 48.9062 197.926 49.3984 198.363 50.0547C198.809 50.7109 199.031 51.5312 199.031 52.5156V57.9414C199.031 58.6367 199.074 59.207 199.16 59.6523C199.246 60.0898 199.371 60.4727 199.535 60.8008V61H196.125C195.961 60.6562 195.836 60.2266 195.75 59.7109C195.672 59.1875 195.633 58.6641 195.633 58.1406ZM196.078 53.2773L196.102 55.1875H194.215C193.77 55.1875 193.383 55.2383 193.055 55.3398C192.727 55.4414 192.457 55.5859 192.246 55.7734C192.035 55.9531 191.879 56.1641 191.777 56.4062C191.684 56.6484 191.637 56.9141 191.637 57.2031C191.637 57.4922 191.703 57.7539 191.836 57.9883C191.969 58.2148 192.16 58.3945 192.41 58.5273C192.66 58.6523 192.953 58.7148 193.289 58.7148C193.797 58.7148 194.238 58.6133 194.613 58.4102C194.988 58.207 195.277 57.957 195.48 57.6602C195.691 57.3633 195.801 57.082 195.809 56.8164L196.699 58.2461C196.574 58.5664 196.402 58.8984 196.184 59.2422C195.973 59.5859 195.703 59.9102 195.375 60.2148C195.047 60.5117 194.652 60.7578 194.191 60.9531C193.73 61.1406 193.184 61.2344 192.551 61.2344C191.746 61.2344 191.016 61.0742 190.359 60.7539C189.711 60.4258 189.195 59.9766 188.812 59.4062C188.438 58.8281 188.25 58.1719 188.25 57.4375C188.25 56.7734 188.375 56.1836 188.625 55.668C188.875 55.1523 189.242 54.7188 189.727 54.3672C190.219 54.0078 190.832 53.7383 191.566 53.5586C192.301 53.3711 193.152 53.2773 194.121 53.2773H196.078ZM208.488 57.4961C208.488 57.2539 208.418 57.0352 208.277 56.8398C208.137 56.6445 207.875 56.4648 207.492 56.3008C207.117 56.1289 206.574 55.9727 205.863 55.832C205.223 55.6914 204.625 55.5156 204.07 55.3047C203.523 55.0859 203.047 54.8242 202.641 54.5195C202.242 54.2148 201.93 53.8555 201.703 53.4414C201.477 53.0195 201.363 52.5391 201.363 52C201.363 51.4688 201.477 50.9688 201.703 50.5C201.938 50.0312 202.27 49.6172 202.699 49.2578C203.137 48.8906 203.668 48.6055 204.293 48.4023C204.926 48.1914 205.637 48.0859 206.426 48.0859C207.527 48.0859 208.473 48.2617 209.262 48.6133C210.059 48.9648 210.668 49.4492 211.09 50.0664C211.52 50.6758 211.734 51.3711 211.734 52.1523H208.359C208.359 51.8242 208.289 51.5312 208.148 51.2734C208.016 51.0078 207.805 50.8008 207.516 50.6523C207.234 50.4961 206.867 50.418 206.414 50.418C206.039 50.418 205.715 50.4844 205.441 50.6172C205.168 50.7422 204.957 50.9141 204.809 51.1328C204.668 51.3438 204.598 51.5781 204.598 51.8359C204.598 52.0312 204.637 52.207 204.715 52.3633C204.801 52.5117 204.938 52.6484 205.125 52.7734C205.312 52.8984 205.555 53.0156 205.852 53.125C206.156 53.2266 206.531 53.3203 206.977 53.4062C207.891 53.5938 208.707 53.8398 209.426 54.1445C210.145 54.4414 210.715 54.8477 211.137 55.3633C211.559 55.8711 211.77 56.5391 211.77 57.3672C211.77 57.9297 211.645 58.4453 211.395 58.9141C211.145 59.3828 210.785 59.793 210.316 60.1445C209.848 60.4883 209.285 60.7578 208.629 60.9531C207.98 61.1406 207.25 61.2344 206.438 61.2344C205.258 61.2344 204.258 61.0234 203.438 60.6016C202.625 60.1797 202.008 59.6445 201.586 58.9961C201.172 58.3398 200.965 57.668 200.965 56.9805H204.164C204.18 57.4414 204.297 57.8125 204.516 58.0938C204.742 58.375 205.027 58.5781 205.371 58.7031C205.723 58.8281 206.102 58.8906 206.508 58.8906C206.945 58.8906 207.309 58.832 207.598 58.7148C207.887 58.5898 208.105 58.4258 208.254 58.2227C208.41 58.0117 208.488 57.7695 208.488 57.4961ZM220.172 48.3203V50.7109H212.789V48.3203H220.172ZM214.617 45.1914H217.992V57.1797C217.992 57.5469 218.039 57.8281 218.133 58.0234C218.234 58.2188 218.383 58.3555 218.578 58.4336C218.773 58.5039 219.02 58.5391 219.316 58.5391C219.527 58.5391 219.715 58.5312 219.879 58.5156C220.051 58.4922 220.195 58.4688 220.312 58.4453L220.324 60.9297C220.035 61.0234 219.723 61.0977 219.387 61.1523C219.051 61.207 218.68 61.2344 218.273 61.2344C217.531 61.2344 216.883 61.1133 216.328 60.8711C215.781 60.6211 215.359 60.2227 215.062 59.6758C214.766 59.1289 214.617 58.4102 214.617 57.5195V45.1914ZM227.93 61.2344C226.945 61.2344 226.062 61.0781 225.281 60.7656C224.5 60.4453 223.836 60.0039 223.289 59.4414C222.75 58.8789 222.336 58.2266 222.047 57.4844C221.758 56.7344 221.613 55.9375 221.613 55.0938V54.625C221.613 53.6641 221.75 52.7852 222.023 51.9883C222.297 51.1914 222.688 50.5 223.195 49.9141C223.711 49.3281 224.336 48.8789 225.07 48.5664C225.805 48.2461 226.633 48.0859 227.555 48.0859C228.453 48.0859 229.25 48.2344 229.945 48.5312C230.641 48.8281 231.223 49.25 231.691 49.7969C232.168 50.3438 232.527 51 232.77 51.7656C233.012 52.5234 233.133 53.3672 233.133 54.2969V55.7031H223.055V53.4531H229.816V53.1953C229.816 52.7266 229.73 52.3086 229.559 51.9414C229.395 51.5664 229.145 51.2695 228.809 51.0508C228.473 50.832 228.043 50.7227 227.52 50.7227C227.074 50.7227 226.691 50.8203 226.371 51.0156C226.051 51.2109 225.789 51.4844 225.586 51.8359C225.391 52.1875 225.242 52.6016 225.141 53.0781C225.047 53.5469 225 54.0625 225 54.625V55.0938C225 55.6016 225.07 56.0703 225.211 56.5C225.359 56.9297 225.566 57.3008 225.832 57.6133C226.105 57.9258 226.434 58.168 226.816 58.3398C227.207 58.5117 227.648 58.5977 228.141 58.5977C228.75 58.5977 229.316 58.4805 229.84 58.2461C230.371 58.0039 230.828 57.6406 231.211 57.1562L232.852 58.9375C232.586 59.3203 232.223 59.6875 231.762 60.0391C231.309 60.3906 230.762 60.6797 230.121 60.9062C229.48 61.125 228.75 61.2344 227.93 61.2344ZM238.43 51.0859V61H235.055V48.3203H238.23L238.43 51.0859ZM242.25 48.2383L242.191 51.3672C242.027 51.3438 241.828 51.3242 241.594 51.3086C241.367 51.2852 241.16 51.2734 240.973 51.2734C240.496 51.2734 240.082 51.3359 239.73 51.4609C239.387 51.5781 239.098 51.7539 238.863 51.9883C238.637 52.2227 238.465 52.5078 238.348 52.8438C238.238 53.1797 238.176 53.5625 238.16 53.9922L237.48 53.7812C237.48 52.9609 237.562 52.207 237.727 51.5195C237.891 50.8242 238.129 50.2188 238.441 49.7031C238.762 49.1875 239.152 48.7891 239.613 48.5078C240.074 48.2266 240.602 48.0859 241.195 48.0859C241.383 48.0859 241.574 48.1016 241.77 48.1328C241.965 48.1562 242.125 48.1914 242.25 48.2383Z" fill="#888888"/>
<path d="M99.6797 84.875H106.383L114 108.617L121.617 84.875H128.32L116.719 119H111.281L99.6797 84.875ZM95.6016 84.875H102.539L103.828 111.031V119H95.6016V84.875ZM125.461 84.875H132.422V119H124.172V111.031L125.461 84.875ZM150.492 112.625V102.172C150.492 101.453 150.391 100.836 150.188 100.32C149.984 99.8047 149.664 99.4062 149.227 99.125C148.789 98.8281 148.203 98.6797 147.469 98.6797C146.875 98.6797 146.367 98.7812 145.945 98.9844C145.523 99.1875 145.203 99.4922 144.984 99.8984C144.766 100.305 144.656 100.82 144.656 101.445H136.758C136.758 100.273 137.016 99.1875 137.531 98.1875C138.062 97.1719 138.812 96.2891 139.781 95.5391C140.766 94.7891 141.938 94.2109 143.297 93.8047C144.672 93.3828 146.203 93.1719 147.891 93.1719C149.906 93.1719 151.703 93.5078 153.281 94.1797C154.875 94.8516 156.133 95.8594 157.055 97.2031C157.977 98.5312 158.438 100.203 158.438 102.219V112.602C158.438 114.258 158.531 115.516 158.719 116.375C158.906 117.219 159.172 117.961 159.516 118.602V119H151.594C151.219 118.219 150.938 117.266 150.75 116.141C150.578 115 150.492 113.828 150.492 112.625ZM151.453 103.508L151.5 107.727H148.008C147.273 107.727 146.648 107.828 146.133 108.031C145.633 108.234 145.227 108.516 144.914 108.875C144.617 109.219 144.398 109.609 144.258 110.047C144.133 110.484 144.07 110.945 144.07 111.43C144.07 111.898 144.18 112.32 144.398 112.695C144.633 113.055 144.945 113.336 145.336 113.539C145.727 113.742 146.164 113.844 146.648 113.844C147.523 113.844 148.266 113.68 148.875 113.352C149.5 113.008 149.977 112.594 150.305 112.109C150.633 111.625 150.797 111.172 150.797 110.75L152.531 113.984C152.219 114.609 151.859 115.242 151.453 115.883C151.062 116.523 150.57 117.117 149.977 117.664C149.398 118.195 148.688 118.633 147.844 118.977C147 119.305 145.977 119.469 144.773 119.469C143.211 119.469 141.773 119.148 140.461 118.508C139.164 117.867 138.125 116.977 137.344 115.836C136.562 114.68 136.172 113.352 136.172 111.852C136.172 110.539 136.406 109.367 136.875 108.336C137.359 107.305 138.086 106.43 139.055 105.711C140.023 104.992 141.258 104.445 142.758 104.07C144.258 103.695 146.023 103.508 148.055 103.508H151.453ZM173.531 113.375C174.266 113.375 174.891 113.242 175.406 112.977C175.938 112.695 176.336 112.305 176.602 111.805C176.883 111.289 177.016 110.672 177 109.953H184.43C184.445 111.859 183.977 113.531 183.023 114.969C182.086 116.391 180.805 117.5 179.18 118.297C177.57 119.078 175.75 119.469 173.719 119.469C171.734 119.469 170 119.148 168.516 118.508C167.031 117.852 165.789 116.945 164.789 115.789C163.805 114.617 163.062 113.25 162.562 111.688C162.078 110.125 161.836 108.43 161.836 106.602V106.062C161.836 104.234 162.078 102.539 162.562 100.977C163.062 99.3984 163.805 98.0312 164.789 96.875C165.789 95.7031 167.023 94.7969 168.492 94.1562C169.977 93.5 171.703 93.1719 173.672 93.1719C175.781 93.1719 177.641 93.5703 179.25 94.3672C180.875 95.1641 182.148 96.3203 183.07 97.8359C183.992 99.3516 184.445 101.188 184.43 103.344H177C177.016 102.578 176.898 101.891 176.648 101.281C176.398 100.672 176.008 100.188 175.477 99.8281C174.961 99.4531 174.297 99.2656 173.484 99.2656C172.672 99.2656 172.016 99.4453 171.516 99.8047C171.016 100.164 170.633 100.664 170.367 101.305C170.117 101.93 169.945 102.648 169.852 103.461C169.773 104.273 169.734 105.141 169.734 106.062V106.602C169.734 107.539 169.773 108.422 169.852 109.25C169.945 110.062 170.125 110.781 170.391 111.406C170.656 112.016 171.039 112.5 171.539 112.859C172.039 113.203 172.703 113.375 173.531 113.375ZM195.539 83V119H187.641V83H195.539ZM194.602 105.453L192.75 105.5C192.75 103.719 192.969 102.078 193.406 100.578C193.844 99.0781 194.469 97.7734 195.281 96.6641C196.094 95.5547 197.07 94.6953 198.211 94.0859C199.352 93.4766 200.617 93.1719 202.008 93.1719C203.258 93.1719 204.398 93.3516 205.43 93.7109C206.477 94.0703 207.375 94.6484 208.125 95.4453C208.891 96.2422 209.477 97.2812 209.883 98.5625C210.305 99.8438 210.516 101.406 210.516 103.25V119H202.57V103.203C202.57 102.172 202.422 101.375 202.125 100.812C201.844 100.234 201.438 99.8359 200.906 99.6172C200.375 99.3828 199.727 99.2656 198.961 99.2656C198.039 99.2656 197.289 99.4219 196.711 99.7344C196.133 100.047 195.688 100.484 195.375 101.047C195.078 101.594 194.875 102.242 194.766 102.992C194.656 103.742 194.602 104.562 194.602 105.453ZM223.242 93.6406V119H215.32V93.6406H223.242ZM214.852 87.1016C214.852 85.9766 215.258 85.0547 216.07 84.3359C216.883 83.6172 217.938 83.2578 219.234 83.2578C220.531 83.2578 221.586 83.6172 222.398 84.3359C223.211 85.0547 223.617 85.9766 223.617 87.1016C223.617 88.2266 223.211 89.1484 222.398 89.8672C221.586 90.5859 220.531 90.9453 219.234 90.9453C217.938 90.9453 216.883 90.5859 216.07 89.8672C215.258 89.1484 214.852 88.2266 214.852 87.1016ZM235.875 99.0547V119H227.977V93.6406H235.383L235.875 99.0547ZM234.938 105.453L233.086 105.5C233.086 103.562 233.32 101.836 233.789 100.32C234.258 98.7891 234.922 97.4922 235.781 96.4297C236.641 95.3672 237.664 94.5625 238.852 94.0156C240.055 93.4531 241.391 93.1719 242.859 93.1719C244.031 93.1719 245.102 93.3438 246.07 93.6875C247.055 94.0312 247.898 94.5859 248.602 95.3516C249.32 96.1172 249.867 97.1328 250.242 98.3984C250.633 99.6484 250.828 101.195 250.828 103.039V119H242.883V103.016C242.883 102 242.742 101.227 242.461 100.695C242.18 100.148 241.773 99.7734 241.242 99.5703C240.711 99.3672 240.062 99.2656 239.297 99.2656C238.484 99.2656 237.797 99.4219 237.234 99.7344C236.672 100.047 236.219 100.484 235.875 101.047C235.547 101.594 235.305 102.242 235.148 102.992C235.008 103.742 234.938 104.562 234.938 105.453ZM267.492 119.469C265.43 119.469 263.586 119.148 261.961 118.508C260.336 117.852 258.961 116.953 257.836 115.812C256.727 114.672 255.875 113.359 255.281 111.875C254.703 110.391 254.414 108.82 254.414 107.164V106.273C254.414 104.414 254.672 102.695 255.188 101.117C255.703 99.5234 256.469 98.1328 257.484 96.9453C258.5 95.7578 259.773 94.8359 261.305 94.1797C262.836 93.5078 264.617 93.1719 266.648 93.1719C268.445 93.1719 270.055 93.4609 271.477 94.0391C272.898 94.6172 274.102 95.4453 275.086 96.5234C276.086 97.6016 276.844 98.9062 277.359 100.438C277.891 101.969 278.156 103.688 278.156 105.594V108.805H257.438V103.859H270.445V103.25C270.461 102.406 270.312 101.688 270 101.094C269.703 100.5 269.266 100.047 268.688 99.7344C268.109 99.4219 267.406 99.2656 266.578 99.2656C265.719 99.2656 265.008 99.4531 264.445 99.8281C263.898 100.203 263.469 100.719 263.156 101.375C262.859 102.016 262.648 102.758 262.523 103.602C262.398 104.445 262.336 105.336 262.336 106.273V107.164C262.336 108.102 262.461 108.953 262.711 109.719C262.977 110.484 263.352 111.141 263.836 111.688C264.336 112.219 264.93 112.633 265.617 112.93C266.32 113.227 267.117 113.375 268.008 113.375C269.086 113.375 270.148 113.172 271.195 112.766C272.242 112.359 273.141 111.688 273.891 110.75L277.477 115.016C276.961 115.75 276.227 116.461 275.273 117.148C274.336 117.836 273.211 118.398 271.898 118.836C270.586 119.258 269.117 119.469 267.492 119.469ZM316.242 112.672V119H298.992V112.672H316.242ZM301.922 84.875V119H293.695V84.875H301.922ZM331.617 119.469C329.555 119.469 327.711 119.148 326.086 118.508C324.461 117.852 323.086 116.953 321.961 115.812C320.852 114.672 320 113.359 319.406 111.875C318.828 110.391 318.539 108.82 318.539 107.164V106.273C318.539 104.414 318.797 102.695 319.312 101.117C319.828 99.5234 320.594 98.1328 321.609 96.9453C322.625 95.7578 323.898 94.8359 325.43 94.1797C326.961 93.5078 328.742 93.1719 330.773 93.1719C332.57 93.1719 334.18 93.4609 335.602 94.0391C337.023 94.6172 338.227 95.4453 339.211 96.5234C340.211 97.6016 340.969 98.9062 341.484 100.438C342.016 101.969 342.281 103.688 342.281 105.594V108.805H321.562V103.859H334.57V103.25C334.586 102.406 334.438 101.688 334.125 101.094C333.828 100.5 333.391 100.047 332.812 99.7344C332.234 99.4219 331.531 99.2656 330.703 99.2656C329.844 99.2656 329.133 99.4531 328.57 99.8281C328.023 100.203 327.594 100.719 327.281 101.375C326.984 102.016 326.773 102.758 326.648 103.602C326.523 104.445 326.461 105.336 326.461 106.273V107.164C326.461 108.102 326.586 108.953 326.836 109.719C327.102 110.484 327.477 111.141 327.961 111.688C328.461 112.219 329.055 112.633 329.742 112.93C330.445 113.227 331.242 113.375 332.133 113.375C333.211 113.375 334.273 113.172 335.32 112.766C336.367 112.359 337.266 111.688 338.016 110.75L341.602 115.016C341.086 115.75 340.352 116.461 339.398 117.148C338.461 117.836 337.336 118.398 336.023 118.836C334.711 119.258 333.242 119.469 331.617 119.469ZM358.664 112.625V102.172C358.664 101.453 358.562 100.836 358.359 100.32C358.156 99.8047 357.836 99.4062 357.398 99.125C356.961 98.8281 356.375 98.6797 355.641 98.6797C355.047 98.6797 354.539 98.7812 354.117 98.9844C353.695 99.1875 353.375 99.4922 353.156 99.8984C352.938 100.305 352.828 100.82 352.828 101.445H344.93C344.93 100.273 345.188 99.1875 345.703 98.1875C346.234 97.1719 346.984 96.2891 347.953 95.5391C348.938 94.7891 350.109 94.2109 351.469 93.8047C352.844 93.3828 354.375 93.1719 356.062 93.1719C358.078 93.1719 359.875 93.5078 361.453 94.1797C363.047 94.8516 364.305 95.8594 365.227 97.2031C366.148 98.5312 366.609 100.203 366.609 102.219V112.602C366.609 114.258 366.703 115.516 366.891 116.375C367.078 117.219 367.344 117.961 367.688 118.602V119H359.766C359.391 118.219 359.109 117.266 358.922 116.141C358.75 115 358.664 113.828 358.664 112.625ZM359.625 103.508L359.672 107.727H356.18C355.445 107.727 354.82 107.828 354.305 108.031C353.805 108.234 353.398 108.516 353.086 108.875C352.789 109.219 352.57 109.609 352.43 110.047C352.305 110.484 352.242 110.945 352.242 111.43C352.242 111.898 352.352 112.32 352.57 112.695C352.805 113.055 353.117 113.336 353.508 113.539C353.898 113.742 354.336 113.844 354.82 113.844C355.695 113.844 356.438 113.68 357.047 113.352C357.672 113.008 358.148 112.594 358.477 112.109C358.805 111.625 358.969 111.172 358.969 110.75L360.703 113.984C360.391 114.609 360.031 115.242 359.625 115.883C359.234 116.523 358.742 117.117 358.148 117.664C357.57 118.195 356.859 118.633 356.016 118.977C355.172 119.305 354.148 119.469 352.945 119.469C351.383 119.469 349.945 119.148 348.633 118.508C347.336 117.867 346.297 116.977 345.516 115.836C344.734 114.68 344.344 113.352 344.344 111.852C344.344 110.539 344.578 109.367 345.047 108.336C345.531 107.305 346.258 106.43 347.227 105.711C348.195 104.992 349.43 104.445 350.93 104.07C352.43 103.695 354.195 103.508 356.227 103.508H359.625ZM378.961 99.9219V119H371.062V93.6406H378.445L378.961 99.9219ZM386.461 93.4531L386.32 100.789C386.008 100.758 385.586 100.719 385.055 100.672C384.523 100.625 384.078 100.602 383.719 100.602C382.797 100.602 382 100.711 381.328 100.93C380.672 101.133 380.125 101.445 379.688 101.867C379.266 102.273 378.953 102.789 378.75 103.414C378.562 104.039 378.477 104.766 378.492 105.594L377.062 104.656C377.062 102.953 377.227 101.406 377.555 100.016C377.898 98.6094 378.383 97.3984 379.008 96.3828C379.633 95.3516 380.391 94.5625 381.281 94.0156C382.172 93.4531 383.172 93.1719 384.281 93.1719C384.672 93.1719 385.055 93.1953 385.43 93.2422C385.82 93.2891 386.164 93.3594 386.461 93.4531ZM396.938 99.0547V119H389.039V93.6406H396.445L396.938 99.0547ZM396 105.453L394.148 105.5C394.148 103.562 394.383 101.836 394.852 100.32C395.32 98.7891 395.984 97.4922 396.844 96.4297C397.703 95.3672 398.727 94.5625 399.914 94.0156C401.117 93.4531 402.453 93.1719 403.922 93.1719C405.094 93.1719 406.164 93.3438 407.133 93.6875C408.117 94.0312 408.961 94.5859 409.664 95.3516C410.383 96.1172 410.93 97.1328 411.305 98.3984C411.695 99.6484 411.891 101.195 411.891 103.039V119H403.945V103.016C403.945 102 403.805 101.227 403.523 100.695C403.242 100.148 402.836 99.7734 402.305 99.5703C401.773 99.3672 401.125 99.2656 400.359 99.2656C399.547 99.2656 398.859 99.4219 398.297 99.7344C397.734 100.047 397.281 100.484 396.938 101.047C396.609 101.594 396.367 102.242 396.211 102.992C396.07 103.742 396 104.562 396 105.453ZM424.617 93.6406V119H416.695V93.6406H424.617ZM416.227 87.1016C416.227 85.9766 416.633 85.0547 417.445 84.3359C418.258 83.6172 419.312 83.2578 420.609 83.2578C421.906 83.2578 422.961 83.6172 423.773 84.3359C424.586 85.0547 424.992 85.9766 424.992 87.1016C424.992 88.2266 424.586 89.1484 423.773 89.8672C422.961 90.5859 421.906 90.9453 420.609 90.9453C419.312 90.9453 418.258 90.5859 417.445 89.8672C416.633 89.1484 416.227 88.2266 416.227 87.1016ZM437.25 99.0547V119H429.352V93.6406H436.758L437.25 99.0547ZM436.312 105.453L434.461 105.5C434.461 103.562 434.695 101.836 435.164 100.32C435.633 98.7891 436.297 97.4922 437.156 96.4297C438.016 95.3672 439.039 94.5625 440.227 94.0156C441.43 93.4531 442.766 93.1719 444.234 93.1719C445.406 93.1719 446.477 93.3438 447.445 93.6875C448.43 94.0312 449.273 94.5859 449.977 95.3516C450.695 96.1172 451.242 97.1328 451.617 98.3984C452.008 99.6484 452.203 101.195 452.203 103.039V119H444.258V103.016C444.258 102 444.117 101.227 443.836 100.695C443.555 100.148 443.148 99.7734 442.617 99.5703C442.086 99.3672 441.438 99.2656 440.672 99.2656C439.859 99.2656 439.172 99.4219 438.609 99.7344C438.047 100.047 437.594 100.484 437.25 101.047C436.922 101.594 436.68 102.242 436.523 102.992C436.383 103.742 436.312 104.562 436.312 105.453ZM472.523 93.6406H479.695V118.016C479.695 120.359 479.156 122.344 478.078 123.969C477 125.609 475.492 126.852 473.555 127.695C471.633 128.555 469.383 128.984 466.805 128.984C465.664 128.984 464.5 128.836 463.312 128.539C462.125 128.258 461.016 127.836 459.984 127.273C458.953 126.711 458.086 126.016 457.383 125.188L460.688 120.547C461.328 121.266 462.133 121.875 463.102 122.375C464.07 122.891 465.211 123.148 466.523 123.148C467.664 123.148 468.617 122.945 469.383 122.539C470.164 122.133 470.758 121.539 471.164 120.758C471.57 119.992 471.773 119.062 471.773 117.969V99.6406L472.523 93.6406ZM455.672 106.625V106.133C455.672 104.211 455.906 102.461 456.375 100.883C456.859 99.2891 457.547 97.9219 458.438 96.7812C459.344 95.625 460.438 94.7344 461.719 94.1094C463 93.4844 464.445 93.1719 466.055 93.1719C467.789 93.1719 469.211 93.5078 470.32 94.1797C471.445 94.8359 472.344 95.7578 473.016 96.9453C473.703 98.1328 474.234 99.5234 474.609 101.117C475 102.695 475.328 104.398 475.594 106.227V106.812C475.328 108.531 474.961 110.156 474.492 111.688C474.039 113.203 473.445 114.547 472.711 115.719C471.977 116.891 471.055 117.812 469.945 118.484C468.852 119.141 467.539 119.469 466.008 119.469C464.414 119.469 462.977 119.148 461.695 118.508C460.43 117.867 459.344 116.969 458.438 115.812C457.547 114.656 456.859 113.297 456.375 111.734C455.906 110.172 455.672 108.469 455.672 106.625ZM463.57 106.133V106.625C463.57 107.578 463.656 108.461 463.828 109.273C464.016 110.086 464.297 110.805 464.672 111.43C465.047 112.039 465.508 112.516 466.055 112.859C466.617 113.203 467.273 113.375 468.023 113.375C469.164 113.375 470.086 113.133 470.789 112.648C471.492 112.164 472 111.477 472.312 110.586C472.625 109.695 472.758 108.648 472.711 107.445V105.594C472.742 104.562 472.672 103.656 472.5 102.875C472.328 102.078 472.055 101.414 471.68 100.883C471.32 100.352 470.836 99.9531 470.227 99.6875C469.633 99.4062 468.914 99.2656 468.07 99.2656C467.336 99.2656 466.688 99.4375 466.125 99.7812C465.562 100.125 465.094 100.609 464.719 101.234C464.344 101.844 464.055 102.57 463.852 103.414C463.664 104.242 463.57 105.148 463.57 106.133Z" fill="black"/>
<path d="M1134 0H1348C1356.28 0 1363 6.71573 1363 15V148C1363 156.284 1356.28 163 1348 163H1134V0Z" fill="#C53362"/>
<mask id="path-5-outside-1_3_82" maskUnits="userSpaceOnUse" x="1212.5" y="43.5" width="72" height="76" fill="black">
<rect fill="white" x="1212.5" y="43.5" width="72" height="76"/>
<path d="M1257.78 110.795L1258.17 117.033C1258.2 117.55 1257.82 118.005 1257.3 118.082C1255.41 118.359 1253.48 118.5 1251.56 118.5C1249.65 118.5 1247.72 118.359 1245.83 118.082C1245.3 118.005 1244.93 117.55 1244.96 117.033L1245.29 111.677C1241.26 110.891 1237.48 109.371 1234.05 107.148L1230.39 111.163C1230.04 111.55 1229.44 111.612 1229.01 111.305C1225.91 109.088 1223.19 106.436 1220.9 103.423C1220.59 103.006 1220.65 102.425 1221.05 102.081L1225.18 98.5235C1222.89 95.1861 1221.33 91.5191 1220.52 87.5987L1215.01 87.921C1214.48 87.9525 1214.01 87.5844 1213.93 87.0723C1213.64 85.2408 1213.5 83.3658 1213.5 81.4989C1213.5 79.6323 1213.64 77.7573 1213.93 75.9255C1214.01 75.4134 1214.48 75.037 1215.01 75.0768L1220.52 75.3991C1221.33 71.48 1222.89 67.8127 1225.18 64.4753L1221.05 60.9166C1220.65 60.5732 1220.59 59.9915 1220.9 59.5751C1223.18 56.565 1225.91 53.9132 1229.01 51.6928C1229.44 51.3858 1230.04 51.448 1230.39 51.8344L1234.05 55.8498C1237.51 53.619 1241.42 52.0541 1245.48 51.2839L1245.04 45.9743C1245 45.4495 1245.38 44.9818 1245.92 44.9043C1249.64 44.3652 1253.49 44.3652 1257.21 44.9043C1257.75 44.9818 1258.13 45.4496 1258.09 45.9743L1257.57 52.1893C1257.52 52.7401 1257.02 53.1503 1256.46 53.105C1255.89 53.0601 1255.47 52.5776 1255.52 52.0273L1255.96 46.7572C1253.05 46.4128 1250.08 46.4128 1247.17 46.7572L1247.61 52.0268C1247.66 52.546 1247.28 53.0109 1246.75 53.0949C1242.36 53.7915 1238.12 55.4843 1234.48 57.9899C1234.05 58.2849 1233.46 58.2181 1233.11 57.8373L1229.48 53.8537C1227.1 55.6511 1224.97 57.7247 1223.12 60.034L1227.22 63.565C1227.61 63.9035 1227.68 64.4749 1227.38 64.8912C1224.81 68.4236 1223.12 72.3693 1222.38 76.6188C1222.29 77.1218 1221.82 77.4795 1221.3 77.4485L1215.84 77.1288C1215.65 78.5723 1215.56 80.0384 1215.56 81.499C1215.56 82.9599 1215.65 84.4259 1215.84 85.8692L1221.3 85.5495C1221.82 85.5157 1222.29 85.8767 1222.38 86.3793C1223.12 90.6301 1224.81 94.5761 1227.38 98.1078C1227.68 98.5242 1227.61 99.0954 1227.22 99.434L1223.12 102.964C1224.97 105.276 1227.11 107.349 1229.48 109.144L1233.11 105.161C1233.46 104.779 1234.05 104.713 1234.48 105.008C1238.11 107.508 1242.17 109.143 1246.54 109.869C1247.06 109.955 1247.43 110.406 1247.4 110.915L1247.07 116.229C1250.04 116.589 1253.09 116.589 1256.06 116.229L1255.73 110.915C1255.7 110.363 1256.13 109.89 1256.7 109.857C1257.26 109.827 1257.75 110.244 1257.78 110.795ZM1279.87 67.5195C1281.52 67.5195 1282.86 68.8234 1282.86 70.4259C1282.86 72.0285 1281.52 73.3323 1279.87 73.3323C1279.49 73.3323 1279.13 73.2564 1278.8 73.131L1276 75.947C1275.8 76.142 1275.54 76.2524 1275.26 76.2524H1260.97C1260.4 76.2524 1259.94 75.8048 1259.94 75.2524C1259.94 74.7 1260.4 74.2524 1260.97 74.2524H1274.82L1277.25 71.8052C1277.02 71.3928 1276.88 70.9277 1276.88 70.4261C1276.88 68.8232 1278.22 67.5195 1279.87 67.5195ZM1278.93 70.4259C1278.93 70.9256 1279.35 71.3321 1279.87 71.3321C1280.38 71.3321 1280.8 70.9256 1280.8 70.4259C1280.8 69.9263 1280.38 69.5197 1279.87 69.5197C1279.35 69.5196 1278.93 69.9261 1278.93 70.4259ZM1268.7 64.8892L1272.51 59.5583C1272.12 59.0691 1271.89 58.4651 1271.89 57.8029C1271.89 56.2003 1273.23 54.8965 1274.87 54.8965C1276.52 54.8965 1277.86 56.2003 1277.86 57.8029C1277.86 59.4054 1276.52 60.7092 1274.87 60.7092C1274.66 60.7092 1274.45 60.6835 1274.24 60.6403L1270.08 66.4604C1269.89 66.729 1269.57 66.8895 1269.23 66.8895H1257.92C1257.35 66.8895 1256.89 66.4419 1256.89 65.8895C1256.89 65.3371 1257.35 64.8895 1257.92 64.8895H1268.7V64.8892ZM1273.94 57.8029C1273.94 58.3025 1274.36 58.7091 1274.87 58.7091C1275.39 58.7091 1275.81 58.3025 1275.81 57.8029C1275.81 57.3032 1275.39 56.8967 1274.87 56.8967C1274.36 56.8965 1273.94 57.3031 1273.94 57.8029ZM1277.62 105.196C1277.62 106.798 1276.28 108.102 1274.63 108.102C1272.98 108.102 1271.64 106.798 1271.64 105.196C1271.64 104.412 1271.96 103.703 1272.48 103.179L1268.69 97.8852H1257.92C1257.35 97.8852 1256.89 97.4376 1256.89 96.8852C1256.89 96.3328 1257.35 95.8852 1257.92 95.8852H1269.23C1269.57 95.8852 1269.89 96.0456 1270.08 96.3143L1274.37 102.315C1274.46 102.307 1274.54 102.289 1274.63 102.289C1276.28 102.289 1277.62 103.593 1277.62 105.196ZM1275.56 105.196C1275.56 104.696 1275.14 104.289 1274.63 104.289C1274.11 104.289 1273.69 104.696 1273.69 105.196C1273.69 105.695 1274.11 106.102 1274.63 106.102C1275.14 106.102 1275.56 105.695 1275.56 105.196ZM1282.61 92.8506C1282.61 94.4532 1281.27 95.757 1279.62 95.757C1277.97 95.757 1276.63 94.4532 1276.63 92.8506C1276.63 92.2267 1276.84 91.6518 1277.18 91.1777L1274.82 88.8004H1260.97C1260.4 88.8004 1259.94 88.3528 1259.94 87.8004C1259.94 87.248 1260.4 86.8004 1260.97 86.8004H1275.26C1275.54 86.8004 1275.8 86.9109 1276 87.1058L1278.91 90.0363C1279.14 89.9817 1279.37 89.9444 1279.62 89.9444C1281.27 89.9443 1282.61 91.2479 1282.61 92.8506ZM1280.55 92.8506C1280.55 92.351 1280.13 91.9444 1279.62 91.9444C1279.11 91.9444 1278.69 92.351 1278.69 92.8506C1278.69 93.3503 1279.11 93.7569 1279.62 93.7569C1280.13 93.7569 1280.55 93.3503 1280.55 92.8506ZM1283.5 81.5261C1283.5 83.1286 1282.16 84.4324 1280.51 84.4324C1279.22 84.4324 1278.14 83.6352 1277.71 82.5258H1255.16V100.204C1255.16 103.826 1252.13 106.773 1248.41 106.773C1245.68 106.773 1243.27 105.218 1242.21 102.835C1242.17 102.836 1242.13 102.837 1242.08 102.837C1238.36 102.837 1235.33 99.8896 1235.33 96.2674C1235.33 96.0939 1235.33 95.9203 1235.35 95.7475C1233.74 95.4353 1232.22 94.6326 1230.98 93.4249C1229.39 91.8756 1228.51 89.8161 1228.51 87.6253C1228.51 85.4345 1229.39 83.3749 1230.98 81.826C1231.1 81.7098 1231.23 81.6079 1231.36 81.4992C1231.23 81.3903 1231.1 81.2884 1230.98 81.1724C1229.39 79.6232 1228.51 77.5636 1228.51 75.3731C1228.51 73.1823 1229.39 71.1227 1230.98 69.5735C1232.22 68.3658 1233.74 67.563 1235.35 67.2509C1235.33 67.078 1235.33 66.9046 1235.33 66.731C1235.33 63.1085 1238.36 60.1615 1242.08 60.1615C1242.13 60.1615 1242.17 60.1618 1242.21 60.1628C1243.27 57.7799 1245.68 56.2252 1248.41 56.2252C1252.13 56.2252 1255.16 59.1721 1255.16 62.7944V80.5259H1277.71C1278.14 79.4168 1279.22 78.62 1280.51 78.62C1282.16 78.6198 1283.5 79.9235 1283.5 81.5261ZM1232.44 79.7581C1232.72 80.0356 1233.05 80.2792 1233.39 80.499H1253.11V62.7941C1253.11 60.2745 1251 58.225 1248.41 58.225C1246.68 58.225 1245.14 59.1203 1244.32 60.5297C1245.15 60.813 1245.92 61.2544 1246.59 61.8364C1246.6 61.8432 1246.6 61.8529 1246.61 61.8598C1246.99 61.6858 1247.42 61.5815 1247.87 61.5815C1249.51 61.5815 1250.86 62.8853 1250.86 64.4874C1250.86 66.09 1249.51 67.3938 1247.87 67.3938C1246.22 67.3938 1244.88 66.09 1244.88 64.4874C1244.88 64.0541 1244.98 63.6465 1245.16 63.2768C1244.3 62.5582 1243.22 62.1612 1242.08 62.1612C1239.49 62.1612 1237.38 64.2111 1237.38 66.7307C1237.38 66.8749 1237.4 67.0183 1237.41 67.1615C1238.63 67.284 1239.8 67.6579 1240.85 68.27C1241.31 67.9875 1241.85 67.8176 1242.43 67.8176C1244.08 67.8176 1245.42 69.1214 1245.42 70.7239C1245.42 72.3262 1244.08 73.6299 1242.43 73.6299C1240.78 73.6299 1239.44 72.3261 1239.44 70.7239C1239.44 70.43 1239.5 70.1516 1239.58 69.8839C1238.66 69.388 1237.63 69.1172 1236.55 69.1139C1235.06 69.1935 1233.6 69.857 1232.44 70.9873C1231.23 72.1588 1230.57 73.7162 1230.57 75.3728C1230.57 77.0293 1231.23 78.5866 1232.44 79.7581ZM1241.5 70.7241C1241.5 71.2237 1241.92 71.63 1242.43 71.63C1242.95 71.63 1243.36 71.2237 1243.36 70.7241C1243.36 70.2244 1242.95 69.8179 1242.43 69.8179C1241.92 69.8177 1241.5 70.2243 1241.5 70.7241ZM1247.87 65.3938C1248.38 65.3938 1248.8 64.9872 1248.8 64.4876C1248.8 63.9879 1248.38 63.5816 1247.87 63.5816C1247.35 63.5816 1246.93 63.9879 1246.93 64.4876C1246.93 64.9872 1247.35 65.3938 1247.87 65.3938ZM1253.11 100.204V82.499H1233.37C1233.03 82.7166 1232.72 82.9651 1232.44 83.2399C1231.23 84.4112 1230.57 85.9685 1230.57 87.6251C1230.57 89.2817 1231.23 90.8391 1232.44 92.0106C1233.6 93.1409 1235.06 93.8044 1236.55 93.884C1237.61 93.8807 1238.63 93.62 1239.54 93.1388C1239.48 92.9112 1239.44 92.6768 1239.44 92.4315C1239.44 90.8289 1240.78 89.5251 1242.43 89.5251C1244.08 89.5251 1245.42 90.8289 1245.42 92.4315C1245.42 94.0341 1244.08 95.3379 1242.43 95.3379C1241.79 95.3379 1241.2 95.1364 1240.71 94.8008C1239.7 95.3682 1238.58 95.7192 1237.41 95.8365C1237.4 95.9797 1237.38 96.1231 1237.38 96.2674C1237.38 98.787 1239.49 100.836 1242.08 100.836C1243.19 100.836 1244.26 100.455 1245.1 99.7652C1244.96 99.4261 1244.88 99.0564 1244.88 98.6677C1244.88 97.0652 1246.22 95.7614 1247.87 95.7614C1249.51 95.7614 1250.86 97.0652 1250.86 98.6677C1250.86 100.27 1249.51 101.574 1247.87 101.574C1247.37 101.574 1246.91 101.445 1246.5 101.236C1245.85 101.779 1245.11 102.198 1244.32 102.468C1245.14 103.878 1246.68 104.773 1248.41 104.773C1251 104.773 1253.11 102.724 1253.11 100.204ZM1247.87 99.5741C1248.38 99.5741 1248.8 99.1675 1248.8 98.6679C1248.8 98.1682 1248.38 97.7617 1247.87 97.7617C1247.35 97.7617 1246.93 98.1682 1246.93 98.6679C1246.93 99.1675 1247.35 99.5741 1247.87 99.5741ZM1242.43 93.3379C1242.95 93.3379 1243.36 92.9313 1243.36 92.4316C1243.36 91.932 1242.95 91.5254 1242.43 91.5254C1241.92 91.5254 1241.5 91.932 1241.5 92.4316C1241.5 92.5993 1241.55 92.7544 1241.63 92.8892C1241.65 92.9087 1241.67 92.9252 1241.68 92.9463C1241.7 92.9687 1241.71 92.9933 1241.73 93.0166C1241.9 93.2114 1242.15 93.3379 1242.43 93.3379ZM1281.44 81.5261C1281.44 81.0264 1281.02 80.6198 1280.51 80.6198C1280 80.6198 1279.58 81.0264 1279.58 81.5261C1279.58 82.0257 1280 82.4323 1280.51 82.4323C1281.02 82.4323 1281.44 82.0257 1281.44 81.5261Z"/>
</mask>
<path d="M1257.78 110.795L1258.17 117.033C1258.2 117.55 1257.82 118.005 1257.3 118.082C1255.41 118.359 1253.48 118.5 1251.56 118.5C1249.65 118.5 1247.72 118.359 1245.83 118.082C1245.3 118.005 1244.93 117.55 1244.96 117.033L1245.29 111.677C1241.26 110.891 1237.48 109.371 1234.05 107.148L1230.39 111.163C1230.04 111.55 1229.44 111.612 1229.01 111.305C1225.91 109.088 1223.19 106.436 1220.9 103.423C1220.59 103.006 1220.65 102.425 1221.05 102.081L1225.18 98.5235C1222.89 95.1861 1221.33 91.5191 1220.52 87.5987L1215.01 87.921C1214.48 87.9525 1214.01 87.5844 1213.93 87.0723C1213.64 85.2408 1213.5 83.3658 1213.5 81.4989C1213.5 79.6323 1213.64 77.7573 1213.93 75.9255C1214.01 75.4134 1214.48 75.037 1215.01 75.0768L1220.52 75.3991C1221.33 71.48 1222.89 67.8127 1225.18 64.4753L1221.05 60.9166C1220.65 60.5732 1220.59 59.9915 1220.9 59.5751C1223.18 56.565 1225.91 53.9132 1229.01 51.6928C1229.44 51.3858 1230.04 51.448 1230.39 51.8344L1234.05 55.8498C1237.51 53.619 1241.42 52.0541 1245.48 51.2839L1245.04 45.9743C1245 45.4495 1245.38 44.9818 1245.92 44.9043C1249.64 44.3652 1253.49 44.3652 1257.21 44.9043C1257.75 44.9818 1258.13 45.4496 1258.09 45.9743L1257.57 52.1893C1257.52 52.7401 1257.02 53.1503 1256.46 53.105C1255.89 53.0601 1255.47 52.5776 1255.52 52.0273L1255.96 46.7572C1253.05 46.4128 1250.08 46.4128 1247.17 46.7572L1247.61 52.0268C1247.66 52.546 1247.28 53.0109 1246.75 53.0949C1242.36 53.7915 1238.12 55.4843 1234.48 57.9899C1234.05 58.2849 1233.46 58.2181 1233.11 57.8373L1229.48 53.8537C1227.1 55.6511 1224.97 57.7247 1223.12 60.034L1227.22 63.565C1227.61 63.9035 1227.68 64.4749 1227.38 64.8912C1224.81 68.4236 1223.12 72.3693 1222.38 76.6188C1222.29 77.1218 1221.82 77.4795 1221.3 77.4485L1215.84 77.1288C1215.65 78.5723 1215.56 80.0384 1215.56 81.499C1215.56 82.9599 1215.65 84.4259 1215.84 85.8692L1221.3 85.5495C1221.82 85.5157 1222.29 85.8767 1222.38 86.3793C1223.12 90.6301 1224.81 94.5761 1227.38 98.1078C1227.68 98.5242 1227.61 99.0954 1227.22 99.434L1223.12 102.964C1224.97 105.276 1227.11 107.349 1229.48 109.144L1233.11 105.161C1233.46 104.779 1234.05 104.713 1234.48 105.008C1238.11 107.508 1242.17 109.143 1246.54 109.869C1247.06 109.955 1247.43 110.406 1247.4 110.915L1247.07 116.229C1250.04 116.589 1253.09 116.589 1256.06 116.229L1255.73 110.915C1255.7 110.363 1256.13 109.89 1256.7 109.857C1257.26 109.827 1257.75 110.244 1257.78 110.795ZM1279.87 67.5195C1281.52 67.5195 1282.86 68.8234 1282.86 70.4259C1282.86 72.0285 1281.52 73.3323 1279.87 73.3323C1279.49 73.3323 1279.13 73.2564 1278.8 73.131L1276 75.947C1275.8 76.142 1275.54 76.2524 1275.26 76.2524H1260.97C1260.4 76.2524 1259.94 75.8048 1259.94 75.2524C1259.94 74.7 1260.4 74.2524 1260.97 74.2524H1274.82L1277.25 71.8052C1277.02 71.3928 1276.88 70.9277 1276.88 70.4261C1276.88 68.8232 1278.22 67.5195 1279.87 67.5195ZM1278.93 70.4259C1278.93 70.9256 1279.35 71.3321 1279.87 71.3321C1280.38 71.3321 1280.8 70.9256 1280.8 70.4259C1280.8 69.9263 1280.38 69.5197 1279.87 69.5197C1279.35 69.5196 1278.93 69.9261 1278.93 70.4259ZM1268.7 64.8892L1272.51 59.5583C1272.12 59.0691 1271.89 58.4651 1271.89 57.8029C1271.89 56.2003 1273.23 54.8965 1274.87 54.8965C1276.52 54.8965 1277.86 56.2003 1277.86 57.8029C1277.86 59.4054 1276.52 60.7092 1274.87 60.7092C1274.66 60.7092 1274.45 60.6835 1274.24 60.6403L1270.08 66.4604C1269.89 66.729 1269.57 66.8895 1269.23 66.8895H1257.92C1257.35 66.8895 1256.89 66.4419 1256.89 65.8895C1256.89 65.3371 1257.35 64.8895 1257.92 64.8895H1268.7V64.8892ZM1273.94 57.8029C1273.94 58.3025 1274.36 58.7091 1274.87 58.7091C1275.39 58.7091 1275.81 58.3025 1275.81 57.8029C1275.81 57.3032 1275.39 56.8967 1274.87 56.8967C1274.36 56.8965 1273.94 57.3031 1273.94 57.8029ZM1277.62 105.196C1277.62 106.798 1276.28 108.102 1274.63 108.102C1272.98 108.102 1271.64 106.798 1271.64 105.196C1271.64 104.412 1271.96 103.703 1272.48 103.179L1268.69 97.8852H1257.92C1257.35 97.8852 1256.89 97.4376 1256.89 96.8852C1256.89 96.3328 1257.35 95.8852 1257.92 95.8852H1269.23C1269.57 95.8852 1269.89 96.0456 1270.08 96.3143L1274.37 102.315C1274.46 102.307 1274.54 102.289 1274.63 102.289C1276.28 102.289 1277.62 103.593 1277.62 105.196ZM1275.56 105.196C1275.56 104.696 1275.14 104.289 1274.63 104.289C1274.11 104.289 1273.69 104.696 1273.69 105.196C1273.69 105.695 1274.11 106.102 1274.63 106.102C1275.14 106.102 1275.56 105.695 1275.56 105.196ZM1282.61 92.8506C1282.61 94.4532 1281.27 95.757 1279.62 95.757C1277.97 95.757 1276.63 94.4532 1276.63 92.8506C1276.63 92.2267 1276.84 91.6518 1277.18 91.1777L1274.82 88.8004H1260.97C1260.4 88.8004 1259.94 88.3528 1259.94 87.8004C1259.94 87.248 1260.4 86.8004 1260.97 86.8004H1275.26C1275.54 86.8004 1275.8 86.9109 1276 87.1058L1278.91 90.0363C1279.14 89.9817 1279.37 89.9444 1279.62 89.9444C1281.27 89.9443 1282.61 91.2479 1282.61 92.8506ZM1280.55 92.8506C1280.55 92.351 1280.13 91.9444 1279.62 91.9444C1279.11 91.9444 1278.69 92.351 1278.69 92.8506C1278.69 93.3503 1279.11 93.7569 1279.62 93.7569C1280.13 93.7569 1280.55 93.3503 1280.55 92.8506ZM1283.5 81.5261C1283.5 83.1286 1282.16 84.4324 1280.51 84.4324C1279.22 84.4324 1278.14 83.6352 1277.71 82.5258H1255.16V100.204C1255.16 103.826 1252.13 106.773 1248.41 106.773C1245.68 106.773 1243.27 105.218 1242.21 102.835C1242.17 102.836 1242.13 102.837 1242.08 102.837C1238.36 102.837 1235.33 99.8896 1235.33 96.2674C1235.33 96.0939 1235.33 95.9203 1235.35 95.7475C1233.74 95.4353 1232.22 94.6326 1230.98 93.4249C1229.39 91.8756 1228.51 89.8161 1228.51 87.6253C1228.51 85.4345 1229.39 83.3749 1230.98 81.826C1231.1 81.7098 1231.23 81.6079 1231.36 81.4992C1231.23 81.3903 1231.1 81.2884 1230.98 81.1724C1229.39 79.6232 1228.51 77.5636 1228.51 75.3731C1228.51 73.1823 1229.39 71.1227 1230.98 69.5735C1232.22 68.3658 1233.74 67.563 1235.35 67.2509C1235.33 67.078 1235.33 66.9046 1235.33 66.731C1235.33 63.1085 1238.36 60.1615 1242.08 60.1615C1242.13 60.1615 1242.17 60.1618 1242.21 60.1628C1243.27 57.7799 1245.68 56.2252 1248.41 56.2252C1252.13 56.2252 1255.16 59.1721 1255.16 62.7944V80.5259H1277.71C1278.14 79.4168 1279.22 78.62 1280.51 78.62C1282.16 78.6198 1283.5 79.9235 1283.5 81.5261ZM1232.44 79.7581C1232.72 80.0356 1233.05 80.2792 1233.39 80.499H1253.11V62.7941C1253.11 60.2745 1251 58.225 1248.41 58.225C1246.68 58.225 1245.14 59.1203 1244.32 60.5297C1245.15 60.813 1245.92 61.2544 1246.59 61.8364C1246.6 61.8432 1246.6 61.8529 1246.61 61.8598C1246.99 61.6858 1247.42 61.5815 1247.87 61.5815C1249.51 61.5815 1250.86 62.8853 1250.86 64.4874C1250.86 66.09 1249.51 67.3938 1247.87 67.3938C1246.22 67.3938 1244.88 66.09 1244.88 64.4874C1244.88 64.0541 1244.98 63.6465 1245.16 63.2768C1244.3 62.5582 1243.22 62.1612 1242.08 62.1612C1239.49 62.1612 1237.38 64.2111 1237.38 66.7307C1237.38 66.8749 1237.4 67.0183 1237.41 67.1615C1238.63 67.284 1239.8 67.6579 1240.85 68.27C1241.31 67.9875 1241.85 67.8176 1242.43 67.8176C1244.08 67.8176 1245.42 69.1214 1245.42 70.7239C1245.42 72.3262 1244.08 73.6299 1242.43 73.6299C1240.78 73.6299 1239.44 72.3261 1239.44 70.7239C1239.44 70.43 1239.5 70.1516 1239.58 69.8839C1238.66 69.388 1237.63 69.1172 1236.55 69.1139C1235.06 69.1935 1233.6 69.857 1232.44 70.9873C1231.23 72.1588 1230.57 73.7162 1230.57 75.3728C1230.57 77.0293 1231.23 78.5866 1232.44 79.7581ZM1241.5 70.7241C1241.5 71.2237 1241.92 71.63 1242.43 71.63C1242.95 71.63 1243.36 71.2237 1243.36 70.7241C1243.36 70.2244 1242.95 69.8179 1242.43 69.8179C1241.92 69.8177 1241.5 70.2243 1241.5 70.7241ZM1247.87 65.3938C1248.38 65.3938 1248.8 64.9872 1248.8 64.4876C1248.8 63.9879 1248.38 63.5816 1247.87 63.5816C1247.35 63.5816 1246.93 63.9879 1246.93 64.4876C1246.93 64.9872 1247.35 65.3938 1247.87 65.3938ZM1253.11 100.204V82.499H1233.37C1233.03 82.7166 1232.72 82.9651 1232.44 83.2399C1231.23 84.4112 1230.57 85.9685 1230.57 87.6251C1230.57 89.2817 1231.23 90.8391 1232.44 92.0106C1233.6 93.1409 1235.06 93.8044 1236.55 93.884C1237.61 93.8807 1238.63 93.62 1239.54 93.1388C1239.48 92.9112 1239.44 92.6768 1239.44 92.4315C1239.44 90.8289 1240.78 89.5251 1242.43 89.5251C1244.08 89.5251 1245.42 90.8289 1245.42 92.4315C1245.42 94.0341 1244.08 95.3379 1242.43 95.3379C1241.79 95.3379 1241.2 95.1364 1240.71 94.8008C1239.7 95.3682 1238.58 95.7192 1237.41 95.8365C1237.4 95.9797 1237.38 96.1231 1237.38 96.2674C1237.38 98.787 1239.49 100.836 1242.08 100.836C1243.19 100.836 1244.26 100.455 1245.1 99.7652C1244.96 99.4261 1244.88 99.0564 1244.88 98.6677C1244.88 97.0652 1246.22 95.7614 1247.87 95.7614C1249.51 95.7614 1250.86 97.0652 1250.86 98.6677C1250.86 100.27 1249.51 101.574 1247.87 101.574C1247.37 101.574 1246.91 101.445 1246.5 101.236C1245.85 101.779 1245.11 102.198 1244.32 102.468C1245.14 103.878 1246.68 104.773 1248.41 104.773C1251 104.773 1253.11 102.724 1253.11 100.204ZM1247.87 99.5741C1248.38 99.5741 1248.8 99.1675 1248.8 98.6679C1248.8 98.1682 1248.38 97.7617 1247.87 97.7617C1247.35 97.7617 1246.93 98.1682 1246.93 98.6679C1246.93 99.1675 1247.35 99.5741 1247.87 99.5741ZM1242.43 93.3379C1242.95 93.3379 1243.36 92.9313 1243.36 92.4316C1243.36 91.932 1242.95 91.5254 1242.43 91.5254C1241.92 91.5254 1241.5 91.932 1241.5 92.4316C1241.5 92.5993 1241.55 92.7544 1241.63 92.8892C1241.65 92.9087 1241.67 92.9252 1241.68 92.9463C1241.7 92.9687 1241.71 92.9933 1241.73 93.0166C1241.9 93.2114 1242.15 93.3379 1242.43 93.3379ZM1281.44 81.5261C1281.44 81.0264 1281.02 80.6198 1280.51 80.6198C1280 80.6198 1279.58 81.0264 1279.58 81.5261C1279.58 82.0257 1280 82.4323 1280.51 82.4323C1281.02 82.4323 1281.44 82.0257 1281.44 81.5261Z" fill="white"/>
<path d="M1257.78 110.795L1258.17 117.033C1258.2 117.55 1257.82 118.005 1257.3 118.082C1255.41 118.359 1253.48 118.5 1251.56 118.5C1249.65 118.5 1247.72 118.359 1245.83 118.082C1245.3 118.005 1244.93 117.55 1244.96 117.033L1245.29 111.677C1241.26 110.891 1237.48 109.371 1234.05 107.148L1230.39 111.163C1230.04 111.55 1229.44 111.612 1229.01 111.305C1225.91 109.088 1223.19 106.436 1220.9 103.423C1220.59 103.006 1220.65 102.425 1221.05 102.081L1225.18 98.5235C1222.89 95.1861 1221.33 91.5191 1220.52 87.5987L1215.01 87.921C1214.48 87.9525 1214.01 87.5844 1213.93 87.0723C1213.64 85.2408 1213.5 83.3658 1213.5 81.4989C1213.5 79.6323 1213.64 77.7573 1213.93 75.9255C1214.01 75.4134 1214.48 75.037 1215.01 75.0768L1220.52 75.3991C1221.33 71.48 1222.89 67.8127 1225.18 64.4753L1221.05 60.9166C1220.65 60.5732 1220.59 59.9915 1220.9 59.5751C1223.18 56.565 1225.91 53.9132 1229.01 51.6928C1229.44 51.3858 1230.04 51.448 1230.39 51.8344L1234.05 55.8498C1237.51 53.619 1241.42 52.0541 1245.48 51.2839L1245.04 45.9743C1245 45.4495 1245.38 44.9818 1245.92 44.9043C1249.64 44.3652 1253.49 44.3652 1257.21 44.9043C1257.75 44.9818 1258.13 45.4496 1258.09 45.9743L1257.57 52.1893C1257.52 52.7401 1257.02 53.1503 1256.46 53.105C1255.89 53.0601 1255.47 52.5776 1255.52 52.0273L1255.96 46.7572C1253.05 46.4128 1250.08 46.4128 1247.17 46.7572L1247.61 52.0268C1247.66 52.546 1247.28 53.0109 1246.75 53.0949C1242.36 53.7915 1238.12 55.4843 1234.48 57.9899C1234.05 58.2849 1233.46 58.2181 1233.11 57.8373L1229.48 53.8537C1227.1 55.6511 1224.97 57.7247 1223.12 60.034L1227.22 63.565C1227.61 63.9035 1227.68 64.4749 1227.38 64.8912C1224.81 68.4236 1223.12 72.3693 1222.38 76.6188C1222.29 77.1218 1221.82 77.4795 1221.3 77.4485L1215.84 77.1288C1215.65 78.5723 1215.56 80.0384 1215.56 81.499C1215.56 82.9599 1215.65 84.4259 1215.84 85.8692L1221.3 85.5495C1221.82 85.5157 1222.29 85.8767 1222.38 86.3793C1223.12 90.6301 1224.81 94.5761 1227.38 98.1078C1227.68 98.5242 1227.61 99.0954 1227.22 99.434L1223.12 102.964C1224.97 105.276 1227.11 107.349 1229.48 109.144L1233.11 105.161C1233.46 104.779 1234.05 104.713 1234.48 105.008C1238.11 107.508 1242.17 109.143 1246.54 109.869C1247.06 109.955 1247.43 110.406 1247.4 110.915L1247.07 116.229C1250.04 116.589 1253.09 116.589 1256.06 116.229L1255.73 110.915C1255.7 110.363 1256.13 109.89 1256.7 109.857C1257.26 109.827 1257.75 110.244 1257.78 110.795ZM1279.87 67.5195C1281.52 67.5195 1282.86 68.8234 1282.86 70.4259C1282.86 72.0285 1281.52 73.3323 1279.87 73.3323C1279.49 73.3323 1279.13 73.2564 1278.8 73.131L1276 75.947C1275.8 76.142 1275.54 76.2524 1275.26 76.2524H1260.97C1260.4 76.2524 1259.94 75.8048 1259.94 75.2524C1259.94 74.7 1260.4 74.2524 1260.97 74.2524H1274.82L1277.25 71.8052C1277.02 71.3928 1276.88 70.9277 1276.88 70.4261C1276.88 68.8232 1278.22 67.5195 1279.87 67.5195ZM1278.93 70.4259C1278.93 70.9256 1279.35 71.3321 1279.87 71.3321C1280.38 71.3321 1280.8 70.9256 1280.8 70.4259C1280.8 69.9263 1280.38 69.5197 1279.87 69.5197C1279.35 69.5196 1278.93 69.9261 1278.93 70.4259ZM1268.7 64.8892L1272.51 59.5583C1272.12 59.0691 1271.89 58.4651 1271.89 57.8029C1271.89 56.2003 1273.23 54.8965 1274.87 54.8965C1276.52 54.8965 1277.86 56.2003 1277.86 57.8029C1277.86 59.4054 1276.52 60.7092 1274.87 60.7092C1274.66 60.7092 1274.45 60.6835 1274.24 60.6403L1270.08 66.4604C1269.89 66.729 1269.57 66.8895 1269.23 66.8895H1257.92C1257.35 66.8895 1256.89 66.4419 1256.89 65.8895C1256.89 65.3371 1257.35 64.8895 1257.92 64.8895H1268.7V64.8892ZM1273.94 57.8029C1273.94 58.3025 1274.36 58.7091 1274.87 58.7091C1275.39 58.7091 1275.81 58.3025 1275.81 57.8029C1275.81 57.3032 1275.39 56.8967 1274.87 56.8967C1274.36 56.8965 1273.94 57.3031 1273.94 57.8029ZM1277.62 105.196C1277.62 106.798 1276.28 108.102 1274.63 108.102C1272.98 108.102 1271.64 106.798 1271.64 105.196C1271.64 104.412 1271.96 103.703 1272.48 103.179L1268.69 97.8852H1257.92C1257.35 97.8852 1256.89 97.4376 1256.89 96.8852C1256.89 96.3328 1257.35 95.8852 1257.92 95.8852H1269.23C1269.57 95.8852 1269.89 96.0456 1270.08 96.3143L1274.37 102.315C1274.46 102.307 1274.54 102.289 1274.63 102.289C1276.28 102.289 1277.62 103.593 1277.62 105.196ZM1275.56 105.196C1275.56 104.696 1275.14 104.289 1274.63 104.289C1274.11 104.289 1273.69 104.696 1273.69 105.196C1273.69 105.695 1274.11 106.102 1274.63 106.102C1275.14 106.102 1275.56 105.695 1275.56 105.196ZM1282.61 92.8506C1282.61 94.4532 1281.27 95.757 1279.62 95.757C1277.97 95.757 1276.63 94.4532 1276.63 92.8506C1276.63 92.2267 1276.84 91.6518 1277.18 91.1777L1274.82 88.8004H1260.97C1260.4 88.8004 1259.94 88.3528 1259.94 87.8004C1259.94 87.248 1260.4 86.8004 1260.97 86.8004H1275.26C1275.54 86.8004 1275.8 86.9109 1276 87.1058L1278.91 90.0363C1279.14 89.9817 1279.37 89.9444 1279.62 89.9444C1281.27 89.9443 1282.61 91.2479 1282.61 92.8506ZM1280.55 92.8506C1280.55 92.351 1280.13 91.9444 1279.62 91.9444C1279.11 91.9444 1278.69 92.351 1278.69 92.8506C1278.69 93.3503 1279.11 93.7569 1279.62 93.7569C1280.13 93.7569 1280.55 93.3503 1280.55 92.8506ZM1283.5 81.5261C1283.5 83.1286 1282.16 84.4324 1280.51 84.4324C1279.22 84.4324 1278.14 83.6352 1277.71 82.5258H1255.16V100.204C1255.16 103.826 1252.13 106.773 1248.41 106.773C1245.68 106.773 1243.27 105.218 1242.21 102.835C1242.17 102.836 1242.13 102.837 1242.08 102.837C1238.36 102.837 1235.33 99.8896 1235.33 96.2674C1235.33 96.0939 1235.33 95.9203 1235.35 95.7475C1233.74 95.4353 1232.22 94.6326 1230.98 93.4249C1229.39 91.8756 1228.51 89.8161 1228.51 87.6253C1228.51 85.4345 1229.39 83.3749 1230.98 81.826C1231.1 81.7098 1231.23 81.6079 1231.36 81.4992C1231.23 81.3903 1231.1 81.2884 1230.98 81.1724C1229.39 79.6232 1228.51 77.5636 1228.51 75.3731C1228.51 73.1823 1229.39 71.1227 1230.98 69.5735C1232.22 68.3658 1233.74 67.563 1235.35 67.2509C1235.33 67.078 1235.33 66.9046 1235.33 66.731C1235.33 63.1085 1238.36 60.1615 1242.08 60.1615C1242.13 60.1615 1242.17 60.1618 1242.21 60.1628C1243.27 57.7799 1245.68 56.2252 1248.41 56.2252C1252.13 56.2252 1255.16 59.1721 1255.16 62.7944V80.5259H1277.71C1278.14 79.4168 1279.22 78.62 1280.51 78.62C1282.16 78.6198 1283.5 79.9235 1283.5 81.5261ZM1232.44 79.7581C1232.72 80.0356 1233.05 80.2792 1233.39 80.499H1253.11V62.7941C1253.11 60.2745 1251 58.225 1248.41 58.225C1246.68 58.225 1245.14 59.1203 1244.32 60.5297C1245.15 60.813 1245.92 61.2544 1246.59 61.8364C1246.6 61.8432 1246.6 61.8529 1246.61 61.8598C1246.99 61.6858 1247.42 61.5815 1247.87 61.5815C1249.51 61.5815 1250.86 62.8853 1250.86 64.4874C1250.86 66.09 1249.51 67.3938 1247.87 67.3938C1246.22 67.3938 1244.88 66.09 1244.88 64.4874C1244.88 64.0541 1244.98 63.6465 1245.16 63.2768C1244.3 62.5582 1243.22 62.1612 1242.08 62.1612C1239.49 62.1612 1237.38 64.2111 1237.38 66.7307C1237.38 66.8749 1237.4 67.0183 1237.41 67.1615C1238.63 67.284 1239.8 67.6579 1240.85 68.27C1241.31 67.9875 1241.85 67.8176 1242.43 67.8176C1244.08 67.8176 1245.42 69.1214 1245.42 70.7239C1245.42 72.3262 1244.08 73.6299 1242.43 73.6299C1240.78 73.6299 1239.44 72.3261 1239.44 70.7239C1239.44 70.43 1239.5 70.1516 1239.58 69.8839C1238.66 69.388 1237.63 69.1172 1236.55 69.1139C1235.06 69.1935 1233.6 69.857 1232.44 70.9873C1231.23 72.1588 1230.57 73.7162 1230.57 75.3728C1230.57 77.0293 1231.23 78.5866 1232.44 79.7581ZM1241.5 70.7241C1241.5 71.2237 1241.92 71.63 1242.43 71.63C1242.95 71.63 1243.36 71.2237 1243.36 70.7241C1243.36 70.2244 1242.95 69.8179 1242.43 69.8179C1241.92 69.8177 1241.5 70.2243 1241.5 70.7241ZM1247.87 65.3938C1248.38 65.3938 1248.8 64.9872 1248.8 64.4876C1248.8 63.9879 1248.38 63.5816 1247.87 63.5816C1247.35 63.5816 1246.93 63.9879 1246.93 64.4876C1246.93 64.9872 1247.35 65.3938 1247.87 65.3938ZM1253.11 100.204V82.499H1233.37C1233.03 82.7166 1232.72 82.9651 1232.44 83.2399C1231.23 84.4112 1230.57 85.9685 1230.57 87.6251C1230.57 89.2817 1231.23 90.8391 1232.44 92.0106C1233.6 93.1409 1235.06 93.8044 1236.55 93.884C1237.61 93.8807 1238.63 93.62 1239.54 93.1388C1239.48 92.9112 1239.44 92.6768 1239.44 92.4315C1239.44 90.8289 1240.78 89.5251 1242.43 89.5251C1244.08 89.5251 1245.42 90.8289 1245.42 92.4315C1245.42 94.0341 1244.08 95.3379 1242.43 95.3379C1241.79 95.3379 1241.2 95.1364 1240.71 94.8008C1239.7 95.3682 1238.58 95.7192 1237.41 95.8365C1237.4 95.9797 1237.38 96.1231 1237.38 96.2674C1237.38 98.787 1239.49 100.836 1242.08 100.836C1243.19 100.836 1244.26 100.455 1245.1 99.7652C1244.96 99.4261 1244.88 99.0564 1244.88 98.6677C1244.88 97.0652 1246.22 95.7614 1247.87 95.7614C1249.51 95.7614 1250.86 97.0652 1250.86 98.6677C1250.86 100.27 1249.51 101.574 1247.87 101.574C1247.37 101.574 1246.91 101.445 1246.5 101.236C1245.85 101.779 1245.11 102.198 1244.32 102.468C1245.14 103.878 1246.68 104.773 1248.41 104.773C1251 104.773 1253.11 102.724 1253.11 100.204ZM1247.87 99.5741C1248.38 99.5741 1248.8 99.1675 1248.8 98.6679C1248.8 98.1682 1248.38 97.7617 1247.87 97.7617C1247.35 97.7617 1246.93 98.1682 1246.93 98.6679C1246.93 99.1675 1247.35 99.5741 1247.87 99.5741ZM1242.43 93.3379C1242.95 93.3379 1243.36 92.9313 1243.36 92.4316C1243.36 91.932 1242.95 91.5254 1242.43 91.5254C1241.92 91.5254 1241.5 91.932 1241.5 92.4316C1241.5 92.5993 1241.55 92.7544 1241.63 92.8892C1241.65 92.9087 1241.67 92.9252 1241.68 92.9463C1241.7 92.9687 1241.71 92.9933 1241.73 93.0166C1241.9 93.2114 1242.15 93.3379 1242.43 93.3379ZM1281.44 81.5261C1281.44 81.0264 1281.02 80.6198 1280.51 80.6198C1280 80.6198 1279.58 81.0264 1279.58 81.5261C1279.58 82.0257 1280 82.4323 1280.51 82.4323C1281.02 82.4323 1281.44 82.0257 1281.44 81.5261Z" stroke="white" mask="url(#path-5-outside-1_3_82)"/>
</svg>
